<?xml version="1.0" encoding="UTF-8" standalone="no"?><!DOCTYPE svg PUBLIC "-//W3C//DTD SVG 1.1//EN" "http://www.w3.org/Graphics/SVG/1.1/DTD/svg11.dtd"><svg width="100%" height="100%" viewBox="0 0 81 85" version="1.1" xmlns="http://www.w3.org/2000/svg" xmlns:xlink="http://www.w3.org/1999/xlink" xml:space="preserve" style="fill-rule:evenodd;clip-rule:evenodd;stroke-linejoin:round;stroke-miterlimit:1.41421;"><path d="M21.369,74.164c-7.861,-0.653 -14.192,-4.025 -18.279,-10.912c-4.075,-6.869 -3.962,-13.978 -0.585,-21.04c-7.413,-14.37 2.529,-31.168 18.894,-32.155c4.517,-6.477 10.794,-10.06 18.803,-10.057c7.96,0.002 14.204,3.557 18.741,10.009c15.68,0.61 26.366,16.941 18.904,32.113c3.383,7.089 3.528,14.244 -0.571,21.155c-4.086,6.888 -10.443,10.229 -18.223,10.892c-9.014,13.416 -28.531,13.478 -37.684,-0.005Z" style="fill:url(#_Linear1);"/><path d="M40.17,69.367c3.068,0.011 5.697,-1.84 6.681,-4.706c0.958,-2.789 0.011,-5.795 -2.41,-7.682c-0.493,-0.385 -1.014,-0.755 -1.43,-1.215c-2.406,-2.663 -1.168,-6.647 2.315,-7.512c2.899,-0.72 5.407,1.264 5.802,4.591c0.507,4.266 4.273,7.037 8.448,6.217c3.952,-0.777 6.422,-4.83 5.292,-8.684c-1.149,-3.919 -5.42,-5.939 -9.399,-4.448c-0.544,0.204 -1.082,0.444 -1.643,0.587c-1.939,0.492 -3.986,-0.28 -5.097,-1.885c-1.065,-1.54 -1.06,-3.526 0.014,-5.046c1.158,-1.639 3.118,-2.372 5.1,-1.859c0.647,0.167 1.263,0.452 1.898,0.671c3.234,1.117 6.725,-0.119 8.418,-2.974c1.653,-2.786 1.141,-6.311 -1.23,-8.481c-2.498,-2.288 -6.289,-2.481 -9.043,-0.444c-1.776,1.314 -2.553,3.138 -2.789,5.298c-0.26,2.384 -1.955,4.021 -4.288,4.326c-1.868,0.244 -3.915,-0.953 -4.673,-2.733c-0.874,-2.051 -0.234,-4.236 1.674,-5.732c0.388,-0.304 0.792,-0.592 1.148,-0.93c2.88,-2.733 2.94,-7.118 0.144,-9.835c-2.875,-2.794 -7.582,-2.597 -10.216,0.427c-2.598,2.984 -2.126,7.405 1.043,9.89c0.562,0.44 1.143,0.883 1.604,1.421c1.312,1.529 1.435,3.708 0.377,5.384c-1.061,1.681 -3.056,2.472 -5.026,1.952c-2.558,-0.677 -3.395,-2.6 -3.758,-5.001c-0.622,-4.112 -4.525,-6.653 -8.545,-5.689c-3.912,0.939 -6.207,4.958 -4.991,8.739c1.241,3.859 5.523,5.807 9.37,4.276c0.622,-0.248 1.253,-0.518 1.905,-0.639c2.666,-0.497 5.082,1.213 5.522,3.856c0.393,2.366 -1.373,4.84 -3.904,5.05c-1.226,0.102 -2.553,-0.31 -3.753,-0.724c-3.856,-1.331 -8.027,0.657 -9.189,4.478c-1.16,3.814 1.149,7.771 5.075,8.7c3.952,0.935 7.802,-1.581 8.535,-5.58c0.097,-0.529 0.144,-1.068 0.262,-1.592c0.515,-2.282 2.667,-3.901 4.935,-3.73c2.254,0.17 4.022,1.881 4.214,4.167c0.172,2.049 -0.885,3.453 -2.47,4.617c-2.599,1.909 -3.533,4.822 -2.572,7.721c0.944,2.847 3.595,4.743 6.65,4.753Zm-14.099,-3.203c-7.138,1.213 -12.771,-0.823 -16.523,-7.011c-2.586,-4.266 -2.919,-11.284 2.332,-17c-4.672,-5.577 -5.779,-11.635 -1.78,-18.027c3.153,-5.041 7.8,-6.729 15.921,-6.159c2.398,-6.535 7.026,-10.465 14.145,-10.478c7.074,-0.013 11.697,3.844 14.178,10.466c7.564,-1.173 13.673,1.054 17.046,8.245c2.701,5.76 1.271,11.103 -2.91,15.875c4.765,5.636 5.785,11.718 1.685,18.134c-3.144,4.919 -8.045,6.683 -15.857,5.984c-2.356,6.589 -7.04,10.492 -14.129,10.487c-7.039,-0.005 -11.713,-3.856 -14.108,-10.516Z" style="fill:#fff;fill-rule:nonzero;"/><defs><linearGradient id="_Linear1" x1="0" y1="0" x2="1" y2="0" gradientUnits="userSpaceOnUse" gradientTransform="matrix(3.78276e-09,-84.2549,84.2549,3.78276e-09,40.1847,84.254)"><stop offset="0%" style="stop-color:#f15b26;stop-opacity:1"/><stop offset="100%" style="stop-color:#dfbe3a;stop-opacity:1"/></linearGradient></defs></svg>