<?xml version="1.0" encoding="UTF-8" standalone="no"?><!DOCTYPE svg PUBLIC "-//W3C//DTD SVG 1.1//EN" "http://www.w3.org/Graphics/SVG/1.1/DTD/svg11.dtd"><svg width="100%" height="100%" viewBox="0 0 445 456" version="1.1" xmlns="http://www.w3.org/2000/svg" xmlns:xlink="http://www.w3.org/1999/xlink" xml:space="preserve" style="fill-rule:evenodd;clip-rule:evenodd;stroke-linejoin:round;stroke-miterlimit:1.41421;"><g><path d="M271.748,62.161c1.898,-0.141 2.763,1.833 2.906,3.303c-0.271,-1.373 -0.408,-3.817 1.91,-4.216c2.672,-0.46 3.772,2.821 4.078,4.003l0.028,-0.004c-0.156,-1.137 -0.356,-4.207 1.905,-4.563c2.244,-0.353 3.012,2.678 3.226,3.871c-0.166,-1.305 -0.355,-4.756 2.382,-5.076c2.049,-0.238 2.293,4.453 2.293,4.453c-1.474,95.561 6.796,197.037 6.796,197.037l-23.681,-4.583c-10.445,-88.505 -2.741,-180.883 -3.347,-189.346c0,0 -0.343,-4.646 1.504,-4.879Z" style="fill:#fddbbe;fill-rule:nonzero;"/><path d="M358.413,423.183c-2.101,-19.189 -26.68,6.28 -26.68,6.28c0,0 9.93,-23.321 5.169,-32.677c-4.56,-8.963 -21.475,-1.114 -25.925,0.829l-168.796,5.066l1.423,27.185l-18.243,-5.709c0,0 -19.036,26.194 -4.917,30.789c14.119,4.595 8.483,-18.367 8.483,-18.367c0,0 12.36,10.255 22.881,9.221c8.203,-0.805 6.259,-24.429 6.501,-31.572c107.722,13.581 162.811,-5.902 164.494,-6.736c0,0 -2.28,26.695 -1.925,40.292c0,0 39.635,-5.411 37.535,-24.601Z" style="fill:#3a2614;fill-rule:nonzero;"/><path d="M312.967,284.389c0,0 21.163,-198.926 -135.667,-134.214c0,0 -49.543,35.807 -51.005,137.354c152.208,31.28 186.672,-3.14 186.672,-3.14Z" style="fill:#fddbbe;fill-rule:nonzero;"/><path d="M323.696,77.327c0,0 46.261,122.295 -137.065,97.541l-13.121,40.954c0,0 -16.566,-17.045 -21.694,0.963c-5.123,18.009 17.329,12.071 17.329,12.071c0,0 -20.262,46.823 -42.85,58.673c0,0 -58.179,-189.125 32.954,-169.689c0,0 3.649,-34.175 54.511,-35.542c52.713,-1.416 85.307,62.128 109.936,-4.971Z" style="fill:#3a2614;fill-rule:nonzero;"/><path d="M312.967,284.389l-1.99,113.225c0,0 -69.987,15.317 -168.796,5.067l-15.887,-115.153c0,0 124.138,17.942 186.673,-3.139Z" style="fill:#46499e;fill-rule:nonzero;"/><path d="M195.782,367.474l-15.13,-19.243l19.236,-12.804c3.488,0.983 6.786,1.758 9.889,2.343c44.147,8.332 50.487,-21.236 50.487,-21.236l-6.38,-8.995l3.331,-5.94l15.251,-1.762l3.897,7.247l-5.412,8.541c0,0 -8.139,54.857 -75.169,51.849Z" style="fill:#fff;fill-rule:nonzero;"/><path d="M0,295.436c0.203,0.024 0.403,0.038 0.592,0.04c-0.182,-0.019 -0.382,-0.033 -0.592,-0.04Z" style="fill:#fddbbe;fill-rule:nonzero;"/><path d="M123.173,96.186c0.03,0.209 0.066,0.407 0.105,0.587c-0.022,-0.19 -0.057,-0.387 -0.105,-0.587Z" style="fill:#fddbbe;fill-rule:nonzero;"/><path d="M123.561,265.041c0.794,7.49 1.699,15.003 2.734,22.488l23.767,4.108c0,0 -1.204,-10.485 -2.815,-28.205l-23.686,1.609Z" style="fill:#46499e;fill-rule:nonzero;"/><path d="M139.067,94.923c0,0 -0.338,-4.685 -2.382,-4.405c-2.73,0.374 -2.471,3.821 -2.279,5.123c-0.239,-1.189 -1.068,-4.204 -3.303,-3.806c-2.254,0.401 -1.992,3.466 -1.814,4.6l-0.029,0.005c-0.329,-1.176 -1.493,-4.435 -4.156,-3.922c-2.008,0.388 -2.128,2.281 -1.931,3.668c0.048,0.2 0.083,0.397 0.105,0.587c-0.039,-0.18 -0.075,-0.378 -0.105,-0.587c-0.317,-1.35 -1.215,-2.814 -2.867,-2.658c-1.84,0.269 -1.404,4.907 -1.404,4.907c0.709,7.734 -3.913,85.756 4.659,166.606l23.686,-1.609c-3.242,-35.633 -8.128,-100.551 -8.18,-168.509Z" style="fill:#fddbbe;fill-rule:nonzero;"/><path d="M226.202,223.399c-0.117,5.196 -2.23,9.364 -4.72,9.308c-2.49,-0.056 -4.414,-4.315 -4.297,-9.511c0.117,-5.197 2.23,-9.364 4.721,-9.308c2.49,0.056 4.414,4.314 4.296,9.511Z" style="fill:#3a2614;fill-rule:nonzero;"/><path d="M293.615,218.358c-0.117,5.196 -2.23,9.364 -4.721,9.308c-2.491,-0.056 -4.414,-4.315 -4.297,-9.511c0.118,-5.197 2.231,-9.364 4.721,-9.308c2.49,0.056 4.414,4.314 4.297,9.511Z" style="fill:#3a2614;fill-rule:nonzero;"/><path d="M229.399,214.056l-39.12,-15.393l4.463,-6.569l37.905,17.046l-3.248,4.916Z" style="fill:#3a2614;fill-rule:nonzero;"/><path d="M280.58,210.557l29.243,-23.852l-6.225,-4.93l-27.59,25.064l4.572,3.718Z" style="fill:#3a2614;fill-rule:nonzero;"/><path d="M242.305,243.049l-6.287,33.331l41.979,-10.694l0.843,-17.725l-36.535,-4.912Z" style="fill:#eb7d86;fill-rule:nonzero;"/><path d="M379.294,78.162c-0.318,-0.404 -0.62,-0.825 -0.905,-1.266c-5.35,-8.263 -2.989,-19.299 5.275,-24.65c3.427,-2.219 7.323,-3.042 11.101,-2.736c1.794,-3.966 4.69,-7.489 8.614,-10.029c10.888,-7.05 25.43,-3.939 32.48,6.95c3.446,5.322 4.449,11.516 3.317,17.282c0.673,0.781 1.317,1.597 1.894,2.487c6.836,10.558 3.819,24.661 -6.74,31.499c-6.674,4.321 -14.759,4.695 -21.535,1.727c-8.703,5.505 -20.232,3.007 -25.842,-5.659c-1.246,-1.925 -2.077,-3.99 -2.535,-6.103l-35.002,11.288l29.878,-20.79Zm-294.418,-23.293c-2.108,4.597 -6.428,8.063 -11.808,8.843c-7.347,1.064 -14.232,-3.235 -16.697,-9.934c-0.359,0.074 -0.714,0.159 -1.083,0.213c-9.36,1.356 -18.047,-5.133 -19.404,-14.492c-1.179,-8.136 3.571,-15.757 10.979,-18.505c-0.573,-10.184 6.716,-19.295 17.003,-20.786c7.153,-1.037 13.953,1.886 18.228,7.093c9.795,-0.084 18.396,7.057 19.839,17.023c1.249,8.618 -3.232,16.729 -10.558,20.51l25.248,32.258l-31.747,-22.223Z" style="fill:#46499e;fill-opacity:0.2;"/></g></svg>