<?xml version="1.0" encoding="UTF-8" standalone="no"?><!DOCTYPE svg PUBLIC "-//W3C//DTD SVG 1.1//EN" "http://www.w3.org/Graphics/SVG/1.1/DTD/svg11.dtd"><svg width="100%" height="100%" viewBox="0 0 512 512" version="1.1" xmlns="http://www.w3.org/2000/svg" xmlns:xlink="http://www.w3.org/1999/xlink" xml:space="preserve" style="fill-rule:evenodd;clip-rule:evenodd;stroke-linejoin:round;stroke-miterlimit:1.41421;"><circle cx="256" cy="256" r="256" style="fill:#273b7a;"/><path d="M261.584,232.469l0,49.055l76.717,0c-10.88,35.116 -43.608,60.623 -82.298,60.623c-47.578,0 -86.149,-38.569 -86.149,-86.149c-0.002,-47.576 38.567,-86.147 86.145,-86.147c22.235,0 42.436,8.497 57.72,22.326l35.997,-38.538c-24.693,-22.619 -57.589,-36.431 -93.717,-36.431c-76.652,0 -138.792,62.138 -138.792,138.792c0,76.654 62.14,138.792 138.793,138.792c76.653,0 138.792,-62.139 138.792,-138.792c0,-8.03 -0.741,-15.879 -2.06,-23.531l-131.148,0Z" style="fill:#4285f4;fill-rule:nonzero;"/><path d="M256,169.853c22.235,0 42.436,8.497 57.72,22.326l35.997,-38.538c-24.693,-22.621 -57.589,-36.433 -93.717,-36.433c-53.157,0 -99.311,29.896 -122.625,73.778l42.356,33.921c12.482,-32.19 43.67,-55.054 80.269,-55.054Z" style="fill:#ea4335;fill-rule:nonzero;"/><path d="M169.855,256c0,-10.978 2.132,-21.437 5.877,-31.092l-42.356,-33.921c-10.305,19.397 -16.167,41.517 -16.167,65.014c0,23.605 5.911,45.825 16.305,65.286l42.105,-34.504c-3.668,-9.574 -5.764,-19.922 -5.764,-30.783Z" style="fill:#fbbc05;fill-rule:nonzero;"/><path d="M303.895,327.547c-13.702,9.192 -30.153,14.601 -47.892,14.601c-36.719,0 -67.986,-23.012 -80.386,-55.367l-42.105,34.504c23.362,43.735 69.441,73.506 122.487,73.506c34.451,0 65.943,-12.579 90.207,-33.358l-42.311,-33.886Z" style="fill:#34a853;fill-rule:nonzero;"/><path d="M394.792,256c0,-8.03 -0.741,-15.879 -2.06,-23.531l-131.148,0l0,49.055l76.717,0c-5.891,19.016 -18.225,35.166 -34.406,46.023l42.312,33.887c29.725,-25.457 48.585,-63.231 48.585,-105.434Z" style="fill:#4285f4;fill-rule:nonzero;"/></svg>