<?xml version="1.0" encoding="UTF-8" standalone="no"?><!DOCTYPE svg PUBLIC "-//W3C//DTD SVG 1.1//EN" "http://www.w3.org/Graphics/SVG/1.1/DTD/svg11.dtd"><svg width="100%" height="100%" viewBox="0 0 456 377" version="1.1" xmlns="http://www.w3.org/2000/svg" xmlns:xlink="http://www.w3.org/1999/xlink" xml:space="preserve" style="fill-rule:evenodd;clip-rule:evenodd;stroke-miterlimit:10;"><path d="M276.963,359.953l-4.396,-39.565l-43.334,-13.241l0,-0.577l-0.942,0.287l-0.942,-0.287l0,0.577l-43.334,13.241l-4.396,39.565l-16.329,3.769l0,13.188l130.002,0l0,-13.188l-16.329,-3.769Z" style="fill:#dcdcdc;fill-rule:nonzero;"/><path d="M275.435,346.198l-93.525,-6.861l1.114,-10.023l90.642,0l1.769,16.884Z" style="fill:#dcdcdc;fill-rule:nonzero;"/><path d="M163.29,368.282l0,8.628l130.002,0l0,-2.253l-130.002,-10.936l0,4.561Z" style="fill:#dcdcdc;fill-rule:nonzero;"/><path d="M455.354,319.864c0,6.877 -5.565,12.45 -12.43,12.45l-429.993,0c-6.866,0 -12.431,-5.573 -12.431,-12.45l0,-303.414c0,-6.876 5.565,-12.45 12.431,-12.45l429.993,0c6.865,0 12.43,5.574 12.43,12.45l0,303.414Z" style="fill:#dcdcdc;fill-rule:nonzero;"/><path d="M228.291,297.74c-3.17,0 -5.75,2.579 -5.75,5.75c0,3.171 2.58,5.75 5.75,5.75c3.171,0 5.75,-2.579 5.75,-5.75c0,-3.171 -2.579,-5.75 -5.75,-5.75m0,20.5c-8.133,0 -14.75,-6.617 -14.75,-14.75c0,-8.133 6.617,-14.75 14.75,-14.75c8.133,0 14.75,6.617 14.75,14.75c0,8.133 -6.617,14.75 -14.75,14.75" style="fill:#255f6b;fill-rule:nonzero;"/><path d="M9.383,267.107l0,-252.577c0,-2.21 1.434,-4.148 3.068,-4.148l430.682,0c1.632,0 3.067,1.938 3.067,4.148l0,252.577l-436.818,0Z" style="fill:#81aab5;fill-rule:nonzero;"/><path d="M443.132,1l-430.682,0c-6.876,0 -12.45,6.058 -12.45,13.531l0,261.959l455.582,0l0,-261.959c0,-7.473 -5.574,-13.531 -12.45,-13.531m-6.314,256.726l-418.053,0l0,-237.961l418.053,0l0,237.961Z" style="fill:#255f6b;fill-rule:nonzero;"/><g><g opacity="0.130005"><clipPath id="_clip1"><rect x="94.527" y="0" width="360.724" height="275.49"/></clipPath><g clip-path="url(#_clip1)"><path d="M442.801,0l-160.055,0l-188.218,275.49l360.723,0l0,-261.959c0,-7.473 -5.574,-13.531 -12.45,-13.531" style="fill:#255f6b;fill-rule:nonzero;"/></g></g></g><path d="M104.789,192.082l44.557,0l0,28.254l-44.557,0l0,-28.254Zm-5.295,14.127c0,-1.081 0.878,-1.959 1.961,-1.959c1.084,0 1.959,0.878 1.959,1.959c0,1.081 -0.875,1.959 -1.959,1.959c-1.083,0 -1.961,-0.878 -1.961,-1.959m53.242,-4.138l0,8.276c0,0.263 -0.212,0.475 -0.476,0.475c-0.261,0 -0.475,-0.212 -0.475,-0.475l0,-8.276c0,-0.263 0.214,-0.475 0.475,-0.475c0.264,0 0.476,0.212 0.476,0.475m2.825,17.072l0,-25.87c0,-2.153 -1.761,-3.918 -3.919,-3.918l-50.185,0c-2.157,0 -3.921,1.765 -3.921,3.918l0,25.87c0,2.155 1.761,3.92 3.919,3.92l50.187,0c2.158,0 3.919,-1.765 3.919,-3.92" style="fill:#6cc;fill-rule:nonzero;"/><path d="M104.789,192.082l44.557,0l0,28.254l-44.557,0l0,-28.254Zm-5.295,14.127c0,-1.081 0.878,-1.959 1.961,-1.959c1.084,0 1.959,0.878 1.959,1.959c0,1.081 -0.875,1.959 -1.959,1.959c-1.083,0 -1.961,-0.878 -1.961,-1.959Zm53.242,-4.138l0,8.276c0,0.263 -0.212,0.475 -0.476,0.475c-0.261,0 -0.475,-0.212 -0.475,-0.475l0,-8.276c0,-0.263 0.214,-0.475 0.475,-0.475c0.264,0 0.476,0.212 0.476,0.475Zm2.825,17.072l0,-25.87c0,-2.153 -1.761,-3.918 -3.919,-3.918l-50.185,0c-2.157,0 -3.921,1.765 -3.921,3.918l0,25.87c0,2.155 1.761,3.92 3.919,3.92l50.187,0c2.158,0 3.919,-1.765 3.919,-3.92Z" style="fill:none;stroke:#6cc;stroke-width:0.34px;"/><path d="M388.693,201.984l-73.778,0c0,3.877 -3.144,7.026 -7.028,7.026l-42.158,0c-3.884,0 -7.027,-3.149 -7.027,-7.026l-73.778,0c-5.819,0 -10.54,4.721 -10.54,10.54c0,5.818 4.721,10.54 10.54,10.54l203.769,0c5.818,0 10.539,-4.722 10.539,-10.54c0,-5.819 -4.721,-10.54 -10.539,-10.54m-3.513,-35.132c0,3.869 -3.15,7.026 -7.027,7.026l-182.689,0c-3.877,0 -7.027,-3.157 -7.027,-7.026l0,-91.345c0,-3.87 3.15,-7.027 7.027,-7.027l182.689,0c3.877,0 7.027,3.157 7.027,7.027l0,91.345Zm-7.027,-112.425l-182.689,0c-11.625,0 -21.08,9.459 -21.08,21.08l0,91.345c0,11.623 9.455,21.079 21.08,21.079l182.689,0c11.624,0 21.079,-9.456 21.079,-21.079l0,-91.345c0,-11.621 -9.455,-21.08 -21.079,-21.08" style="fill:#6cc;fill-rule:nonzero;"/><path d="M141.134,159.957l-64.922,0l0,-86.564l64.922,0l0,86.564Zm-32.461,10.82c-1.991,0 -3.607,-1.615 -3.607,-3.607c0,-1.992 1.616,-3.607 3.607,-3.607c1.991,0 3.607,1.615 3.607,3.607c0,1.992 -1.616,3.607 -3.607,3.607m36.068,-111.811l-72.136,0c-5.951,0 -10.82,4.87 -10.82,10.82l0,93.777c0,5.951 4.869,10.82 10.82,10.82l72.136,0c5.951,0 10.82,-4.869 10.82,-10.82l0,-93.777c0,-5.95 -4.869,-10.82 -10.82,-10.82" style="fill:#6cc;fill-rule:nonzero;"/><path d="M409.222,38.119c1.34,0 2.427,1.087 2.427,2.427c0,1.34 -1.087,2.426 -2.427,2.426c-1.34,0 -2.426,-1.086 -2.426,-2.426c0,-1.34 1.086,-2.427 2.426,-2.427" style="fill:#c2ebeb;fill-rule:nonzero;"/><path d="M415.02,34.7c-0.035,-0.037 -0.074,-0.07 -0.111,-0.104l-0.109,-0.103c-0.018,-0.019 -0.038,-0.033 -0.061,-0.051c-3.137,-2.85 -7.938,-2.737 -10.932,0.257l-0.351,0.352l-0.486,0.486c-0.592,0.593 -0.589,1.558 0.004,2.15c0.595,0.595 1.56,0.596 2.15,0.004l0.838,-0.839c1.904,-1.902 5.001,-1.902 6.904,0l0.605,0.586c0.586,0.586 1.542,0.585 2.131,-0.006c0.285,-0.283 0.442,-0.662 0.443,-1.065c0.001,-0.401 -0.154,-0.78 -0.439,-1.063l-0.586,-0.604Z" style="fill:#c2ebeb;fill-rule:nonzero;"/><path d="M419.152,31.701l-0.504,-0.504c-0.001,-0.002 -0.002,-0.005 -0.006,-0.006l-0.398,-0.4c-0.071,-0.069 -0.146,-0.129 -0.226,-0.181c-5.114,-4.489 -12.889,-4.351 -17.841,0.411c-0.023,0.022 -0.049,0.037 -0.074,0.061l-0.909,0.911c-0.541,0.539 -0.537,1.416 0.006,1.959c0.541,0.542 1.418,0.546 1.959,0.005l0.91,-0.909c0.006,-0.008 0.01,-0.015 0.017,-0.02c4.003,-3.867 10.351,-3.891 14.387,-0.079l0.717,0.717c0.538,0.539 1.418,0.537 1.959,-0.005c0.541,-0.543 0.543,-1.421 0.004,-1.96" style="fill:#c2ebeb;fill-rule:nonzero;"/></svg>