<?xml version="1.0" encoding="UTF-8" standalone="no"?><!DOCTYPE svg PUBLIC "-//W3C//DTD SVG 1.1//EN" "http://www.w3.org/Graphics/SVG/1.1/DTD/svg11.dtd"><svg width="100%" height="100%" viewBox="0 0 380 381" version="1.1" xmlns="http://www.w3.org/2000/svg" xmlns:xlink="http://www.w3.org/1999/xlink" xml:space="preserve" style="fill-rule:evenodd;clip-rule:evenodd;stroke-linejoin:round;stroke-miterlimit:1.41421;"><path d="M359.028,380.002c11.581,0 20.972,-9.391 20.972,-20.973l0,-338.055c0,-11.585 -9.391,-20.974 -20.972,-20.974l-338.055,0c-11.587,0 -20.973,9.389 -20.973,20.974l0,338.055c0,11.582 9.386,20.973 20.973,20.973l338.055,0Z" style="fill:#3d5b99;fill-rule:nonzero;"/><path d="M262.193,380.002l0,-147.156l49.396,0l7.394,-57.351l-56.79,0l0,-36.615c0,-16.604 4.611,-27.92 28.422,-27.92l30.369,-0.013l0,-51.293c-5.254,-0.698 -23.28,-2.26 -44.253,-2.26c-43.785,0 -73.761,26.726 -73.761,75.808l0,42.293l-49.521,0l0,57.351l49.521,0l0,147.156l59.223,0Z" style="fill:#fff;fill-rule:nonzero;"/></svg>