<?xml version="1.0" encoding="UTF-8" standalone="no"?><!DOCTYPE svg PUBLIC "-//W3C//DTD SVG 1.1//EN" "http://www.w3.org/Graphics/SVG/1.1/DTD/svg11.dtd"><svg width="100%" height="100%" viewBox="0 0 360 40" version="1.1" xmlns="http://www.w3.org/2000/svg" xmlns:xlink="http://www.w3.org/1999/xlink" xml:space="preserve" style="fill-rule:evenodd;clip-rule:evenodd;stroke-linejoin:round;stroke-miterlimit:1.41421;"><g><g><rect x="234.84" y="20.986" width="31.748" height="8.064" style="fill:url(#_Linear1);"/><rect x="297.183" y="20.986" width="31.748" height="8.064" style="fill:url(#_Linear2);"/><rect x="203.933" y="20.986" width="31.22" height="8.064" style="fill:url(#_Linear3);"/><rect x="266.276" y="20.986" width="31.22" height="8.064" style="fill:url(#_Linear4);"/><rect x="328.619" y="20.986" width="31.22" height="8.064" style="fill:url(#_Linear5);"/></g><path d="M41.278,39.873l-5.63,0l0,-29.347l5.18,0l0,2.402l0.075,0c0.225,-0.326 0.519,-0.657 0.882,-0.995c0.363,-0.338 0.788,-0.644 1.276,-0.92c0.488,-0.275 1.019,-0.5 1.595,-0.675c0.575,-0.175 1.188,-0.263 1.839,-0.263c1.351,0 2.577,0.232 3.678,0.695c1.101,0.462 2.046,1.113 2.834,1.951c0.788,0.838 1.395,1.833 1.82,2.984c0.425,1.151 0.638,2.414 0.638,3.791c0,1.276 -0.194,2.495 -0.582,3.659c-0.388,1.163 -0.938,2.195 -1.651,3.096c-0.713,0.901 -1.583,1.62 -2.609,2.158c-1.025,0.538 -2.189,0.807 -3.49,0.807c-1.176,0 -2.271,-0.181 -3.284,-0.544c-1.013,-0.363 -1.845,-0.982 -2.496,-1.858l-0.075,0l0,13.059Zm89.687,-13.376c-1.726,0.901 -3.528,1.551 -5.404,1.952c-1.877,0.4 -3.791,0.6 -5.742,0.6c-2.077,0 -3.991,-0.325 -5.743,-0.976c-1.751,-0.65 -3.265,-1.582 -4.541,-2.796c-1.276,-1.213 -2.271,-2.683 -2.984,-4.41c-0.713,-1.726 -1.069,-3.653 -1.069,-5.779c0,-2.127 0.356,-4.054 1.069,-5.78c0.713,-1.727 1.708,-3.197 2.984,-4.41c1.276,-1.214 2.79,-2.146 4.541,-2.796c1.752,-0.651 3.666,-0.976 5.743,-0.976c2.126,0 4.084,0.256 5.873,0.769c1.789,0.513 3.359,1.395 4.71,2.646l-4.128,4.504c-0.801,-0.826 -1.701,-1.451 -2.702,-1.877c-1.001,-0.425 -2.252,-0.638 -3.753,-0.638c-1.251,0 -2.384,0.213 -3.397,0.638c-1.013,0.426 -1.883,1.02 -2.608,1.783c-0.726,0.763 -1.283,1.67 -1.671,2.721c-0.387,1.051 -0.581,2.19 -0.581,3.416c0,1.251 0.194,2.395 0.581,3.434c0.388,1.038 0.945,1.939 1.671,2.702c0.725,0.763 1.595,1.357 2.608,1.783c1.013,0.425 2.146,0.638 3.397,0.638c1.276,0 2.377,-0.144 3.302,-0.432c0.926,-0.288 1.664,-0.582 2.215,-0.882l0,-4.316l-4.767,0l0,-5.404l10.396,0l0,13.886Zm27.877,-0.413c-0.625,0.976 -1.457,1.677 -2.496,2.102c-1.038,0.425 -2.133,0.638 -3.284,0.638c-0.85,0 -1.67,-0.119 -2.458,-0.356c-0.788,-0.238 -1.482,-0.595 -2.083,-1.07c-0.6,-0.476 -1.076,-1.064 -1.426,-1.764c-0.35,-0.701 -0.526,-1.514 -0.526,-2.44c0,-1.051 0.194,-1.939 0.582,-2.664c0.388,-0.726 0.913,-1.326 1.577,-1.802c0.663,-0.475 1.419,-0.844 2.27,-1.107c0.851,-0.263 1.733,-0.457 2.646,-0.582c0.913,-0.125 1.827,-0.2 2.74,-0.225c0.913,-0.025 1.758,-0.037 2.533,-0.037c0,-1.001 -0.356,-1.796 -1.069,-2.384c-0.713,-0.588 -1.558,-0.882 -2.534,-0.882c-0.925,0 -1.77,0.194 -2.533,0.582c-0.763,0.388 -1.445,0.92 -2.046,1.595l-3.002,-3.077c1.051,-0.976 2.277,-1.708 3.678,-2.196c1.401,-0.488 2.852,-0.732 4.354,-0.732c1.651,0 3.008,0.207 4.072,0.619c1.063,0.413 1.914,1.02 2.552,1.821c0.638,0.8 1.082,1.782 1.332,2.946c0.251,1.163 0.376,2.508 0.376,4.034l0,9.271l-5.18,0l0,-2.29l-0.075,0Zm14.761,-15.951l4.954,0l0,4.504l-4.954,0l0,6.08c0,0.501 0.025,0.957 0.075,1.37c0.05,0.413 0.163,0.77 0.338,1.07c0.175,0.3 0.444,0.532 0.807,0.694c0.363,0.163 0.844,0.244 1.445,0.244c0.3,0 0.694,-0.031 1.182,-0.094c0.488,-0.062 0.857,-0.206 1.107,-0.431l0,4.691c-0.625,0.225 -1.276,0.375 -1.951,0.45c-0.676,0.076 -1.339,0.113 -1.99,0.113c-0.95,0 -1.826,-0.1 -2.627,-0.3c-0.801,-0.2 -1.501,-0.519 -2.102,-0.957c-0.6,-0.438 -1.069,-1.007 -1.407,-1.708c-0.338,-0.7 -0.507,-1.551 -0.507,-2.552l0,-8.67l-3.603,0l0,-4.504l3.603,0l0,-5.404l5.63,0l0,5.404Zm-141.043,18.633l-5.63,0l0,-18.24l5.63,0l0,18.24Zm-26.705,0l-5.855,0l0,-26.572l5.855,0l0,11.034l10.321,-11.034l7.656,0l-11.822,12.347l12.836,14.225l-8.182,0l-10.809,-12.611l0,12.611Zm133.606,-0.392l-5.63,0l0,-18.241l5.63,0l0,2.928l0.075,0c0.6,-1.126 1.313,-1.97 2.139,-2.533c0.826,-0.563 1.864,-0.845 3.115,-0.845c0.325,0 0.651,0.013 0.976,0.038c0.325,0.025 0.625,0.075 0.901,0.15l0,5.142c-0.401,-0.126 -0.795,-0.219 -1.183,-0.282c-0.387,-0.063 -0.794,-0.094 -1.219,-0.094c-1.076,0 -1.927,0.15 -2.552,0.451c-0.626,0.3 -1.108,0.719 -1.445,1.257c-0.338,0.538 -0.557,1.182 -0.657,1.933c-0.1,0.75 -0.15,1.576 -0.15,2.477l0,7.619Zm46.817,0l-5.63,0l0,-28.374l5.63,0l0,12.611l0.075,0c0.125,-0.351 0.337,-0.701 0.638,-1.051c0.3,-0.351 0.663,-0.663 1.088,-0.939c0.425,-0.275 0.926,-0.5 1.501,-0.675c0.576,-0.175 1.201,-0.263 1.877,-0.263c1.426,0 2.577,0.219 3.453,0.657c0.876,0.438 1.557,1.045 2.045,1.82c0.488,0.776 0.82,1.689 0.995,2.74c0.175,1.051 0.263,2.189 0.263,3.415l0,10.059l-5.63,0l0,-8.933c0,-0.525 -0.019,-1.069 -0.056,-1.632c-0.038,-0.563 -0.151,-1.083 -0.338,-1.558c-0.188,-0.475 -0.476,-0.863 -0.863,-1.163c-0.388,-0.301 -0.945,-0.451 -1.671,-0.451c-0.725,0 -1.313,0.132 -1.764,0.394c-0.45,0.263 -0.794,0.613 -1.032,1.051c-0.237,0.438 -0.394,0.932 -0.469,1.483c-0.075,0.55 -0.112,1.126 -0.112,1.726l0,9.083Zm-121.14,0l-5.855,0l0,-26.572l8.858,0l6.117,17.339l0.076,0l6.155,-17.339l8.82,0l0,26.572l-5.855,0l0,-20.38l-0.075,0l-6.981,20.38l-4.466,0l-6.719,-20.38l-0.075,0l0,20.38Zm36.28,-10.823c-0.228,-0.332 -0.55,-0.607 -0.965,-0.825c-0.415,-0.218 -0.861,-0.327 -1.339,-0.327c-1.183,0 -2.101,0.353 -2.755,1.059c-0.654,0.706 -0.981,1.629 -0.981,2.771c0,1.142 0.327,2.065 0.981,2.771c0.654,0.706 1.572,1.058 2.755,1.058c0.519,0 0.965,-0.114 1.339,-0.342c0.374,-0.228 0.695,-0.498 0.965,-0.81l3.083,3.239c-0.727,0.747 -1.583,1.271 -2.569,1.572c-0.986,0.301 -1.925,0.451 -2.818,0.451c-1.162,0 -2.257,-0.187 -3.284,-0.56c-1.028,-0.374 -1.92,-0.908 -2.678,-1.604c-0.758,-0.695 -1.354,-1.53 -1.79,-2.506c-0.436,-0.975 -0.654,-2.065 -0.654,-3.269c0,-1.204 0.218,-2.294 0.654,-3.269c0.436,-0.976 1.032,-1.811 1.79,-2.507c0.758,-0.695 1.65,-1.229 2.678,-1.603c1.027,-0.374 2.122,-0.56 3.284,-0.56c0.893,0 1.832,0.15 2.818,0.451c0.986,0.301 1.842,0.825 2.569,1.572l-3.083,3.238Zm57.499,2.829l-1.388,0c-0.426,0 -0.958,0.018 -1.595,0.056c-0.638,0.037 -1.252,0.144 -1.839,0.319c-0.588,0.175 -1.089,0.438 -1.502,0.788c-0.413,0.35 -0.619,0.838 -0.619,1.464c0,0.675 0.288,1.176 0.863,1.501c0.576,0.325 1.176,0.488 1.802,0.488c0.55,0 1.082,-0.075 1.595,-0.225c0.513,-0.15 0.969,-0.363 1.37,-0.638c0.4,-0.276 0.719,-0.626 0.957,-1.051c0.237,-0.426 0.356,-0.926 0.356,-1.501l0,-1.201Zm-118.089,-0.734c0,1.376 0.394,2.489 1.182,3.34c0.788,0.851 1.895,1.276 3.322,1.276c1.426,0 2.533,-0.425 3.321,-1.276c0.788,-0.851 1.182,-1.964 1.182,-3.34c0,-1.376 -0.394,-2.49 -1.182,-3.341c-0.788,-0.85 -1.895,-1.276 -3.321,-1.276c-1.427,0 -2.534,0.426 -3.322,1.276c-0.788,0.851 -1.182,1.965 -1.182,3.341Zm-14.348,-14.863c0,-0.9 0.319,-1.67 0.957,-2.308c0.638,-0.638 1.407,-0.957 2.308,-0.957c0.901,0 1.67,0.319 2.308,0.957c0.638,0.638 0.957,1.408 0.957,2.308c0,0.901 -0.319,1.67 -0.957,2.308c-0.638,0.638 -1.407,0.957 -2.308,0.957c-0.901,0 -1.67,-0.319 -2.308,-0.957c-0.638,-0.638 -0.957,-1.407 -0.957,-2.308Zm168.936,-1.709l-0.677,0l0,-3.074l1.025,0l0.707,2.006l0.009,0l0.712,-2.006l1.021,0l0,3.074l-0.678,0l0,-2.358l-0.008,0l-0.808,2.358l-0.517,0l-0.777,-2.358l-0.009,0l0,2.358Zm-0.89,-2.475l-0.877,0l0,2.475l-0.677,0l0,-2.475l-0.878,0l0,-0.599l2.432,0l0,0.599Z" style="fill:#fff;"/><g><path d="M203.933,6.454l6.238,0l0,1.869l-4.215,0l0,1.714l3.982,0l0,1.869l-3.982,0l0,1.87l4.448,0l0,1.869l-6.471,0l0,-9.191Z" style="fill:#fff;fill-rule:nonzero;"/><path d="M213.452,6.454l3.035,0c0.735,0 1.433,0.082 2.094,0.247c0.662,0.164 1.239,0.43 1.732,0.798c0.492,0.368 0.884,0.846 1.173,1.434c0.29,0.589 0.435,1.303 0.435,2.142c0,0.745 -0.141,1.4 -0.422,1.967c-0.281,0.567 -0.659,1.043 -1.135,1.428c-0.475,0.385 -1.024,0.677 -1.647,0.876c-0.622,0.199 -1.275,0.299 -1.958,0.299l-3.307,0l0,-9.191Zm2.023,7.322l1.051,0c0.467,0 0.901,-0.048 1.303,-0.143c0.402,-0.095 0.75,-0.253 1.044,-0.474c0.294,-0.221 0.525,-0.511 0.694,-0.87c0.168,-0.359 0.253,-0.798 0.253,-1.317c0,-0.45 -0.085,-0.842 -0.253,-1.175c-0.169,-0.333 -0.396,-0.608 -0.681,-0.825c-0.285,-0.216 -0.62,-0.378 -1.005,-0.486c-0.385,-0.109 -0.789,-0.163 -1.213,-0.163l-1.193,0l0,5.453Z" style="fill:#fff;fill-rule:nonzero;"/><path d="M231.892,12.101c0,0.545 -0.082,1.047 -0.246,1.506c-0.164,0.458 -0.409,0.857 -0.733,1.194c-0.324,0.338 -0.728,0.602 -1.212,0.792c-0.485,0.19 -1.042,0.286 -1.673,0.286c-0.64,0 -1.202,-0.096 -1.686,-0.286c-0.484,-0.19 -0.889,-0.454 -1.213,-0.792c-0.324,-0.337 -0.568,-0.736 -0.733,-1.194c-0.164,-0.459 -0.246,-0.961 -0.246,-1.506l0,-5.647l2.023,0l0,5.569c0,0.286 0.046,0.55 0.136,0.792c0.091,0.242 0.219,0.452 0.383,0.63c0.164,0.177 0.361,0.315 0.59,0.415c0.229,0.099 0.478,0.149 0.746,0.149c0.268,0 0.514,-0.05 0.739,-0.149c0.225,-0.1 0.419,-0.238 0.583,-0.415c0.165,-0.178 0.292,-0.388 0.383,-0.63c0.091,-0.242 0.136,-0.506 0.136,-0.792l0,-5.569l2.023,0l0,5.647Z" style="fill:#fff;fill-rule:nonzero;"/><path d="M240.782,8.843c-0.198,-0.243 -0.443,-0.429 -0.732,-0.559c-0.29,-0.129 -0.625,-0.194 -1.005,-0.194c-0.381,0 -0.733,0.073 -1.057,0.22c-0.325,0.147 -0.606,0.353 -0.843,0.617c-0.238,0.264 -0.424,0.578 -0.558,0.941c-0.134,0.364 -0.201,0.757 -0.201,1.181c0,0.433 0.067,0.829 0.201,1.188c0.134,0.359 0.318,0.671 0.551,0.935c0.234,0.264 0.508,0.469 0.824,0.617c0.315,0.147 0.655,0.22 1.018,0.22c0.415,0 0.782,-0.086 1.102,-0.259c0.32,-0.173 0.584,-0.416 0.791,-0.727l1.686,1.259c-0.389,0.545 -0.882,0.947 -1.478,1.207c-0.597,0.26 -1.211,0.39 -1.842,0.39c-0.717,0 -1.379,-0.113 -1.984,-0.338c-0.605,-0.225 -1.128,-0.547 -1.569,-0.967c-0.441,-0.42 -0.785,-0.928 -1.031,-1.525c-0.247,-0.598 -0.37,-1.264 -0.37,-2c0,-0.735 0.123,-1.402 0.37,-1.999c0.246,-0.597 0.59,-1.105 1.031,-1.525c0.441,-0.42 0.964,-0.742 1.569,-0.967c0.605,-0.225 1.267,-0.338 1.984,-0.338c0.259,0 0.53,0.024 0.811,0.072c0.281,0.047 0.557,0.123 0.83,0.227c0.272,0.104 0.534,0.242 0.784,0.415c0.251,0.173 0.476,0.385 0.675,0.636l-1.557,1.273Z" style="fill:#fff;fill-rule:nonzero;"/><path d="M248.11,6.454l1.673,0l3.994,9.191l-2.282,0l-0.792,-1.947l-3.566,0l-0.765,1.947l-2.231,0l3.969,-9.191Zm0.778,2.674l-1.115,2.856l2.243,0l-1.128,-2.856Z" style="fill:#fff;fill-rule:nonzero;"/><path d="M257.933,8.245l-2.619,0l0,-1.791l7.262,0l0,1.791l-2.62,0l0,7.4l-2.023,0l0,-7.4Z" style="fill:#fff;fill-rule:nonzero;"/><rect x="264.92" y="6.454" width="2.023" height="9.191" style="fill:#fff;fill-rule:nonzero;"/><path d="M269.555,11.049c0,-0.735 0.123,-1.402 0.369,-1.999c0.247,-0.597 0.59,-1.105 1.031,-1.525c0.441,-0.42 0.964,-0.742 1.569,-0.967c0.606,-0.225 1.267,-0.338 1.985,-0.338c0.717,0 1.379,0.113 1.984,0.338c0.605,0.225 1.128,0.547 1.569,0.967c0.441,0.42 0.785,0.928 1.031,1.525c0.246,0.597 0.37,1.264 0.37,1.999c0,0.736 -0.124,1.402 -0.37,2c-0.246,0.597 -0.59,1.105 -1.031,1.525c-0.441,0.42 -0.964,0.742 -1.569,0.967c-0.605,0.225 -1.267,0.338 -1.984,0.338c-0.718,0 -1.379,-0.113 -1.985,-0.338c-0.605,-0.225 -1.128,-0.547 -1.569,-0.967c-0.441,-0.42 -0.784,-0.928 -1.031,-1.525c-0.246,-0.598 -0.369,-1.264 -0.369,-2Zm2.101,0c0,0.433 0.067,0.829 0.201,1.188c0.134,0.359 0.326,0.671 0.577,0.935c0.25,0.264 0.551,0.469 0.901,0.617c0.35,0.147 0.741,0.22 1.174,0.22c0.432,0 0.823,-0.073 1.173,-0.22c0.35,-0.148 0.651,-0.353 0.902,-0.617c0.25,-0.264 0.443,-0.576 0.577,-0.935c0.134,-0.359 0.201,-0.755 0.201,-1.188c0,-0.424 -0.067,-0.817 -0.201,-1.181c-0.134,-0.363 -0.327,-0.677 -0.577,-0.941c-0.251,-0.264 -0.552,-0.47 -0.902,-0.617c-0.35,-0.147 -0.741,-0.22 -1.173,-0.22c-0.433,0 -0.824,0.073 -1.174,0.22c-0.35,0.147 -0.651,0.353 -0.901,0.617c-0.251,0.264 -0.443,0.578 -0.577,0.941c-0.134,0.364 -0.201,0.757 -0.201,1.181Z" style="fill:#fff;fill-rule:nonzero;"/><path d="M282.019,6.454l2.749,0l3.904,6.387l0.026,0l0,-6.387l2.023,0l0,9.191l-2.646,0l-4.007,-6.543l-0.026,0l0,6.543l-2.023,0l0,-9.191Z" style="fill:#fff;fill-rule:nonzero;"/><path d="M300.9,8.44c-0.259,-0.337 -0.588,-0.597 -0.986,-0.779c-0.397,-0.181 -0.808,-0.272 -1.232,-0.272c-0.519,0 -0.988,0.097 -1.407,0.292c-0.419,0.194 -0.778,0.461 -1.076,0.798c-0.299,0.338 -0.53,0.734 -0.694,1.188c-0.164,0.454 -0.246,0.941 -0.246,1.46c0,0.485 0.077,0.944 0.233,1.376c0.156,0.433 0.38,0.814 0.674,1.143c0.294,0.329 0.653,0.588 1.077,0.779c0.423,0.19 0.903,0.285 1.439,0.285c0.528,0 0.99,-0.108 1.388,-0.324c0.398,-0.217 0.735,-0.52 1.011,-0.909l1.051,0.792c-0.069,0.095 -0.19,0.231 -0.363,0.409c-0.173,0.177 -0.402,0.355 -0.688,0.532c-0.285,0.177 -0.629,0.333 -1.031,0.467c-0.402,0.134 -0.866,0.202 -1.394,0.202c-0.726,0 -1.381,-0.139 -1.964,-0.416c-0.584,-0.277 -1.081,-0.64 -1.492,-1.09c-0.411,-0.45 -0.724,-0.959 -0.94,-1.526c-0.216,-0.566 -0.324,-1.14 -0.324,-1.72c0,-0.709 0.116,-1.365 0.35,-1.966c0.233,-0.602 0.56,-1.121 0.979,-1.558c0.419,-0.437 0.923,-0.777 1.511,-1.019c0.588,-0.242 1.236,-0.364 1.945,-0.364c0.605,0 1.2,0.117 1.783,0.351c0.584,0.234 1.062,0.593 1.433,1.077l-1.037,0.792Z" style="fill:#fff;fill-rule:nonzero;"/><path d="M305.308,6.454l5.927,0l0,1.168l-4.682,0l0,2.739l4.357,0l0,1.169l-4.357,0l0,2.947l4.915,0l0,1.168l-6.16,0l0,-9.191Z" style="fill:#fff;fill-rule:nonzero;"/><path d="M314.495,6.454l1.634,0l5.058,7.555l0.026,0l0,-7.555l1.245,0l0,9.191l-1.582,0l-5.11,-7.555l-0.026,0l0,7.555l-1.245,0l0,-9.191Z" style="fill:#fff;fill-rule:nonzero;"/><path d="M328.164,7.622l-2.957,0l0,-1.168l7.159,0l0,1.168l-2.957,0l0,8.023l-1.245,0l0,-8.023Z" style="fill:#fff;fill-rule:nonzero;"/><path d="M335.442,6.454l3.229,0c0.588,0 1.072,0.08 1.453,0.24c0.38,0.16 0.68,0.364 0.901,0.61c0.22,0.247 0.374,0.524 0.46,0.831c0.087,0.307 0.13,0.604 0.13,0.889c0,0.295 -0.052,0.578 -0.156,0.851c-0.103,0.272 -0.253,0.519 -0.447,0.74c-0.195,0.22 -0.432,0.406 -0.713,0.558c-0.281,0.151 -0.595,0.244 -0.941,0.279l2.607,4.193l-1.556,0l-2.334,-4.05l-1.388,0l0,4.05l-1.245,0l0,-9.191Zm1.245,4.05l1.634,0c0.242,0 0.482,-0.019 0.72,-0.058c0.237,-0.039 0.449,-0.111 0.635,-0.214c0.186,-0.104 0.335,-0.254 0.448,-0.448c0.112,-0.195 0.168,-0.448 0.168,-0.76c0,-0.311 -0.056,-0.564 -0.168,-0.759c-0.113,-0.195 -0.262,-0.344 -0.448,-0.448c-0.186,-0.104 -0.398,-0.175 -0.635,-0.214c-0.238,-0.039 -0.478,-0.059 -0.72,-0.059l-1.634,0l0,2.96Z" style="fill:#fff;fill-rule:nonzero;"/><path d="M345.037,6.454l5.927,0l0,1.168l-4.682,0l0,2.739l4.358,0l0,1.169l-4.358,0l0,2.947l4.916,0l0,1.168l-6.161,0l0,-9.191Z" style="fill:#fff;fill-rule:nonzero;"/><path d="M354.742,13.724c0.225,0.337 0.512,0.586 0.862,0.746c0.35,0.16 0.711,0.24 1.083,0.24c0.208,0 0.419,-0.032 0.636,-0.097c0.216,-0.065 0.412,-0.162 0.59,-0.292c0.177,-0.13 0.322,-0.29 0.434,-0.481c0.113,-0.19 0.169,-0.411 0.169,-0.662c0,-0.354 -0.113,-0.625 -0.337,-0.811c-0.225,-0.186 -0.504,-0.342 -0.837,-0.467c-0.333,-0.126 -0.696,-0.247 -1.089,-0.364c-0.394,-0.117 -0.757,-0.279 -1.09,-0.487c-0.333,-0.207 -0.611,-0.486 -0.836,-0.837c-0.225,-0.35 -0.337,-0.824 -0.337,-1.421c0,-0.269 0.058,-0.554 0.175,-0.857c0.116,-0.303 0.3,-0.58 0.551,-0.831c0.251,-0.251 0.573,-0.461 0.966,-0.629c0.393,-0.169 0.867,-0.254 1.42,-0.254c0.502,0 0.981,0.07 1.44,0.208c0.458,0.139 0.86,0.42 1.206,0.844l-1.012,0.922c-0.155,-0.243 -0.376,-0.437 -0.661,-0.585c-0.285,-0.147 -0.61,-0.22 -0.973,-0.22c-0.346,0 -0.633,0.045 -0.862,0.136c-0.229,0.091 -0.413,0.208 -0.551,0.35c-0.139,0.143 -0.236,0.297 -0.292,0.461c-0.056,0.165 -0.085,0.316 -0.085,0.455c0,0.389 0.113,0.688 0.338,0.895c0.224,0.208 0.503,0.377 0.836,0.507c0.333,0.129 0.696,0.246 1.09,0.35c0.393,0.104 0.756,0.249 1.089,0.435c0.333,0.186 0.612,0.437 0.836,0.753c0.225,0.316 0.338,0.751 0.338,1.305c0,0.441 -0.085,0.839 -0.253,1.194c-0.169,0.355 -0.396,0.653 -0.681,0.896c-0.286,0.242 -0.623,0.428 -1.012,0.558c-0.389,0.13 -0.804,0.195 -1.245,0.195c-0.588,0 -1.145,-0.104 -1.673,-0.312c-0.527,-0.208 -0.946,-0.528 -1.258,-0.961l1.025,-0.882Z" style="fill:#fff;fill-rule:nonzero;"/></g></g><defs><linearGradient id="_Linear1" x1="0" y1="0" x2="1" y2="0" gradientUnits="userSpaceOnUse" gradientTransform="matrix(-31.748,0,0,38.9764,266.588,25.0174)"><stop offset="0%" style="stop-color:#f07;stop-opacity:1"/><stop offset="100%" style="stop-color:#2f3584;stop-opacity:1"/></linearGradient><linearGradient id="_Linear2" x1="0" y1="0" x2="1" y2="0" gradientUnits="userSpaceOnUse" gradientTransform="matrix(-31.748,0,0,38.9764,328.931,25.0174)"><stop offset="0%" style="stop-color:#ffff6d;stop-opacity:1"/><stop offset="100%" style="stop-color:#df1a0f;stop-opacity:1"/></linearGradient><linearGradient id="_Linear3" x1="0" y1="0" x2="1" y2="0" gradientUnits="userSpaceOnUse" gradientTransform="matrix(31.2201,0,0,38.9764,203.933,25.0174)"><stop offset="0%" style="stop-color:#2693cd;stop-opacity:1"/><stop offset="100%" style="stop-color:#2f3584;stop-opacity:1"/></linearGradient><linearGradient id="_Linear4" x1="0" y1="0" x2="1" y2="0" gradientUnits="userSpaceOnUse" gradientTransform="matrix(31.2201,0,0,38.9764,266.276,25.0174)"><stop offset="0%" style="stop-color:#f07;stop-opacity:1"/><stop offset="100%" style="stop-color:#df1a0f;stop-opacity:1"/></linearGradient><linearGradient id="_Linear5" x1="0" y1="0" x2="1" y2="0" gradientUnits="userSpaceOnUse" gradientTransform="matrix(31.2201,0,0,38.9764,328.619,25.0174)"><stop offset="0%" style="stop-color:#ffff6d;stop-opacity:1"/><stop offset="100%" style="stop-color:#009800;stop-opacity:1"/></linearGradient></defs></svg>