<?xml version="1.0" encoding="UTF-8" standalone="no"?><!DOCTYPE svg PUBLIC "-//W3C//DTD SVG 1.1//EN" "http://www.w3.org/Graphics/SVG/1.1/DTD/svg11.dtd"><svg width="100%" height="100%" viewBox="0 0 328 344" version="1.1" xmlns="http://www.w3.org/2000/svg" xmlns:xlink="http://www.w3.org/1999/xlink" xml:space="preserve" style="fill-rule:evenodd;clip-rule:evenodd;stroke-linejoin:round;stroke-miterlimit:1.41421;"><path d="M265.443,343.265l-203.222,0c-9.395,0 -17.429,-6.756 -19.041,-16.011l-25.843,-148.391l292.989,0l-25.842,148.391c-1.612,9.255 -9.646,16.011 -19.041,16.011" style="fill:#424242;fill-rule:nonzero;"/><path d="M18.833,187.452l289.997,0l1.496,-8.589l-292.989,0l1.496,8.589Z" style="fill:#212121;fill-rule:nonzero;"/><path d="M318.12,131.078l-308.577,0c-5.27,0 -9.543,4.273 -9.543,9.544l0,29.651c0,5.271 4.273,9.544 9.543,9.544l308.577,0c5.271,0 9.544,-4.273 9.544,-9.544l0,-29.651c0,-5.271 -4.273,-9.544 -9.544,-9.544" style="fill:#424242;fill-rule:nonzero;"/><path d="M57.297,165.946c-2.563,0 -5.133,-0.933 -7.156,-2.819c-4.241,-3.954 -4.474,-10.597 -0.52,-14.838l90.626,-97.208c3.953,-4.241 10.596,-4.474 14.837,-0.52c4.241,3.954 4.474,10.597 0.52,14.837l-90.626,97.209c-2.068,2.217 -4.871,3.339 -7.681,3.339" style="fill:#424242;fill-rule:nonzero;"/><path d="M148.011,45.833l0.075,0l0.074,0.002l0.075,0.001l0.074,0.002l0.074,0.003l0.075,0.003l0.074,0.003l0.074,0.004l0.075,0.004l0.074,0.005l0.074,0.005l0.074,0.006l0.074,0.006l0.075,0.006l0.074,0.007l0.074,0.008l0.074,0.007l0.074,0.009l0.074,0.008l0.074,0.01l0.074,0.009l0.074,0.01l0.074,0.011l0.073,0.011l0.074,0.011l0.074,0.012l0.074,0.012l0.074,0.013l0.073,0.013l0.073,0.014l0.074,0.014l0.073,0.014l0.073,0.015l0.074,0.016l0.073,0.016l0.073,0.016l0.073,0.017l0.073,0.017l0.073,0.017l0.073,0.019l0.073,0.018l0.072,0.019l0.072,0.019l0.073,0.02l0.072,0.021l0.073,0.02l0.072,0.022l0.072,0.021l0.072,0.023l0.072,0.022l0.072,0.023l0.071,0.024l0.071,0.023l0.072,0.025l0.072,0.025l0.07,0.025l0.072,0.026l0.071,0.026l0.07,0.026l0.071,0.028l0.071,0.027l0.07,0.028l0.071,0.029l0.07,0.028l0.07,0.03l0.07,0.029l0.069,0.031l0.07,0.03l0.07,0.032l0.069,0.031l0.069,0.032l0.069,0.032l0.069,0.033l0.069,0.034l0.068,0.034l0.069,0.034l0.068,0.035l0.068,0.035l0.068,0.035l0.068,0.036l0.067,0.037l0.068,0.037l0.067,0.037l0.067,0.038l0.067,0.039l0.067,0.038l0.066,0.04l0.066,0.039l0.066,0.04l0.067,0.041l0.065,0.041l0.066,0.041l0.065,0.042l0.065,0.043l0.065,0.042l0.065,0.044l0.064,0.043l0.065,0.045l0.063,0.044l0.064,0.045l0.064,0.046l0.063,0.046l0.063,0.046l0.063,0.047l0.063,0.047l0.062,0.048l0.063,0.048l0.062,0.048l0.062,0.05l0.061,0.049l0.061,0.05l0.061,0.05l0.061,0.051l0.06,0.051l0.061,0.052l0.06,0.052l0.059,0.053l0.06,0.053l0.059,0.054l0.059,0.053l0.059,0.055l0.058,0.054l0.058,0.055l0.057,0.056l0.057,0.055l0.057,0.056l0.057,0.057l0.055,0.056l0.056,0.057l0.054,0.057l0.055,0.057l0.054,0.058l0.054,0.058l0.053,0.058l0.053,0.058l0.052,0.059l0.052,0.059l0.052,0.059l0.051,0.059l0.051,0.06l0.05,0.061l0.05,0.06l0.049,0.06l0.049,0.061l0.049,0.061l0.048,0.061l0.047,0.062l0.048,0.062l0.046,0.061l0.047,0.063l0.046,0.062l0.045,0.063l0.046,0.063l0.044,0.063l0.044,0.063l0.044,0.064l0.043,0.064l0.043,0.064l0.043,0.064l0.042,0.064l0.041,0.065l0.041,0.065l0.041,0.065l0.04,0.065l0.04,0.066l0.04,0.065l0.039,0.066l0.038,0.066l0.038,0.066l0.038,0.067l0.037,0.066l0.037,0.067l0.036,0.067l0.036,0.067l0.036,0.067l0.035,0.068l0.034,0.068l0.034,0.068l0.034,0.068l0.033,0.067l0.033,0.069l0.033,0.069l0.032,0.068l0.031,0.069l0.031,0.069l0.031,0.069l0.03,0.069l0.03,0.07l0.029,0.07l0.029,0.069l0.028,0.07l0.029,0.07l0.027,0.07l0.027,0.07l0.027,0.071l0.026,0.07l0.026,0.071l0.025,0.071l0.025,0.07l0.025,0.071l0.024,0.071l0.023,0.072l0.023,0.071l0.023,0.071l0.022,0.072l0.022,0.072l0.022,0.072l0.021,0.072l0.02,0.071l0.02,0.073l0.02,0.072l0.019,0.071l0.019,0.073l0.018,0.073l0.018,0.072l0.017,0.073l0.017,0.073l0.017,0.072l0.016,0.073l0.015,0.073l0.016,0.073l0.014,0.073l0.015,0.073l0.014,0.074l0.013,0.073l0.013,0.074l0.012,0.073l0.013,0.073l0.011,0.074l0.012,0.074l0.01,0.073l0.011,0.074l0.01,0.074l0.009,0.074l0.009,0.073l0.009,0.074l0.008,0.074l0.007,0.074l0.008,0.074l0.006,0.074l0.007,0.074l0.006,0.074l0.005,0.075l0.005,0.074l0.005,0.074l0.004,0.074l0.004,0.074l0.003,0.075l0.003,0.074l0.002,0.074l0.002,0.075l0.002,0.074l0.001,0.074l0,0.075l0.001,0.074l-0.001,0.074l0,0.075l-0.002,0.074l-0.001,0.075l-0.002,0.074l-0.003,0.074l-0.003,0.075l-0.003,0.074l-0.004,0.074l-0.004,0.075l-0.005,0.073l-0.005,0.075l-0.006,0.074l-0.006,0.075l-0.006,0.074l-0.007,0.073l-0.008,0.075l-0.007,0.074l-0.009,0.074l-0.008,0.074l-0.009,0.074l-0.01,0.074l-0.01,0.074l-0.011,0.073l-0.011,0.074l-0.011,0.074l-0.012,0.074l-0.012,0.074l-0.013,0.074l-0.013,0.073l-0.014,0.073l-0.014,0.074l-0.014,0.073l-0.015,0.073l-0.016,0.074l-0.016,0.073l-0.016,0.073l-0.017,0.073l-0.017,0.073l-0.017,0.073l-0.019,0.073l-0.018,0.072l-0.019,0.073l-0.02,0.073l-0.019,0.072l-0.021,0.072l-0.02,0.072l-0.022,0.072l-0.021,0.073l-0.023,0.072l-0.022,0.071l-0.023,0.072l-0.024,0.072l-0.024,0.072l-0.024,0.071l-0.025,0.071l-0.025,0.071l-0.026,0.072l-0.026,0.071l-0.027,0.07l-0.027,0.071l-0.027,0.071l-0.028,0.07l-0.028,0.07l-0.029,0.07l-0.03,0.071l-0.03,0.07l-0.03,0.069l-0.03,0.07l-0.032,0.07l-0.031,0.069l-0.032,0.069l-0.033,0.069l-0.032,0.069l-0.034,0.069l-0.034,0.068l-0.034,0.069l-0.035,0.068l-0.035,0.068l-0.035,0.068l-0.037,0.068l-0.036,0.067l-0.037,0.068l-0.037,0.067l-0.038,0.067l-0.039,0.067l-0.038,0.066l-0.04,0.067l-0.039,0.066l-0.04,0.066l-0.041,0.066l-0.041,0.066l-0.041,0.065l-0.042,0.066l-0.043,0.065l-0.043,0.065l-0.043,0.064l-0.043,0.065l-0.045,0.064l-0.044,0.064l-0.045,0.064l-0.046,0.063l-0.046,0.064l-0.046,0.063l-0.047,0.063l-0.047,0.062l-0.048,0.063l-0.048,0.062l-0.049,0.062l-0.049,0.062l-0.049,0.061l-0.05,0.062l-0.051,0.061l-0.05,0.061l-0.051,0.06l-0.052,0.06l-0.053,0.061l-0.052,0.059l-0.053,0.059l-0.053,0.059l-0.055,0.06l-0.052,0.056l-90.63,97.214l-0.055,0.058l-0.058,0.061l-0.058,0.06l-0.058,0.059l-0.059,0.06l-0.059,0.059l-0.059,0.058l-0.059,0.057l-0.06,0.057l-0.06,0.057l-0.06,0.057l-0.061,0.056l-0.061,0.055l-0.062,0.055l-0.061,0.055l-0.062,0.053l-0.062,0.054l-0.063,0.053l-0.062,0.053l-0.063,0.052l-0.063,0.052l-0.064,0.051l-0.064,0.051l-0.064,0.05l-0.064,0.049l-0.065,0.05l-0.065,0.049l-0.065,0.048l-0.065,0.048l-0.066,0.047l-0.066,0.047l-0.066,0.047l-0.066,0.046l-0.067,0.045l-0.067,0.045l-0.067,0.045l-0.067,0.044l-0.068,0.044l-0.067,0.043l-0.068,0.042l-0.069,0.043l-0.068,0.041l-0.069,0.042l-0.069,0.04l-0.069,0.04l-0.069,0.04l-0.069,0.04l-0.07,0.038l-0.07,0.039l-0.07,0.038l-0.07,0.037l-0.071,0.037l-0.071,0.036l-0.071,0.037l-0.071,0.035l-0.07,0.035l-0.072,0.035l-0.072,0.033l-0.071,0.034l-0.072,0.033l-0.072,0.033l-0.073,0.032l-0.072,0.031l-0.073,0.032l-0.072,0.03l-0.073,0.031l-0.073,0.029l-0.073,0.029l-0.074,0.029l-0.073,0.029l-0.074,0.027l-0.074,0.028l-0.073,0.026l-0.075,0.027l-0.074,0.026l-0.074,0.025l-0.075,0.025l-0.074,0.024l-0.075,0.024l-0.075,0.024l-0.075,0.023l-0.074,0.022l-0.076,0.022l-0.075,0.022l-0.075,0.021l-0.076,0.02l-0.075,0.02l-0.076,0.02l-0.076,0.019l-0.076,0.019l-0.076,0.018l-0.076,0.017l-0.076,0.017l-0.076,0.017l-0.077,0.017l-0.076,0.015l-0.076,0.015l-0.077,0.015l-0.076,0.014l-0.077,0.014l-0.077,0.014l-0.077,0.012l-0.077,0.013l-0.077,0.012l-0.077,0.011l-0.077,0.011l-0.077,0.01l-0.077,0.01l-0.077,0.01l-0.078,0.009l-0.077,0.008l-0.077,0.008l-0.077,0.008l-0.078,0.007l-0.078,0.006l-0.077,0.006l-0.078,0.006l-0.078,0.005l-0.077,0.005l-0.078,0.004l-0.077,0.003l-0.078,0.003l-0.078,0.003l-0.078,0.002l-0.077,0.002l-0.078,0.001l-0.078,0.001l-0.077,0l-0.071,0l-0.072,-0.001l-0.07,-0.001l-0.071,-0.001l-0.071,-0.002l-0.071,-0.002l-0.071,-0.003l-0.071,-0.003l-0.071,-0.003l-0.071,-0.004l-0.07,-0.004l-0.071,-0.005l-0.072,-0.005l-0.07,-0.005l-0.071,-0.006l-0.071,-0.007l-0.07,-0.006l-0.071,-0.007l-0.071,-0.008l-0.071,-0.008l-0.07,-0.008l-0.071,-0.009l-0.07,-0.009l-0.071,-0.009l-0.07,-0.01l-0.071,-0.01l-0.07,-0.011l-0.07,-0.011l-0.071,-0.012l-0.07,-0.012l-0.07,-0.012l-0.07,-0.013l-0.07,-0.013l-0.07,-0.014l-0.07,-0.014l-0.071,-0.014l-0.069,-0.015l-0.07,-0.015l-0.07,-0.016l-0.069,-0.015l-0.07,-0.017l-0.069,-0.017l-0.07,-0.017l-0.069,-0.018l-0.07,-0.018l-0.069,-0.018l-0.069,-0.019l-0.069,-0.019l-0.069,-0.02l-0.069,-0.02l-0.069,-0.02l-0.069,-0.021l-0.068,-0.022l-0.068,-0.021l-0.069,-0.023l-0.068,-0.022l-0.068,-0.023l-0.069,-0.023l-0.067,-0.024l-0.068,-0.024l-0.068,-0.025l-0.068,-0.025l-0.067,-0.025l-0.068,-0.026l-0.068,-0.026l-0.067,-0.027l-0.067,-0.027l-0.067,-0.027l-0.067,-0.028l-0.066,-0.028l-0.067,-0.029l-0.066,-0.029l-0.067,-0.03l-0.066,-0.03l-0.066,-0.03l-0.066,-0.031l-0.066,-0.031l-0.066,-0.031l-0.065,-0.032l-0.066,-0.033l-0.065,-0.032l-0.065,-0.034l-0.065,-0.033l-0.065,-0.034l-0.064,-0.034l-0.065,-0.035l-0.064,-0.036l-0.064,-0.035l-0.064,-0.036l-0.064,-0.037l-0.063,-0.036l-0.064,-0.038l-0.064,-0.037l-0.063,-0.039l-0.063,-0.038l-0.062,-0.039l-0.063,-0.039l-0.063,-0.04l-0.062,-0.04l-0.062,-0.04l-0.062,-0.042l-0.062,-0.041l-0.061,-0.042l-0.061,-0.042l-0.061,-0.042l-0.061,-0.043l-0.061,-0.044l-0.06,-0.044l-0.061,-0.044l-0.059,-0.044l-0.06,-0.045l-0.06,-0.046l-0.06,-0.046l-0.059,-0.046l-0.059,-0.047l-0.059,-0.047l-0.058,-0.047l-0.059,-0.048l-0.058,-0.048l-0.057,-0.049l-0.058,-0.049l-0.058,-0.049l-0.057,-0.05l-0.057,-0.05l-0.056,-0.051l-0.057,-0.051l-0.056,-0.052l-0.056,-0.052l-0.058,-0.054l-0.058,-0.055l-0.058,-0.055l-0.057,-0.056l-0.057,-0.056l-0.056,-0.056l-0.055,-0.057l-0.056,-0.056l-0.055,-0.058l-0.054,-0.057l-0.054,-0.057l-0.054,-0.058l-0.054,-0.059l-0.052,-0.058l-0.053,-0.059l-0.052,-0.059l-0.051,-0.059l-0.051,-0.059l-0.051,-0.06l-0.05,-0.061l-0.05,-0.059l-0.049,-0.061l-0.049,-0.061l-0.049,-0.061l-0.048,-0.061l-0.048,-0.062l-0.047,-0.061l-0.047,-0.062l-0.046,-0.063l-0.046,-0.062l-0.045,-0.063l-0.046,-0.062l-0.044,-0.064l-0.044,-0.063l-0.044,-0.064l-0.043,-0.063l-0.043,-0.064l-0.043,-0.065l-0.042,-0.064l-0.042,-0.065l-0.041,-0.064l-0.04,-0.065l-0.041,-0.066l-0.04,-0.065l-0.039,-0.066l-0.039,-0.066l-0.039,-0.066l-0.037,-0.066l-0.038,-0.066l-0.037,-0.067l-0.037,-0.067l-0.037,-0.067l-0.035,-0.067l-0.036,-0.067l-0.035,-0.068l-0.035,-0.068l-0.034,-0.067l-0.034,-0.069l-0.033,-0.067l-0.033,-0.069l-0.032,-0.069l-0.032,-0.068l-0.031,-0.069l-0.031,-0.069l-0.031,-0.069l-0.03,-0.069l-0.03,-0.069l-0.029,-0.07l-0.029,-0.07l-0.029,-0.07l-0.028,-0.07l-0.027,-0.07l-0.027,-0.07l-0.027,-0.07l-0.026,-0.071l-0.026,-0.071l-0.025,-0.07l-0.025,-0.071l-0.025,-0.071l-0.024,-0.071l-0.023,-0.072l-0.024,-0.071l-0.022,-0.071l-0.023,-0.072l-0.021,-0.072l-0.022,-0.071l-0.021,-0.072l-0.02,-0.072l-0.02,-0.072l-0.02,-0.073l-0.019,-0.071l-0.019,-0.073l-0.018,-0.073l-0.018,-0.072l-0.017,-0.073l-0.017,-0.072l-0.017,-0.073l-0.016,-0.073l-0.016,-0.073l-0.015,-0.073l-0.015,-0.073l-0.014,-0.073l-0.014,-0.073l-0.013,-0.074l-0.013,-0.073l-0.013,-0.074l-0.012,-0.073l-0.011,-0.074l-0.012,-0.073l-0.01,-0.074l-0.011,-0.073l-0.01,-0.074l-0.009,-0.074l-0.009,-0.074l-0.009,-0.074l-0.008,-0.074l-0.008,-0.074l-0.007,-0.074l-0.007,-0.074l-0.006,-0.074l-0.006,-0.074l-0.005,-0.075l-0.006,-0.074l-0.004,-0.074l-0.004,-0.074l-0.004,-0.074l-0.003,-0.075l-0.003,-0.074l-0.002,-0.074l-0.002,-0.075l-0.002,-0.074l-0.001,-0.074l-0.001,-0.075l0,-0.074l0.001,-0.074l0,-0.074l0.001,-0.075l0.002,-0.074l0.002,-0.075l0.003,-0.074l0.003,-0.074l0.003,-0.075l0.004,-0.074l0.004,-0.074l0.005,-0.074l0.005,-0.075l0.005,-0.074l0.007,-0.074l0.006,-0.074l0.007,-0.075l0.007,-0.074l0.008,-0.074l0.008,-0.074l0.009,-0.074l0.009,-0.074l0.01,-0.074l0.01,-0.074l0.01,-0.073l0.011,-0.074l0.012,-0.074l0.012,-0.074l0.012,-0.074l0.013,-0.074l0.013,-0.073l0.013,-0.073l0.015,-0.074l0.014,-0.073l0.015,-0.073l0.015,-0.074l0.016,-0.073l0.017,-0.073l0.016,-0.073l0.018,-0.073l0.017,-0.073l0.018,-0.073l0.019,-0.072l0.019,-0.073l0.019,-0.073l0.02,-0.072l0.02,-0.072l0.021,-0.073l0.021,-0.071l0.022,-0.073l0.022,-0.072l0.023,-0.071l0.023,-0.072l0.023,-0.072l0.024,-0.072l0.025,-0.071l0.024,-0.071l0.026,-0.071l0.026,-0.072l0.026,-0.071l0.026,-0.07l0.027,-0.071l0.028,-0.071l0.028,-0.07l0.028,-0.07l0.029,-0.071l0.03,-0.07l0.029,-0.07l0.03,-0.069l0.031,-0.07l0.031,-0.07l0.032,-0.069l0.032,-0.069l0.032,-0.07l0.033,-0.068l0.033,-0.069l0.034,-0.068l0.035,-0.069l0.034,-0.068l0.036,-0.068l0.035,-0.068l0.036,-0.068l0.037,-0.067l0.037,-0.068l0.037,-0.067l0.038,-0.067l0.038,-0.067l0.039,-0.067l0.039,-0.066l0.04,-0.066l0.04,-0.066l0.041,-0.067l0.041,-0.065l0.041,-0.066l0.042,-0.065l0.042,-0.065l0.043,-0.065l0.043,-0.065l0.044,-0.064l0.044,-0.065l0.045,-0.064l0.045,-0.063l0.045,-0.064l0.046,-0.063l0.047,-0.063l0.047,-0.063l0.047,-0.063l0.047,-0.062l0.049,-0.063l0.048,-0.062l0.049,-0.061l0.05,-0.062l0.05,-0.061l0.05,-0.061l0.051,-0.061l0.051,-0.06l0.052,-0.061l0.052,-0.06l0.053,-0.06l0.052,-0.059l0.054,-0.059l0.054,-0.059l0.052,-0.057l90.63,-97.212l0.053,-0.056l0.055,-0.058l0.055,-0.057l0.056,-0.057l0.056,-0.057l0.056,-0.056l0.056,-0.056l0.057,-0.055l0.057,-0.056l0.058,-0.054l0.057,-0.054l0.058,-0.054l0.058,-0.053l0.059,-0.053l0.059,-0.052l0.058,-0.052l0.06,-0.052l0.059,-0.051l0.06,-0.05l0.06,-0.051l0.06,-0.05l0.061,-0.049l0.06,-0.049l0.061,-0.048l0.062,-0.049l0.061,-0.047l0.062,-0.048l0.062,-0.046l0.062,-0.047l0.062,-0.046l0.063,-0.045l0.063,-0.045l0.063,-0.045l0.064,-0.044l0.063,-0.044l0.064,-0.043l0.064,-0.043l0.064,-0.043l0.065,-0.042l0.064,-0.041l0.065,-0.041l0.065,-0.041l0.065,-0.04l0.066,-0.04l0.065,-0.04l0.066,-0.039l0.066,-0.038l0.067,-0.038l0.066,-0.038l0.066,-0.037l0.068,-0.037l0.066,-0.036l0.067,-0.036l0.068,-0.036l0.067,-0.035l0.068,-0.034l0.068,-0.034l0.068,-0.034l0.068,-0.033l0.068,-0.033l0.069,-0.033l0.068,-0.031l0.069,-0.032l0.069,-0.031l0.069,-0.031l0.069,-0.03l0.07,-0.03l0.069,-0.029l0.07,-0.029l0.07,-0.028l0.07,-0.028l0.07,-0.028l0.07,-0.027l0.071,-0.027l0.07,-0.026l0.071,-0.026l0.071,-0.025l0.071,-0.025l0.071,-0.025l0.07,-0.023l0.072,-0.024l0.071,-0.023l0.071,-0.023l0.072,-0.022l0.072,-0.022l0.071,-0.021l0.072,-0.021l0.073,-0.021l0.071,-0.02l0.073,-0.02l0.072,-0.019l0.073,-0.019l0.072,-0.018l0.072,-0.018l0.073,-0.017l0.073,-0.017l0.072,-0.016l0.073,-0.017l0.073,-0.015l0.073,-0.015l0.073,-0.015l0.073,-0.015l0.074,-0.014l0.073,-0.013l0.073,-0.013l0.074,-0.012l0.074,-0.013l0.073,-0.011l0.074,-0.012l0.073,-0.01l0.074,-0.011l0.074,-0.01l0.074,-0.009l0.073,-0.009l0.074,-0.009l0.074,-0.008l0.074,-0.007l0.074,-0.008l0.074,-0.006l0.074,-0.007l0.074,-0.006l0.074,-0.005l0.075,-0.005l0.074,-0.005l0.074,-0.004l0.075,-0.004l0.074,-0.003l0.074,-0.003l0.074,-0.002l0.075,-0.002l0.074,-0.002l0.074,-0.001l0.075,0l0.074,0l0.074,0Zm-0.129,3.817l-0.051,0l-0.051,0.001l-0.052,0.001l-0.052,0.001l-0.051,0.002l-0.052,0.002l-0.052,0.002l-0.051,0.003l-0.051,0.003l-0.052,0.003l-0.051,0.003l-0.052,0.004l-0.051,0.004l-0.052,0.005l-0.051,0.004l-0.051,0.005l-0.052,0.006l-0.051,0.005l-0.051,0.006l-0.052,0.007l-0.051,0.006l-0.051,0.007l-0.051,0.007l-0.051,0.008l-0.051,0.007l-0.051,0.008l-0.051,0.009l-0.051,0.009l-0.051,0.009l-0.051,0.009l-0.05,0.01l-0.051,0.009l-0.051,0.011l-0.051,0.01l-0.05,0.011l-0.05,0.011l-0.051,0.012l-0.05,0.011l-0.051,0.012l-0.05,0.013l-0.05,0.013l-0.05,0.013l-0.05,0.013l-0.05,0.013l-0.05,0.014l-0.05,0.014l-0.049,0.015l-0.05,0.015l-0.05,0.015l-0.049,0.015l-0.05,0.016l-0.049,0.016l-0.049,0.016l-0.05,0.017l-0.049,0.017l-0.049,0.017l-0.048,0.017l-0.049,0.018l-0.049,0.019l-0.049,0.018l-0.048,0.019l-0.049,0.019l-0.048,0.019l-0.049,0.02l-0.048,0.02l-0.048,0.02l-0.048,0.021l-0.047,0.02l-0.049,0.022l-0.047,0.021l-0.047,0.022l-0.048,0.022l-0.047,0.022l-0.047,0.023l-0.047,0.023l-0.047,0.023l-0.047,0.024l-0.047,0.023l-0.046,0.025l-0.047,0.024l-0.046,0.025l-0.047,0.025l-0.045,0.025l-0.047,0.026l-0.046,0.026l-0.045,0.026l-0.046,0.027l-0.045,0.027l-0.045,0.027l-0.046,0.028l-0.044,0.027l-0.045,0.029l-0.045,0.028l-0.045,0.029l-0.044,0.029l-0.045,0.029l-0.044,0.03l-0.044,0.03l-0.044,0.03l-0.044,0.03l-0.043,0.031l-0.043,0.031l-0.044,0.032l-0.043,0.032l-0.043,0.032l-0.043,0.032l-0.043,0.033l-0.042,0.033l-0.042,0.033l-0.043,0.034l-0.042,0.034l-0.042,0.034l-0.041,0.034l-0.042,0.035l-0.041,0.035l-0.042,0.035l-0.04,0.036l-0.042,0.036l-0.04,0.037l-0.041,0.036l-0.04,0.037l-0.04,0.037l-0.04,0.038l-0.04,0.038l-0.04,0.038l-0.039,0.038l-0.04,0.04l-0.039,0.039l-0.039,0.039l-0.038,0.04l-0.039,0.04l-0.038,0.04l-0.04,0.043l-90.623,97.204l-0.04,0.043l-0.037,0.041l-0.037,0.041l-0.037,0.042l-0.037,0.042l-0.036,0.041l-0.036,0.042l-0.036,0.042l-0.035,0.042l-0.036,0.043l-0.034,0.042l-0.034,0.043l-0.035,0.043l-0.033,0.043l-0.034,0.043l-0.033,0.043l-0.032,0.044l-0.033,0.044l-0.032,0.043l-0.032,0.044l-0.031,0.044l-0.032,0.045l-0.031,0.044l-0.03,0.044l-0.03,0.045l-0.03,0.045l-0.03,0.044l-0.029,0.045l-0.029,0.046l-0.029,0.045l-0.028,0.045l-0.028,0.046l-0.028,0.045l-0.027,0.046l-0.027,0.046l-0.027,0.046l-0.026,0.046l-0.027,0.047l-0.025,0.046l-0.026,0.047l-0.025,0.046l-0.025,0.047l-0.025,0.047l-0.024,0.047l-0.024,0.047l-0.023,0.047l-0.024,0.047l-0.023,0.048l-0.023,0.048l-0.022,0.047l-0.022,0.048l-0.022,0.048l-0.021,0.048l-0.021,0.048l-0.021,0.048l-0.021,0.049l-0.02,0.048l-0.02,0.048l-0.02,0.049l-0.019,0.049l-0.019,0.048l-0.019,0.049l-0.018,0.049l-0.018,0.049l-0.018,0.049l-0.017,0.049l-0.018,0.05l-0.016,0.049l-0.017,0.049l-0.016,0.05l-0.016,0.049l-0.016,0.05l-0.015,0.05l-0.015,0.05l-0.015,0.05l-0.014,0.05l-0.014,0.049l-0.014,0.051l-0.013,0.05l-0.013,0.05l-0.013,0.05l-0.013,0.051l-0.012,0.05l-0.012,0.051l-0.011,0.05l-0.012,0.051l-0.011,0.05l-0.01,0.051l-0.011,0.051l-0.01,0.051l-0.01,0.051l-0.009,0.05l-0.009,0.052l-0.009,0.051l-0.008,0.051l-0.009,0.051l-0.008,0.051l-0.007,0.05l-0.007,0.052l-0.007,0.051l-0.007,0.051l-0.006,0.052l-0.006,0.051l-0.006,0.051l-0.006,0.052l-0.005,0.051l-0.004,0.052l-0.005,0.051l-0.004,0.052l-0.004,0.051l-0.004,0.051l-0.003,0.052l-0.003,0.052l-0.003,0.051l-0.002,0.052l-0.002,0.051l-0.002,0.052l-0.001,0.052l-0.001,0.051l-0.001,0.052l-0.001,0.051l0,0.052l0,0.052l0.001,0.051l0.001,0.052l0.001,0.051l0.001,0.052l0.002,0.051l0.002,0.052l0.002,0.051l0.002,0.052l0.003,0.052l0.004,0.051l0.003,0.052l0.004,0.051l0.004,0.052l0.004,0.051l0.005,0.051l0.005,0.052l0.005,0.051l0.006,0.051l0.006,0.051l0.006,0.052l0.007,0.051l0.007,0.051l0.007,0.051l0.007,0.052l0.008,0.05l0.008,0.051l0.009,0.052l0.008,0.05l0.009,0.051l0.01,0.051l0.009,0.051l0.01,0.051l0.01,0.05l0.011,0.051l0.011,0.05l0.011,0.051l0.011,0.05l0.012,0.051l0.012,0.05l0.013,0.05l0.012,0.05l0.013,0.05l0.014,0.051l0.013,0.05l0.014,0.049l0.014,0.05l0.015,0.05l0.015,0.05l0.015,0.049l0.015,0.05l0.016,0.049l0.016,0.05l0.016,0.049l0.017,0.049l0.017,0.049l0.017,0.049l0.017,0.049l0.018,0.049l0.018,0.049l0.019,0.048l0.019,0.049l0.019,0.048l0.019,0.049l0.02,0.048l0.02,0.048l0.02,0.048l0.02,0.048l0.021,0.048l0.021,0.048l0.022,0.048l0.022,0.047l0.022,0.048l0.022,0.047l0.023,0.046l0.023,0.048l0.023,0.047l0.024,0.047l0.024,0.047l0.023,0.046l0.025,0.046l0.025,0.047l0.025,0.046l0.025,0.046l0.026,0.046l0.026,0.046l0.026,0.046l0.027,0.045l0.027,0.046l0.027,0.045l0.027,0.045l0.028,0.045l0.028,0.045l0.029,0.045l0.029,0.045l0.029,0.044l0.029,0.044l0.03,0.045l0.03,0.044l0.03,0.044l0.03,0.043l0.031,0.044l0.031,0.043l0.032,0.044l0.032,0.043l0.031,0.043l0.033,0.043l0.033,0.043l0.033,0.042l0.033,0.043l0.033,0.042l0.034,0.042l0.034,0.041l0.035,0.043l0.035,0.041l0.035,0.041l0.035,0.042l0.036,0.041l0.036,0.041l0.036,0.04l0.037,0.041l0.037,0.04l0.037,0.04l0.038,0.04l0.038,0.04l0.038,0.04l0.038,0.039l0.039,0.04l0.04,0.039l0.039,0.039l0.04,0.038l0.04,0.039l0.04,0.038l0.041,0.039l0.039,0.036l0.039,0.036l0.039,0.035l0.04,0.036l0.04,0.035l0.039,0.034l0.04,0.035l0.04,0.034l0.041,0.034l0.04,0.033l0.041,0.033l0.04,0.033l0.041,0.033l0.041,0.032l0.041,0.032l0.041,0.032l0.042,0.032l0.041,0.031l0.042,0.031l0.042,0.031l0.041,0.03l0.042,0.03l0.043,0.03l0.042,0.029l0.042,0.029l0.043,0.029l0.043,0.029l0.042,0.028l0.043,0.028l0.043,0.028l0.043,0.027l0.043,0.027l0.044,0.027l0.044,0.027l0.043,0.026l0.044,0.026l0.043,0.026l0.045,0.025l0.044,0.026l0.044,0.024l0.044,0.025l0.045,0.024l0.044,0.024l0.045,0.024l0.044,0.023l0.045,0.024l0.045,0.023l0.045,0.022l0.045,0.023l0.046,0.022l0.045,0.022l0.045,0.021l0.046,0.021l0.046,0.021l0.045,0.021l0.046,0.02l0.046,0.02l0.046,0.02l0.046,0.019l0.046,0.02l0.046,0.019l0.047,0.018l0.046,0.019l0.047,0.018l0.046,0.018l0.047,0.017l0.047,0.017l0.046,0.017l0.048,0.017l0.047,0.017l0.047,0.016l0.047,0.015l0.047,0.016l0.047,0.015l0.047,0.015l0.048,0.015l0.048,0.015l0.047,0.014l0.048,0.014l0.047,0.013l0.048,0.013l0.048,0.014l0.048,0.012l0.048,0.013l0.048,0.012l0.048,0.012l0.048,0.012l0.048,0.011l0.049,0.011l0.048,0.011l0.048,0.01l0.049,0.011l0.048,0.009l0.048,0.01l0.049,0.01l0.048,0.009l0.049,0.008l0.049,0.009l0.048,0.008l0.048,0.008l0.049,0.008l0.049,0.007l0.049,0.008l0.049,0.006l0.049,0.007l0.049,0.006l0.049,0.006l0.049,0.006l0.049,0.006l0.048,0.005l0.05,0.005l0.049,0.004l0.049,0.005l0.049,0.004l0.049,0.003l0.049,0.004l0.049,0.003l0.049,0.003l0.05,0.003l0.049,0.002l0.049,0.002l0.049,0.002l0.049,0.002l0.049,0.001l0.05,0.001l0.049,0.001l0.049,0l0.049,0l0.054,0l0.054,-0.001l0.054,0l0.054,-0.002l0.054,-0.001l0.054,-0.002l0.054,-0.002l0.054,-0.003l0.054,-0.003l0.054,-0.003l0.053,-0.003l0.054,-0.004l0.054,-0.004l0.054,-0.005l0.053,-0.005l0.054,-0.005l0.054,-0.005l0.054,-0.006l0.053,-0.007l0.054,-0.006l0.054,-0.007l0.053,-0.007l0.053,-0.008l0.054,-0.008l0.053,-0.008l0.053,-0.008l0.054,-0.009l0.053,-0.01l0.053,-0.009l0.053,-0.01l0.053,-0.01l0.053,-0.011l0.054,-0.011l0.052,-0.011l0.053,-0.011l0.053,-0.012l0.053,-0.013l0.052,-0.012l0.053,-0.013l0.052,-0.013l0.052,-0.014l0.053,-0.014l0.052,-0.014l0.052,-0.015l0.052,-0.015l0.052,-0.015l0.053,-0.015l0.051,-0.016l0.052,-0.016l0.052,-0.017l0.051,-0.017l0.052,-0.017l0.051,-0.018l0.051,-0.018l0.052,-0.018l0.051,-0.018l0.051,-0.019l0.051,-0.019l0.05,-0.02l0.051,-0.02l0.051,-0.02l0.05,-0.021l0.051,-0.02l0.05,-0.022l0.05,-0.021l0.05,-0.022l0.05,-0.022l0.05,-0.023l0.049,-0.023l0.05,-0.023l0.05,-0.023l0.049,-0.024l0.049,-0.024l0.049,-0.025l0.049,-0.025l0.049,-0.025l0.048,-0.025l0.049,-0.026l0.048,-0.026l0.048,-0.027l0.049,-0.027l0.048,-0.027l0.047,-0.027l0.048,-0.028l0.048,-0.028l0.047,-0.029l0.047,-0.028l0.047,-0.029l0.047,-0.03l0.047,-0.03l0.047,-0.03l0.046,-0.03l0.047,-0.031l0.046,-0.031l0.046,-0.032l0.046,-0.031l0.045,-0.033l0.046,-0.032l0.045,-0.033l0.046,-0.033l0.045,-0.033l0.044,-0.034l0.045,-0.034l0.045,-0.035l0.044,-0.035l0.044,-0.035l0.044,-0.035l0.044,-0.036l0.044,-0.036l0.043,-0.037l0.043,-0.036l0.043,-0.037l0.044,-0.038l0.042,-0.038l0.043,-0.038l0.042,-0.038l0.042,-0.039l0.042,-0.039l0.042,-0.039l0.041,-0.04l0.042,-0.041l0.041,-0.04l0.041,-0.041l0.041,-0.041l0.04,-0.042l0.041,-0.041l0.04,-0.043l0.042,-0.044l90.622,-97.205l0.04,-0.043l0.037,-0.041l0.037,-0.041l0.037,-0.042l0.037,-0.042l0.036,-0.041l0.036,-0.042l0.036,-0.042l0.035,-0.042l0.035,-0.043l0.035,-0.042l0.034,-0.043l0.034,-0.043l0.034,-0.043l0.034,-0.043l0.032,-0.043l0.033,-0.044l0.033,-0.043l0.032,-0.044l0.032,-0.044l0.031,-0.044l0.031,-0.044l0.031,-0.044l0.031,-0.045l0.03,-0.044l0.03,-0.045l0.03,-0.045l0.029,-0.045l0.029,-0.045l0.028,-0.046l0.029,-0.045l0.028,-0.045l0.028,-0.046l0.027,-0.046l0.027,-0.046l0.027,-0.046l0.026,-0.046l0.026,-0.046l0.026,-0.047l0.026,-0.046l0.025,-0.047l0.025,-0.047l0.024,-0.046l0.025,-0.047l0.024,-0.047l0.023,-0.048l0.024,-0.047l0.023,-0.047l0.023,-0.048l0.022,-0.048l0.022,-0.047l0.022,-0.049l0.021,-0.047l0.021,-0.048l0.021,-0.049l0.021,-0.048l0.02,-0.048l0.02,-0.048l0.02,-0.049l0.019,-0.049l0.019,-0.048l0.019,-0.049l0.018,-0.05l0.018,-0.048l0.018,-0.049l0.017,-0.049l0.017,-0.05l0.017,-0.049l0.017,-0.05l0.016,-0.049l0.016,-0.05l0.016,-0.05l0.015,-0.049l0.015,-0.05l0.014,-0.049l0.015,-0.051l0.014,-0.05l0.014,-0.05l0.013,-0.05l0.013,-0.05l0.013,-0.051l0.013,-0.05l0.012,-0.05l0.012,-0.051l0.011,-0.05l0.012,-0.051l0.011,-0.051l0.01,-0.05l0.011,-0.051l0.01,-0.051l0.009,-0.051l0.01,-0.05l0.009,-0.052l0.009,-0.051l0.008,-0.051l0.008,-0.05l0.008,-0.051l0.008,-0.052l0.007,-0.051l0.007,-0.052l0.007,-0.05l0.006,-0.051l0.006,-0.052l0.006,-0.052l0.005,-0.051l0.005,-0.051l0.005,-0.052l0.005,-0.051l0.004,-0.052l0.004,-0.051l0.003,-0.051l0.004,-0.052l0.003,-0.052l0.002,-0.051l0.003,-0.052l0.002,-0.051l0.001,-0.052l0.002,-0.052l0.001,-0.051l0.001,-0.051l0,-0.052l0,-0.052l0,-0.052l0,-0.051l-0.001,-0.051l-0.001,-0.052l-0.001,-0.052l-0.002,-0.051l-0.002,-0.052l-0.002,-0.051l-0.003,-0.052l-0.003,-0.051l-0.003,-0.052l-0.003,-0.051l-0.004,-0.052l-0.004,-0.051l-0.005,-0.052l-0.004,-0.051l-0.005,-0.051l-0.006,-0.052l-0.005,-0.051l-0.006,-0.051l-0.006,-0.052l-0.007,-0.051l-0.007,-0.051l-0.007,-0.051l-0.008,-0.051l-0.007,-0.052l-0.008,-0.05l-0.009,-0.051l-0.009,-0.051l-0.009,-0.051l-0.009,-0.051l-0.009,-0.051l-0.01,-0.05l-0.011,-0.051l-0.01,-0.051l-0.011,-0.05l-0.011,-0.05l-0.012,-0.051l-0.011,-0.051l-0.012,-0.05l-0.013,-0.05l-0.012,-0.05l-0.013,-0.05l-0.014,-0.051l-0.013,-0.049l-0.014,-0.05l-0.015,-0.05l-0.014,-0.05l-0.015,-0.049l-0.015,-0.05l-0.015,-0.049l-0.016,-0.05l-0.016,-0.05l-0.016,-0.049l-0.017,-0.049l-0.017,-0.049l-0.017,-0.049l-0.018,-0.049l-0.017,-0.049l-0.019,-0.049l-0.018,-0.048l-0.019,-0.049l-0.019,-0.048l-0.019,-0.048l-0.02,-0.049l-0.02,-0.048l-0.02,-0.048l-0.02,-0.048l-0.021,-0.048l-0.022,-0.048l-0.021,-0.047l-0.022,-0.048l-0.022,-0.047l-0.022,-0.047l-0.023,-0.047l-0.023,-0.048l-0.023,-0.047l-0.024,-0.047l-0.024,-0.046l-0.024,-0.047l-0.024,-0.046l-0.025,-0.047l-0.025,-0.046l-0.026,-0.046l-0.025,-0.046l-0.026,-0.046l-0.027,-0.046l-0.026,-0.045l-0.027,-0.046l-0.027,-0.045l-0.028,-0.045l-0.027,-0.045l-0.029,-0.045l-0.028,-0.045l-0.029,-0.044l-0.029,-0.045l-0.029,-0.044l-0.03,-0.045l-0.03,-0.044l-0.03,-0.043l-0.03,-0.044l-0.031,-0.044l-0.031,-0.043l-0.032,-0.044l-0.032,-0.043l-0.032,-0.043l-0.032,-0.043l-0.033,-0.042l-0.033,-0.043l-0.033,-0.042l-0.034,-0.042l-0.033,-0.042l-0.035,-0.042l-0.034,-0.042l-0.035,-0.042l-0.035,-0.041l-0.036,-0.041l-0.035,-0.041l-0.036,-0.041l-0.037,-0.041l-0.036,-0.041l-0.037,-0.04l-0.038,-0.04l-0.037,-0.04l-0.038,-0.04l-0.038,-0.04l-0.039,-0.039l-0.039,-0.04l-0.039,-0.039l-0.039,-0.038l-0.04,-0.039l-0.04,-0.039l-0.04,-0.038l-0.041,-0.039l-0.041,-0.037l-0.041,-0.038l-0.041,-0.037l-0.042,-0.037l-0.041,-0.037l-0.042,-0.036l-0.042,-0.036l-0.042,-0.036l-0.042,-0.035l-0.043,-0.035l-0.043,-0.035l-0.042,-0.034l-0.043,-0.034l-0.043,-0.034l-0.043,-0.033l-0.043,-0.033l-0.044,-0.033l-0.044,-0.033l-0.043,-0.032l-0.044,-0.032l-0.044,-0.031l-0.044,-0.031l-0.045,-0.031l-0.044,-0.031l-0.045,-0.03l-0.044,-0.03l-0.046,-0.03l-0.044,-0.029l-0.046,-0.029l-0.045,-0.028l-0.045,-0.029l-0.046,-0.028l-0.045,-0.027l-0.046,-0.028l-0.046,-0.027l-0.046,-0.027l-0.046,-0.026l-0.047,-0.026l-0.046,-0.026l-0.047,-0.026l-0.046,-0.025l-0.047,-0.025l-0.047,-0.024l-0.047,-0.025l-0.047,-0.024l-0.047,-0.023l-0.048,-0.024l-0.047,-0.023l-0.047,-0.022l-0.048,-0.023l-0.048,-0.022l-0.048,-0.022l-0.048,-0.021l-0.048,-0.021l-0.048,-0.021l-0.049,-0.021l-0.048,-0.02l-0.048,-0.02l-0.049,-0.02l-0.048,-0.019l-0.049,-0.019l-0.049,-0.018l-0.049,-0.019l-0.049,-0.018l-0.049,-0.018l-0.049,-0.017l-0.05,-0.017l-0.049,-0.017l-0.049,-0.017l-0.05,-0.016l-0.049,-0.016l-0.05,-0.015l-0.05,-0.016l-0.05,-0.015l-0.05,-0.014l-0.05,-0.015l-0.05,-0.014l-0.05,-0.014l-0.05,-0.013l-0.05,-0.013l-0.05,-0.013l-0.051,-0.013l-0.05,-0.012l-0.05,-0.012l-0.051,-0.011l-0.051,-0.012l-0.05,-0.01l-0.051,-0.011l-0.051,-0.011l-0.051,-0.01l-0.05,-0.009l-0.051,-0.01l-0.052,-0.009l-0.05,-0.009l-0.051,-0.008l-0.051,-0.008l-0.051,-0.008l-0.052,-0.008l-0.051,-0.007l-0.051,-0.007l-0.052,-0.007l-0.05,-0.006l-0.052,-0.006l-0.052,-0.006l-0.05,-0.005l-0.052,-0.005l-0.052,-0.005l-0.051,-0.005l-0.052,-0.004l-0.051,-0.004l-0.051,-0.003l-0.052,-0.004l-0.052,-0.003l-0.051,-0.002l-0.052,-0.003l-0.051,-0.002l-0.052,-0.001l-0.051,-0.002l-0.052,-0.001l-0.051,-0.001l-0.052,0l-0.052,0l-0.052,0Z" style="fill:#b1eaf1;"/><path d="M61.594,155.448c0,2.372 -1.923,4.295 -4.295,4.295c-2.371,0 -4.294,-1.923 -4.294,-4.295c0,-2.372 1.923,-4.295 4.294,-4.295c2.372,0 4.295,1.923 4.295,4.295" style="fill:#b1eaf1;fill-rule:nonzero;"/><g><g opacity="0.270004"><clipPath id="_clip1"><rect x="168.127" y="131.078" width="159.537" height="212.187"/></clipPath><g clip-path="url(#_clip1)"><path d="M318.12,131.078l-149.994,0l0,212.186l97.317,0c9.395,0 17.429,-6.756 19.041,-16.011l25.676,-147.436l7.96,0c5.271,0 9.544,-4.273 9.544,-9.544l0,-29.651c0,-5.271 -4.273,-9.544 -9.544,-9.544" style="fill:#fff;fill-rule:nonzero;"/></g></g></g><path d="M258.95,165.949c-4.317,0 -8.361,-2.682 -9.89,-6.982l-44.743,-125.766c-1.945,-5.462 0.908,-11.466 6.371,-13.409c5.46,-1.946 11.466,0.908 13.409,6.372l44.743,125.765c1.944,5.463 -0.908,11.466 -6.371,13.41c-1.163,0.414 -2.351,0.61 -3.519,0.61" style="fill:#424242;fill-rule:nonzero;"/><path d="M214.319,17.272l0.076,0.001l0.075,0.001l0.076,0.002l0.076,0.003l0.076,0.002l0.075,0.004l0.076,0.003l0.075,0.005l0.076,0.004l0.075,0.005l0.075,0.006l0.075,0.006l0.076,0.006l0.075,0.007l0.075,0.008l0.074,0.007l0.076,0.009l0.074,0.008l0.075,0.01l0.075,0.009l0.074,0.01l0.074,0.011l0.075,0.011l0.074,0.011l0.074,0.012l0.074,0.012l0.074,0.013l0.074,0.013l0.073,0.014l0.074,0.014l0.073,0.015l0.074,0.014l0.073,0.016l0.073,0.016l0.073,0.016l0.073,0.017l0.073,0.017l0.072,0.017l0.073,0.018l0.072,0.019l0.072,0.019l0.073,0.019l0.071,0.02l0.072,0.02l0.072,0.02l0.072,0.021l0.071,0.022l0.071,0.021l0.071,0.023l0.071,0.022l0.071,0.023l0.071,0.024l0.07,0.024l0.071,0.024l0.07,0.025l0.07,0.025l0.07,0.026l0.069,0.026l0.07,0.026l0.07,0.027l0.069,0.027l0.069,0.028l0.069,0.028l0.068,0.029l0.069,0.029l0.068,0.029l0.068,0.03l0.068,0.03l0.068,0.03l0.068,0.031l0.067,0.031l0.067,0.032l0.068,0.032l0.067,0.033l0.066,0.033l0.066,0.033l0.067,0.033l0.066,0.035l0.066,0.034l0.065,0.035l0.066,0.035l0.065,0.036l0.065,0.036l0.065,0.036l0.065,0.037l0.064,0.038l0.064,0.037l0.064,0.038l0.064,0.039l0.064,0.039l0.063,0.039l0.063,0.039l0.063,0.04l0.063,0.041l0.062,0.04l0.062,0.041l0.062,0.042l0.062,0.042l0.061,0.042l0.061,0.042l0.062,0.043l0.06,0.044l0.06,0.043l0.061,0.044l0.06,0.045l0.06,0.045l0.059,0.045l0.059,0.045l0.06,0.047l0.058,0.046l0.058,0.046l0.059,0.048l0.058,0.047l0.057,0.048l0.058,0.048l0.057,0.048l0.056,0.049l0.057,0.05l0.056,0.049l0.056,0.05l0.056,0.051l0.055,0.05l0.056,0.051l0.055,0.052l0.054,0.051l0.055,0.053l0.054,0.052l0.053,0.053l0.053,0.053l0.053,0.053l0.053,0.054l0.053,0.054l0.052,0.055l0.052,0.055l0.051,0.055l0.052,0.055l0.051,0.057l0.05,0.056l0.051,0.056l0.05,0.057l0.049,0.057l0.05,0.058l0.049,0.058l0.048,0.058l0.049,0.059l0.048,0.059l0.047,0.059l0.048,0.06l0.047,0.06l0.046,0.06l0.047,0.061l0.046,0.061l0.046,0.061l0.045,0.062l0.045,0.062l0.044,0.062l0.045,0.063l0.044,0.063l0.043,0.063l0.043,0.063l0.043,0.064l0.042,0.064l0.042,0.065l0.042,0.065l0.042,0.065l0.04,0.065l0.041,0.066l0.04,0.066l0.04,0.066l0.039,0.067l0.04,0.067l0.038,0.067l0.039,0.068l0.037,0.068l0.038,0.068l0.037,0.069l0.037,0.068l0.036,0.069l0.036,0.07l0.035,0.069l0.036,0.071l0.034,0.07l0.035,0.07l0.033,0.071l0.034,0.071l0.033,0.072l0.033,0.072l0.032,0.072l0.032,0.072l0.031,0.072l0.031,0.073l0.03,0.073l0.031,0.074l0.029,0.074l0.029,0.073l0.029,0.075l0.029,0.074l0.028,0.075l0.027,0.075l0.026,0.072l44.745,125.771l0.026,0.073l0.025,0.074l0.026,0.076l0.025,0.077l0.025,0.075l0.024,0.075l0.023,0.076l0.023,0.077l0.023,0.076l0.022,0.075l0.021,0.076l0.021,0.076l0.021,0.076l0.02,0.077l0.019,0.076l0.019,0.076l0.019,0.077l0.018,0.075l0.017,0.077l0.017,0.077l0.017,0.076l0.016,0.077l0.015,0.076l0.015,0.076l0.015,0.077l0.014,0.077l0.013,0.077l0.013,0.076l0.012,0.076l0.013,0.077l0.011,0.077l0.011,0.076l0.011,0.076l0.01,0.078l0.009,0.076l0.009,0.076l0.009,0.076l0.008,0.078l0.008,0.076l0.007,0.077l0.007,0.076l0.006,0.076l0.006,0.078l0.005,0.076l0.004,0.075l0.005,0.078l0.004,0.076l0.003,0.076l0.003,0.077l0.002,0.075l0.002,0.077l0.001,0.076l0.001,0.076l0.001,0.076l0,0.076l-0.001,0.076l0,0.077l-0.002,0.074l-0.002,0.077l-0.002,0.076l-0.003,0.075l-0.003,0.076l-0.004,0.076l-0.004,0.075l-0.005,0.076l-0.005,0.076l-0.005,0.074l-0.006,0.076l-0.007,0.075l-0.007,0.075l-0.007,0.075l-0.008,0.074l-0.008,0.075l-0.009,0.076l-0.009,0.074l-0.01,0.074l-0.01,0.075l-0.01,0.074l-0.011,0.075l-0.012,0.074l-0.011,0.074l-0.013,0.074l-0.013,0.074l-0.013,0.074l-0.013,0.073l-0.014,0.074l-0.015,0.073l-0.015,0.074l-0.015,0.073l-0.016,0.073l-0.016,0.072l-0.017,0.074l-0.017,0.073l-0.018,0.072l-0.018,0.073l-0.018,0.072l-0.019,0.073l-0.019,0.071l-0.02,0.072l-0.02,0.072l-0.021,0.072l-0.021,0.072l-0.021,0.071l-0.022,0.07l-0.022,0.072l-0.023,0.072l-0.023,0.07l-0.023,0.07l-0.024,0.071l-0.025,0.071l-0.024,0.07l-0.026,0.07l-0.025,0.069l-0.026,0.07l-0.027,0.07l-0.027,0.07l-0.027,0.068l-0.027,0.069l-0.028,0.069l-0.029,0.069l-0.029,0.069l-0.029,0.068l-0.03,0.068l-0.03,0.068l-0.03,0.068l-0.031,0.067l-0.031,0.067l-0.032,0.068l-0.032,0.067l-0.033,0.067l-0.033,0.067l-0.033,0.066l-0.034,0.066l-0.034,0.066l-0.034,0.066l-0.035,0.066l-0.036,0.066l-0.035,0.065l-0.036,0.065l-0.037,0.065l-0.036,0.064l-0.038,0.065l-0.037,0.064l-0.038,0.064l-0.038,0.063l-0.039,0.064l-0.04,0.064l-0.039,0.063l-0.04,0.062l-0.04,0.063l-0.041,0.063l-0.041,0.062l-0.041,0.061l-0.042,0.062l-0.043,0.062l-0.042,0.061l-0.043,0.061l-0.043,0.06l-0.044,0.061l-0.044,0.061l-0.045,0.06l-0.045,0.059l-0.045,0.06l-0.045,0.058l-0.046,0.06l-0.047,0.059l-0.046,0.058l-0.047,0.058l-0.048,0.058l-0.048,0.058l-0.047,0.057l-0.049,0.057l-0.049,0.057l-0.049,0.056l-0.05,0.057l-0.05,0.056l-0.05,0.055l-0.051,0.056l-0.051,0.055l-0.051,0.055l-0.052,0.054l-0.052,0.055l-0.052,0.054l-0.053,0.054l-0.053,0.053l-0.053,0.053l-0.054,0.052l-0.055,0.054l-0.055,0.052l-0.054,0.051l-0.055,0.052l-0.056,0.051l-0.056,0.051l-0.056,0.051l-0.056,0.05l-0.058,0.05l-0.057,0.05l-0.058,0.049l-0.057,0.049l-0.058,0.049l-0.059,0.048l-0.059,0.048l-0.059,0.048l-0.06,0.047l-0.06,0.047l-0.061,0.047l-0.06,0.046l-0.061,0.046l-0.061,0.046l-0.062,0.045l-0.062,0.045l-0.062,0.045l-0.063,0.044l-0.062,0.043l-0.064,0.044l-0.064,0.044l-0.063,0.042l-0.064,0.043l-0.065,0.042l-0.064,0.041l-0.066,0.042l-0.065,0.041l-0.065,0.04l-0.067,0.041l-0.067,0.04l-0.066,0.039l-0.067,0.039l-0.068,0.039l-0.067,0.038l-0.067,0.038l-0.069,0.037l-0.068,0.037l-0.069,0.037l-0.069,0.036l-0.069,0.036l-0.07,0.036l-0.07,0.035l-0.071,0.035l-0.07,0.034l-0.071,0.034l-0.071,0.033l-0.072,0.034l-0.071,0.032l-0.072,0.032l-0.072,0.032l-0.073,0.031l-0.073,0.031l-0.072,0.031l-0.074,0.03l-0.074,0.03l-0.074,0.029l-0.074,0.029l-0.074,0.028l-0.075,0.028l-0.075,0.027l-0.075,0.028l-0.064,0.022l-0.064,0.022l-0.065,0.023l-0.064,0.021l-0.065,0.021l-0.065,0.021l-0.064,0.021l-0.065,0.02l-0.064,0.019l-0.065,0.02l-0.065,0.019l-0.064,0.018l-0.065,0.018l-0.065,0.018l-0.065,0.018l-0.065,0.017l-0.064,0.017l-0.066,0.016l-0.065,0.016l-0.065,0.016l-0.065,0.015l-0.065,0.015l-0.065,0.015l-0.065,0.014l-0.066,0.014l-0.064,0.013l-0.066,0.014l-0.065,0.012l-0.065,0.013l-0.065,0.012l-0.066,0.012l-0.065,0.011l-0.064,0.011l-0.066,0.011l-0.066,0.01l-0.065,0.01l-0.065,0.009l-0.065,0.009l-0.065,0.009l-0.066,0.009l-0.065,0.008l-0.065,0.008l-0.065,0.007l-0.065,0.007l-0.065,0.007l-0.066,0.006l-0.065,0.006l-0.065,0.006l-0.065,0.005l-0.066,0.006l-0.065,0.004l-0.065,0.004l-0.065,0.004l-0.065,0.004l-0.065,0.003l-0.065,0.003l-0.065,0.003l-0.065,0.002l-0.065,0.002l-0.065,0.001l-0.065,0.002l-0.065,0l-0.064,0.001l-0.065,0l-0.06,0l-0.06,-0.001l-0.059,0l-0.06,-0.001l-0.06,-0.002l-0.06,-0.001l-0.059,-0.002l-0.06,-0.002l-0.06,-0.003l-0.059,-0.002l-0.06,-0.003l-0.059,-0.004l-0.059,-0.003l-0.06,-0.004l-0.059,-0.004l-0.059,-0.005l-0.059,-0.005l-0.059,-0.005l-0.06,-0.005l-0.059,-0.005l-0.059,-0.006l-0.059,-0.006l-0.059,-0.007l-0.058,-0.007l-0.059,-0.007l-0.059,-0.007l-0.059,-0.007l-0.059,-0.008l-0.058,-0.008l-0.058,-0.009l-0.059,-0.008l-0.058,-0.009l-0.059,-0.009l-0.058,-0.01l-0.058,-0.01l-0.058,-0.01l-0.059,-0.01l-0.058,-0.011l-0.058,-0.01l-0.057,-0.011l-0.058,-0.012l-0.058,-0.011l-0.058,-0.012l-0.058,-0.013l-0.057,-0.012l-0.057,-0.013l-0.058,-0.013l-0.057,-0.013l-0.057,-0.014l-0.057,-0.013l-0.057,-0.014l-0.057,-0.015l-0.057,-0.014l-0.057,-0.015l-0.057,-0.016l-0.057,-0.015l-0.056,-0.016l-0.056,-0.015l-0.057,-0.017l-0.056,-0.016l-0.056,-0.017l-0.057,-0.017l-0.056,-0.017l-0.056,-0.018l-0.056,-0.017l-0.056,-0.018l-0.055,-0.019l-0.056,-0.018l-0.055,-0.019l-0.055,-0.019l-0.056,-0.019l-0.055,-0.02l-0.056,-0.02l-0.054,-0.02l-0.055,-0.02l-0.055,-0.021l-0.055,-0.021l-0.055,-0.021l-0.054,-0.021l-0.054,-0.022l-0.054,-0.022l-0.055,-0.022l-0.054,-0.022l-0.054,-0.023l-0.054,-0.023l-0.054,-0.023l-0.053,-0.023l-0.053,-0.024l-0.054,-0.024l-0.053,-0.024l-0.054,-0.025l-0.053,-0.024l-0.052,-0.025l-0.053,-0.025l-0.053,-0.026l-0.052,-0.025l-0.053,-0.026l-0.052,-0.026l-0.053,-0.027l-0.052,-0.026l-0.052,-0.027l-0.052,-0.027l-0.051,-0.028l-0.052,-0.027l-0.052,-0.028l-0.051,-0.028l-0.051,-0.028l-0.051,-0.029l-0.051,-0.029l-0.051,-0.029l-0.051,-0.029l-0.05,-0.03l-0.05,-0.029l-0.051,-0.031l-0.05,-0.03l-0.05,-0.03l-0.05,-0.031l-0.05,-0.031l-0.049,-0.031l-0.05,-0.032l-0.049,-0.031l-0.049,-0.032l-0.049,-0.032l-0.049,-0.033l-0.049,-0.032l-0.049,-0.033l-0.048,-0.033l-0.048,-0.033l-0.048,-0.034l-0.049,-0.034l-0.047,-0.034l-0.048,-0.034l-0.047,-0.035l-0.048,-0.035l-0.048,-0.035l-0.046,-0.035l-0.047,-0.035l-0.047,-0.036l-0.046,-0.036l-0.047,-0.036l-0.046,-0.036l-0.046,-0.037l-0.046,-0.036l-0.046,-0.037l-0.046,-0.038l-0.045,-0.037l-0.045,-0.038l-0.046,-0.038l-0.044,-0.038l-0.046,-0.038l-0.044,-0.039l-0.044,-0.038l-0.045,-0.04l-0.044,-0.039l-0.044,-0.04l-0.044,-0.039l-0.043,-0.04l-0.043,-0.04l-0.043,-0.04l-0.044,-0.041l-0.043,-0.041l-0.042,-0.041l-0.043,-0.041l-0.042,-0.042l-0.043,-0.042l-0.041,-0.041l-0.042,-0.042l-0.042,-0.043l-0.041,-0.043l-0.041,-0.042l-0.041,-0.043l-0.041,-0.043l-0.041,-0.044l-0.04,-0.043l-0.04,-0.044l-0.04,-0.044l-0.04,-0.044l-0.04,-0.045l-0.039,-0.045l-0.039,-0.044l-0.04,-0.045l-0.039,-0.046l-0.038,-0.045l-0.039,-0.046l-0.038,-0.046l-0.038,-0.046l-0.038,-0.047l-0.038,-0.046l-0.037,-0.047l-0.037,-0.047l-0.037,-0.047l-0.037,-0.047l-0.036,-0.048l-0.037,-0.048l-0.036,-0.048l-0.036,-0.048l-0.036,-0.049l-0.035,-0.048l-0.035,-0.048l-0.036,-0.05l-0.035,-0.049l-0.034,-0.05l-0.035,-0.049l-0.034,-0.05l-0.034,-0.05l-0.033,-0.05l-0.034,-0.051l-0.033,-0.05l-0.033,-0.051l-0.033,-0.051l-0.033,-0.051l-0.032,-0.051l-0.032,-0.052l-0.032,-0.052l-0.032,-0.052l-0.031,-0.052l-0.031,-0.052l-0.032,-0.053l-0.031,-0.053l-0.03,-0.052l-0.03,-0.053l-0.03,-0.054l-0.03,-0.053l-0.029,-0.053l-0.03,-0.055l-0.029,-0.054l-0.029,-0.054l-0.028,-0.054l-0.028,-0.054l-0.029,-0.056l-0.027,-0.054l-0.028,-0.055l-0.027,-0.056l-0.027,-0.056l-0.027,-0.055l-0.026,-0.056l-0.027,-0.056l-0.026,-0.056l-0.025,-0.056l-0.026,-0.057l-0.025,-0.057l-0.025,-0.057l-0.025,-0.056l-0.025,-0.058l-0.024,-0.058l-0.024,-0.057l-0.023,-0.057l-0.024,-0.058l-0.023,-0.059l-0.023,-0.058l-0.022,-0.058l-0.023,-0.059l-0.022,-0.059l-0.022,-0.059l-0.021,-0.059l-0.02,-0.056l-44.745,-125.771l-0.026,-0.073l-0.026,-0.075l-0.025,-0.075l-0.025,-0.076l-0.025,-0.076l-0.024,-0.076l-0.024,-0.076l-0.023,-0.076l-0.022,-0.076l-0.022,-0.076l-0.021,-0.075l-0.022,-0.077l-0.02,-0.076l-0.02,-0.076l-0.02,-0.076l-0.018,-0.077l-0.019,-0.076l-0.018,-0.076l-0.017,-0.077l-0.017,-0.076l-0.017,-0.076l-0.016,-0.077l-0.015,-0.076l-0.016,-0.077l-0.014,-0.077l-0.014,-0.076l-0.013,-0.076l-0.014,-0.077l-0.012,-0.077l-0.012,-0.076l-0.012,-0.077l-0.011,-0.077l-0.01,-0.076l-0.01,-0.076l-0.01,-0.077l-0.009,-0.077l-0.009,-0.076l-0.008,-0.077l-0.007,-0.077l-0.008,-0.076l-0.006,-0.076l-0.006,-0.077l-0.006,-0.077l-0.005,-0.076l-0.005,-0.077l-0.004,-0.076l-0.004,-0.076l-0.004,-0.077l-0.002,-0.076l-0.003,-0.076l-0.002,-0.076l-0.001,-0.077l-0.001,-0.075l-0.001,-0.077l0,-0.076l0.001,-0.076l0.001,-0.076l0.001,-0.075l0.002,-0.076l0.002,-0.076l0.003,-0.076l0.003,-0.076l0.004,-0.075l0.004,-0.075l0.005,-0.076l0.005,-0.076l0.006,-0.075l0.006,-0.075l0.006,-0.075l0.007,-0.075l0.007,-0.076l0.008,-0.074l0.008,-0.075l0.009,-0.075l0.009,-0.074l0.01,-0.075l0.01,-0.075l0.011,-0.074l0.011,-0.074l0.011,-0.074l0.012,-0.075l0.012,-0.073l0.013,-0.074l0.013,-0.074l0.014,-0.074l0.014,-0.073l0.014,-0.074l0.015,-0.073l0.016,-0.073l0.015,-0.074l0.017,-0.073l0.016,-0.072l0.017,-0.073l0.018,-0.073l0.018,-0.072l0.018,-0.073l0.019,-0.072l0.02,-0.072l0.019,-0.072l0.02,-0.072l0.021,-0.071l0.021,-0.072l0.021,-0.071l0.022,-0.071l0.023,-0.072l0.022,-0.071l0.023,-0.07l0.024,-0.071l0.024,-0.07l0.024,-0.071l0.025,-0.07l0.025,-0.07l0.026,-0.07l0.026,-0.07l0.026,-0.069l0.027,-0.07l0.027,-0.069l0.028,-0.069l0.028,-0.069l0.028,-0.069l0.029,-0.068l0.029,-0.068l0.03,-0.068l0.03,-0.069l0.031,-0.067l0.031,-0.068l0.031,-0.067l0.032,-0.068l0.032,-0.067l0.032,-0.067l0.033,-0.066l0.033,-0.067l0.034,-0.066l0.034,-0.066l0.035,-0.066l0.035,-0.066l0.035,-0.065l0.036,-0.065l0.036,-0.065l0.036,-0.065l0.037,-0.065l0.037,-0.065l0.038,-0.063l0.038,-0.064l0.038,-0.064l0.039,-0.064l0.039,-0.063l0.04,-0.063l0.04,-0.063l0.04,-0.063l0.041,-0.062l0.041,-0.062l0.041,-0.062l0.042,-0.062l0.042,-0.062l0.043,-0.061l0.042,-0.06l0.044,-0.061l0.044,-0.061l0.044,-0.06l0.044,-0.06l0.045,-0.06l0.045,-0.059l0.046,-0.059l0.046,-0.059l0.046,-0.059l0.047,-0.059l0.047,-0.058l0.047,-0.058l0.048,-0.057l0.048,-0.058l0.049,-0.057l0.048,-0.056l0.05,-0.057l0.049,-0.056l0.051,-0.057l0.05,-0.055l0.05,-0.055l0.051,-0.056l0.052,-0.054l0.051,-0.055l0.053,-0.054l0.052,-0.054l0.053,-0.054l0.053,-0.054l0.054,-0.053l0.053,-0.052l0.054,-0.053l0.055,-0.052l0.055,-0.052l0.055,-0.052l0.056,-0.051l0.055,-0.05l0.057,-0.051l0.057,-0.051l0.056,-0.049l0.057,-0.05l0.058,-0.049l0.058,-0.05l0.059,-0.048l0.058,-0.048l0.059,-0.049l0.06,-0.047l0.059,-0.047l0.06,-0.048l0.06,-0.046l0.061,-0.047l0.061,-0.046l0.061,-0.045l0.062,-0.046l0.062,-0.045l0.062,-0.044l0.062,-0.044l0.063,-0.044l0.064,-0.044l0.063,-0.043l0.064,-0.043l0.064,-0.042l0.064,-0.042l0.066,-0.042l0.065,-0.041l0.065,-0.041l0.065,-0.041l0.067,-0.04l0.066,-0.04l0.067,-0.039l0.067,-0.039l0.067,-0.039l0.068,-0.038l0.068,-0.038l0.068,-0.038l0.068,-0.037l0.069,-0.036l0.069,-0.037l0.069,-0.035l0.07,-0.036l0.07,-0.035l0.07,-0.035l0.071,-0.034l0.071,-0.034l0.071,-0.033l0.071,-0.034l0.072,-0.032l0.072,-0.032l0.072,-0.032l0.073,-0.032l0.073,-0.031l0.073,-0.03l0.073,-0.03l0.074,-0.03l0.074,-0.029l0.074,-0.029l0.074,-0.028l0.075,-0.028l0.075,-0.028l0.075,-0.026l0.074,-0.027l0.076,-0.026l0.076,-0.026l0.075,-0.025l0.076,-0.024l0.076,-0.024l0.076,-0.024l0.076,-0.023l0.075,-0.022l0.076,-0.022l0.076,-0.022l0.077,-0.021l0.075,-0.02l0.077,-0.02l0.076,-0.02l0.076,-0.019l0.076,-0.018l0.077,-0.019l0.076,-0.017l0.076,-0.017l0.077,-0.016l0.077,-0.016l0.076,-0.016l0.077,-0.015l0.076,-0.015l0.077,-0.013l0.076,-0.014l0.077,-0.013l0.077,-0.013l0.076,-0.012l0.076,-0.011l0.077,-0.011l0.077,-0.011l0.077,-0.01l0.076,-0.009l0.076,-0.01l0.077,-0.008l0.077,-0.008l0.076,-0.008l0.076,-0.007l0.077,-0.007l0.077,-0.006l0.076,-0.006l0.077,-0.005l0.076,-0.005l0.076,-0.004l0.077,-0.004l0.076,-0.003l0.076,-0.003l0.076,-0.002l0.077,-0.002l0.076,-0.002l0.076,-0.001l0.076,0l0.076,0l0.077,0Zm-0.14,3.817l-0.052,0l-0.053,0.001l-0.053,0.001l-0.052,0.001l-0.053,0.002l-0.053,0.002l-0.052,0.002l-0.052,0.003l-0.053,0.003l-0.053,0.003l-0.053,0.003l-0.053,0.004l-0.052,0.005l-0.053,0.004l-0.053,0.005l-0.053,0.006l-0.053,0.005l-0.052,0.006l-0.053,0.006l-0.054,0.007l-0.053,0.007l-0.052,0.007l-0.053,0.008l-0.053,0.008l-0.053,0.008l-0.053,0.009l-0.052,0.009l-0.053,0.009l-0.054,0.01l-0.052,0.01l-0.053,0.01l-0.053,0.011l-0.053,0.011l-0.053,0.011l-0.053,0.012l-0.053,0.012l-0.052,0.013l-0.053,0.013l-0.054,0.013l-0.052,0.013l-0.053,0.014l-0.053,0.015l-0.053,0.014l-0.052,0.015l-0.053,0.015l-0.053,0.016l-0.053,0.016l-0.052,0.016l-0.053,0.017l-0.053,0.017l-0.053,0.018l-0.052,0.017l-0.053,0.019l-0.053,0.018l-0.053,0.02l-0.052,0.019l-0.052,0.019l-0.052,0.02l-0.052,0.02l-0.052,0.02l-0.051,0.021l-0.051,0.021l-0.051,0.021l-0.05,0.022l-0.05,0.021l-0.051,0.023l-0.05,0.022l-0.05,0.023l-0.049,0.022l-0.049,0.024l-0.05,0.023l-0.048,0.024l-0.049,0.024l-0.048,0.024l-0.049,0.025l-0.048,0.025l-0.047,0.025l-0.048,0.025l-0.048,0.026l-0.047,0.026l-0.047,0.026l-0.046,0.027l-0.047,0.026l-0.046,0.027l-0.046,0.028l-0.046,0.027l-0.045,0.028l-0.046,0.028l-0.045,0.028l-0.045,0.029l-0.045,0.028l-0.044,0.029l-0.045,0.03l-0.044,0.029l-0.044,0.03l-0.043,0.03l-0.044,0.03l-0.043,0.031l-0.043,0.031l-0.043,0.031l-0.042,0.031l-0.042,0.031l-0.043,0.032l-0.041,0.032l-0.042,0.032l-0.041,0.033l-0.042,0.033l-0.041,0.033l-0.04,0.032l-0.041,0.034l-0.04,0.034l-0.04,0.033l-0.04,0.034l-0.039,0.035l-0.04,0.034l-0.039,0.035l-0.039,0.035l-0.038,0.035l-0.039,0.036l-0.038,0.035l-0.038,0.036l-0.037,0.036l-0.038,0.036l-0.037,0.037l-0.037,0.037l-0.037,0.036l-0.036,0.037l-0.036,0.038l-0.036,0.037l-0.036,0.038l-0.036,0.038l-0.035,0.038l-0.035,0.039l-0.035,0.038l-0.034,0.039l-0.035,0.039l-0.034,0.039l-0.034,0.039l-0.033,0.04l-0.033,0.039l-0.034,0.04l-0.032,0.041l-0.033,0.04l-0.032,0.04l-0.032,0.041l-0.032,0.04l-0.032,0.042l-0.031,0.041l-0.031,0.041l-0.031,0.042l-0.03,0.042l-0.031,0.041l-0.029,0.042l-0.031,0.043l-0.029,0.042l-0.029,0.043l-0.029,0.042l-0.029,0.044l-0.029,0.043l-0.028,0.043l-0.028,0.043l-0.027,0.044l-0.028,0.044l-0.027,0.044l-0.027,0.043l-0.026,0.045l-0.027,0.044l-0.026,0.045l-0.026,0.045l-0.025,0.044l-0.026,0.045l-0.025,0.045l-0.024,0.046l-0.025,0.045l-0.024,0.045l-0.024,0.047l-0.024,0.045l-0.023,0.046l-0.023,0.046l-0.023,0.047l-0.022,0.046l-0.023,0.046l-0.022,0.047l-0.021,0.047l-0.022,0.047l-0.021,0.047l-0.021,0.047l-0.021,0.047l-0.02,0.048l-0.02,0.047l-0.02,0.048l-0.019,0.048l-0.019,0.048l-0.019,0.048l-0.019,0.048l-0.018,0.048l-0.018,0.049l-0.018,0.048l-0.017,0.048l-0.018,0.049l-0.016,0.049l-0.017,0.049l-0.016,0.049l-0.016,0.049l-0.016,0.05l-0.015,0.048l-0.016,0.05l-0.015,0.049l-0.014,0.05l-0.014,0.05l-0.014,0.049l-0.014,0.05l-0.013,0.05l-0.013,0.05l-0.013,0.05l-0.013,0.051l-0.012,0.05l-0.012,0.05l-0.011,0.051l-0.011,0.05l-0.011,0.051l-0.011,0.051l-0.01,0.05l-0.01,0.051l-0.01,0.051l-0.01,0.051l-0.009,0.051l-0.008,0.051l-0.009,0.051l-0.008,0.052l-0.008,0.051l-0.008,0.051l-0.007,0.052l-0.007,0.051l-0.007,0.051l-0.006,0.052l-0.006,0.052l-0.006,0.052l-0.005,0.052l-0.005,0.051l-0.005,0.052l-0.004,0.052l-0.005,0.052l-0.003,0.052l-0.004,0.052l-0.003,0.052l-0.003,0.052l-0.003,0.053l-0.002,0.052l-0.002,0.052l-0.001,0.052l-0.002,0.053l-0.001,0.052l0,0.053l-0.001,0.052l0,0.052l0.001,0.053l0,0.053l0.001,0.052l0.002,0.053l0.001,0.052l0.002,0.053l0.003,0.053l0.002,0.053l0.003,0.053l0.004,0.052l0.003,0.053l0.004,0.052l0.004,0.053l0.005,0.053l0.005,0.053l0.005,0.053l0.006,0.053l0.006,0.053l0.006,0.053l0.007,0.052l0.007,0.053l0.007,0.053l0.008,0.053l0.008,0.053l0.008,0.053l0.009,0.053l0.009,0.053l0.009,0.053l0.01,0.053l0.01,0.053l0.01,0.052l0.011,0.054l0.011,0.052l0.011,0.053l0.012,0.053l0.012,0.053l0.013,0.053l0.012,0.053l0.014,0.053l0.013,0.052l0.014,0.054l0.014,0.052l0.015,0.053l0.015,0.053l0.015,0.053l0.016,0.053l0.016,0.053l0.016,0.052l0.017,0.053l0.017,0.052l0.017,0.053l0.018,0.053l0.018,0.053l0.02,0.055l44.741,125.761l0.016,0.044l0.015,0.042l0.015,0.041l0.015,0.041l0.016,0.041l0.016,0.041l0.016,0.04l0.016,0.04l0.016,0.04l0.017,0.041l0.016,0.04l0.017,0.04l0.017,0.039l0.017,0.04l0.018,0.04l0.017,0.039l0.018,0.039l0.018,0.039l0.018,0.039l0.018,0.039l0.018,0.039l0.019,0.039l0.019,0.038l0.019,0.038l0.019,0.038l0.019,0.039l0.019,0.037l0.02,0.038l0.02,0.038l0.02,0.037l0.02,0.038l0.02,0.037l0.02,0.037l0.021,0.037l0.021,0.037l0.021,0.037l0.021,0.036l0.021,0.037l0.021,0.035l0.022,0.037l0.022,0.036l0.022,0.036l0.022,0.036l0.022,0.035l0.022,0.036l0.023,0.035l0.022,0.035l0.023,0.035l0.023,0.035l0.023,0.035l0.024,0.035l0.023,0.034l0.024,0.035l0.023,0.034l0.024,0.034l0.025,0.034l0.023,0.033l0.025,0.034l0.025,0.034l0.024,0.033l0.025,0.034l0.025,0.033l0.025,0.033l0.025,0.032l0.026,0.033l0.025,0.033l0.026,0.032l0.026,0.033l0.026,0.032l0.026,0.032l0.026,0.031l0.026,0.032l0.027,0.032l0.027,0.031l0.027,0.031l0.026,0.031l0.028,0.032l0.027,0.031l0.027,0.03l0.028,0.031l0.027,0.03l0.028,0.03l0.028,0.031l0.028,0.03l0.029,0.029l0.028,0.03l0.029,0.03l0.028,0.029l0.028,0.029l0.029,0.029l0.03,0.03l0.029,0.028l0.029,0.029l0.029,0.028l0.03,0.029l0.029,0.028l0.03,0.028l0.03,0.028l0.03,0.028l0.03,0.027l0.031,0.028l0.03,0.027l0.03,0.027l0.031,0.027l0.031,0.027l0.031,0.027l0.03,0.026l0.032,0.027l0.031,0.026l0.031,0.026l0.032,0.026l0.031,0.026l0.032,0.025l0.032,0.026l0.032,0.025l0.032,0.025l0.032,0.025l0.032,0.025l0.032,0.025l0.033,0.024l0.033,0.025l0.033,0.024l0.032,0.024l0.033,0.024l0.033,0.024l0.034,0.023l0.033,0.023l0.033,0.024l0.034,0.023l0.033,0.023l0.034,0.023l0.034,0.022l0.033,0.023l0.035,0.022l0.034,0.022l0.033,0.022l0.035,0.022l0.034,0.021l0.035,0.022l0.035,0.021l0.034,0.022l0.035,0.02l0.035,0.021l0.035,0.021l0.035,0.02l0.035,0.021l0.035,0.02l0.036,0.02l0.035,0.02l0.036,0.019l0.036,0.02l0.035,0.019l0.036,0.019l0.036,0.019l0.036,0.019l0.036,0.019l0.036,0.018l0.036,0.018l0.036,0.018l0.037,0.019l0.036,0.017l0.037,0.018l0.037,0.017l0.037,0.018l0.036,0.017l0.037,0.017l0.037,0.017l0.037,0.016l0.037,0.016l0.038,0.017l0.037,0.016l0.037,0.016l0.038,0.015l0.038,0.016l0.037,0.015l0.037,0.015l0.038,0.015l0.038,0.015l0.038,0.015l0.038,0.014l0.038,0.015l0.038,0.014l0.038,0.014l0.039,0.014l0.037,0.013l0.039,0.013l0.039,0.014l0.038,0.013l0.038,0.013l0.039,0.012l0.039,0.013l0.039,0.012l0.038,0.012l0.039,0.012l0.039,0.012l0.039,0.012l0.039,0.011l0.039,0.011l0.039,0.011l0.04,0.011l0.039,0.011l0.04,0.01l0.039,0.011l0.039,0.01l0.039,0.01l0.04,0.01l0.04,0.009l0.039,0.009l0.04,0.01l0.039,0.009l0.04,0.008l0.041,0.009l0.039,0.009l0.04,0.008l0.04,0.008l0.04,0.008l0.04,0.007l0.041,0.008l0.04,0.007l0.039,0.007l0.041,0.007l0.04,0.007l0.04,0.007l0.041,0.006l0.04,0.006l0.041,0.006l0.04,0.006l0.041,0.006l0.04,0.005l0.041,0.005l0.04,0.005l0.041,0.005l0.041,0.005l0.041,0.004l0.04,0.004l0.041,0.004l0.041,0.004l0.041,0.004l0.041,0.003l0.041,0.004l0.04,0.003l0.041,0.002l0.042,0.003l0.041,0.003l0.041,0.002l0.041,0.002l0.041,0.002l0.041,0.002l0.041,0.001l0.041,0.001l0.042,0.002l0.041,0l0.041,0.001l0.042,0.001l0.041,0l0.041,0l0.044,0l0.046,0l0.044,-0.001l0.045,-0.001l0.045,-0.001l0.045,-0.001l0.045,-0.002l0.044,-0.002l0.045,-0.002l0.045,-0.002l0.045,-0.002l0.045,-0.003l0.046,-0.003l0.045,-0.003l0.044,-0.004l0.045,-0.003l0.045,-0.004l0.045,-0.004l0.045,-0.005l0.045,-0.004l0.045,-0.005l0.046,-0.005l0.044,-0.006l0.046,-0.006l0.044,-0.005l0.045,-0.006l0.046,-0.007l0.045,-0.006l0.045,-0.007l0.045,-0.007l0.045,-0.008l0.045,-0.007l0.046,-0.008l0.044,-0.008l0.045,-0.009l0.045,-0.008l0.046,-0.009l0.045,-0.009l0.045,-0.01l0.045,-0.009l0.045,-0.01l0.045,-0.01l0.045,-0.01l0.045,-0.011l0.046,-0.011l0.044,-0.011l0.045,-0.011l0.046,-0.012l0.044,-0.012l0.045,-0.012l0.045,-0.012l0.045,-0.013l0.045,-0.013l0.045,-0.013l0.045,-0.014l0.045,-0.013l0.045,-0.014l0.045,-0.015l0.045,-0.014l0.044,-0.015l0.046,-0.015l0.044,-0.015l0.045,-0.016l0.045,-0.016l0.052,-0.018l0.053,-0.019l0.052,-0.02l0.052,-0.02l0.052,-0.02l0.051,-0.02l0.051,-0.021l0.051,-0.021l0.051,-0.021l0.051,-0.022l0.05,-0.021l0.05,-0.022l0.05,-0.023l0.05,-0.023l0.049,-0.022l0.05,-0.024l0.049,-0.023l0.049,-0.024l0.049,-0.024l0.048,-0.024l0.048,-0.025l0.048,-0.025l0.048,-0.025l0.047,-0.025l0.048,-0.026l0.047,-0.026l0.047,-0.026l0.047,-0.027l0.046,-0.026l0.046,-0.027l0.047,-0.028l0.046,-0.027l0.045,-0.028l0.046,-0.028l0.045,-0.028l0.045,-0.029l0.045,-0.028l0.044,-0.03l0.045,-0.029l0.044,-0.03l0.043,-0.029l0.043,-0.03l0.045,-0.031l0.043,-0.03l0.043,-0.031l0.042,-0.031l0.043,-0.031l0.042,-0.032l0.043,-0.032l0.041,-0.032l0.041,-0.032l0.042,-0.032l0.041,-0.033l0.041,-0.033l0.041,-0.033l0.04,-0.033l0.041,-0.034l0.04,-0.034l0.04,-0.034l0.039,-0.034l0.039,-0.034l0.039,-0.035l0.039,-0.036l0.039,-0.034l0.038,-0.036l0.038,-0.036l0.039,-0.036l0.037,-0.036l0.037,-0.035l0.037,-0.037l0.038,-0.037l0.036,-0.037l0.037,-0.037l0.036,-0.037l0.036,-0.038l0.036,-0.037l0.035,-0.038l0.036,-0.039l0.034,-0.038l0.035,-0.038l0.035,-0.039l0.034,-0.039l0.034,-0.039l0.034,-0.04l0.033,-0.039l0.034,-0.04l0.033,-0.04l0.033,-0.04l0.032,-0.04l0.033,-0.04l0.032,-0.041l0.031,-0.041l0.032,-0.041l0.032,-0.041l0.031,-0.042l0.03,-0.041l0.031,-0.042l0.03,-0.041l0.03,-0.043l0.03,-0.042l0.03,-0.043l0.029,-0.042l0.029,-0.043l0.029,-0.043l0.028,-0.043l0.028,-0.043l0.028,-0.043l0.028,-0.045l0.028,-0.043l0.026,-0.044l0.027,-0.044l0.027,-0.044l0.026,-0.045l0.026,-0.044l0.026,-0.044l0.026,-0.046l0.025,-0.045l0.025,-0.045l0.025,-0.045l0.024,-0.045l0.024,-0.046l0.024,-0.045l0.024,-0.047l0.023,-0.045l0.024,-0.047l0.023,-0.046l0.022,-0.047l0.022,-0.046l0.022,-0.046l0.022,-0.047l0.022,-0.048l0.021,-0.047l0.02,-0.046l0.021,-0.047l0.02,-0.048l0.02,-0.048l0.02,-0.047l0.019,-0.048l0.02,-0.048l0.019,-0.049l0.018,-0.048l0.018,-0.047l0.018,-0.048l0.018,-0.05l0.018,-0.048l0.017,-0.049l0.017,-0.049l0.016,-0.048l0.017,-0.049l0.016,-0.05l0.016,-0.048l0.015,-0.049l0.015,-0.051l0.015,-0.049l0.014,-0.049l0.015,-0.05l0.014,-0.049l0.013,-0.051l0.014,-0.05l0.013,-0.049l0.012,-0.051l0.013,-0.05l0.012,-0.05l0.012,-0.051l0.011,-0.049l0.012,-0.051l0.011,-0.052l0.01,-0.05l0.011,-0.05l0.01,-0.052l0.01,-0.05l0.009,-0.051l0.009,-0.052l0.009,-0.051l0.008,-0.051l0.009,-0.051l0.007,-0.051l0.008,-0.052l0.007,-0.051l0.007,-0.051l0.007,-0.053l0.006,-0.051l0.006,-0.051l0.006,-0.052l0.006,-0.053l0.005,-0.051l0.004,-0.052l0.005,-0.052l0.004,-0.051l0.004,-0.053l0.003,-0.052l0.003,-0.052l0.003,-0.052l0.003,-0.052l0.002,-0.052l0.002,-0.053l0.002,-0.052l0.001,-0.052l0.001,-0.053l0.001,-0.052l0,-0.052l0,-0.053l0,-0.053l-0.001,-0.053l-0.001,-0.052l-0.001,-0.052l-0.002,-0.053l-0.002,-0.053l-0.002,-0.053l-0.003,-0.053l-0.003,-0.051l-0.003,-0.054l-0.004,-0.053l-0.004,-0.052l-0.004,-0.053l-0.005,-0.053l-0.005,-0.053l-0.005,-0.053l-0.005,-0.052l-0.006,-0.053l-0.007,-0.054l-0.006,-0.053l-0.007,-0.052l-0.007,-0.053l-0.008,-0.054l-0.008,-0.052l-0.008,-0.052l-0.009,-0.054l-0.009,-0.053l-0.009,-0.053l-0.01,-0.053l-0.01,-0.052l-0.01,-0.053l-0.011,-0.054l-0.011,-0.052l-0.012,-0.053l-0.011,-0.053l-0.012,-0.053l-0.013,-0.054l-0.013,-0.052l-0.013,-0.053l-0.014,-0.053l-0.013,-0.053l-0.014,-0.052l-0.015,-0.053l-0.015,-0.053l-0.016,-0.054l-0.015,-0.052l-0.016,-0.052l-0.016,-0.053l-0.017,-0.053l-0.017,-0.054l-0.018,-0.051l-0.017,-0.053l-0.019,-0.053l-0.019,-0.056l-44.741,-125.759l-0.02,-0.055l-0.019,-0.053l-0.02,-0.052l-0.02,-0.052l-0.02,-0.052l-0.02,-0.051l-0.021,-0.051l-0.021,-0.051l-0.021,-0.051l-0.021,-0.051l-0.022,-0.05l-0.022,-0.05l-0.023,-0.05l-0.022,-0.05l-0.023,-0.049l-0.023,-0.05l-0.024,-0.049l-0.024,-0.049l-0.024,-0.049l-0.024,-0.048l-0.024,-0.048l-0.025,-0.048l-0.025,-0.048l-0.026,-0.048l-0.026,-0.047l-0.025,-0.047l-0.027,-0.047l-0.026,-0.047l-0.027,-0.046l-0.027,-0.047l-0.027,-0.046l-0.028,-0.046l-0.027,-0.046l-0.028,-0.045l-0.029,-0.045l-0.028,-0.045l-0.029,-0.045l-0.029,-0.044l-0.029,-0.045l-0.03,-0.044l-0.03,-0.044l-0.03,-0.044l-0.03,-0.043l-0.031,-0.043l-0.03,-0.043l-0.031,-0.042l-0.032,-0.043l-0.031,-0.043l-0.032,-0.042l-0.032,-0.041l-0.032,-0.042l-0.033,-0.042l-0.032,-0.041l-0.033,-0.041l-0.033,-0.04l-0.034,-0.041l-0.034,-0.04l-0.033,-0.04l-0.034,-0.04l-0.035,-0.039l-0.034,-0.04l-0.035,-0.039l-0.035,-0.039l-0.035,-0.038l-0.035,-0.039l-0.036,-0.038l-0.036,-0.038l-0.036,-0.037l-0.036,-0.038l-0.037,-0.037l-0.036,-0.037l-0.037,-0.037l-0.038,-0.036l-0.037,-0.037l-0.037,-0.036l-0.038,-0.036l-0.038,-0.035l-0.038,-0.035l-0.039,-0.035l-0.038,-0.035l-0.039,-0.035l-0.039,-0.034l-0.039,-0.034l-0.039,-0.034l-0.04,-0.034l-0.04,-0.033l-0.039,-0.033l-0.041,-0.033l-0.04,-0.032l-0.04,-0.033l-0.041,-0.032l-0.041,-0.031l-0.041,-0.032l-0.041,-0.032l-0.042,-0.031l-0.041,-0.03l-0.041,-0.031l-0.043,-0.03l-0.042,-0.03l-0.042,-0.03l-0.042,-0.029l-0.043,-0.03l-0.043,-0.029l-0.043,-0.029l-0.043,-0.028l-0.043,-0.028l-0.043,-0.028l-0.044,-0.028l-0.044,-0.027l-0.044,-0.028l-0.044,-0.027l-0.044,-0.026l-0.044,-0.026l-0.045,-0.027l-0.045,-0.025l-0.044,-0.026l-0.045,-0.025l-0.046,-0.025l-0.045,-0.025l-0.045,-0.024l-0.046,-0.025l-0.046,-0.024l-0.045,-0.023l-0.046,-0.024l-0.047,-0.023l-0.046,-0.023l-0.046,-0.022l-0.047,-0.022l-0.047,-0.022l-0.047,-0.022l-0.046,-0.022l-0.047,-0.021l-0.048,-0.021l-0.047,-0.02l-0.047,-0.021l-0.048,-0.02l-0.047,-0.019l-0.048,-0.02l-0.048,-0.019l-0.048,-0.019l-0.048,-0.019l-0.048,-0.018l-0.049,-0.018l-0.048,-0.018l-0.049,-0.017l-0.049,-0.017l-0.049,-0.017l-0.048,-0.017l-0.049,-0.016l-0.05,-0.016l-0.048,-0.016l-0.05,-0.015l-0.049,-0.015l-0.05,-0.015l-0.049,-0.015l-0.05,-0.014l-0.05,-0.014l-0.05,-0.014l-0.05,-0.013l-0.049,-0.013l-0.051,-0.013l-0.05,-0.012l-0.05,-0.012l-0.051,-0.012l-0.05,-0.012l-0.051,-0.011l-0.05,-0.011l-0.051,-0.011l-0.051,-0.01l-0.051,-0.01l-0.051,-0.01l-0.05,-0.009l-0.051,-0.009l-0.052,-0.009l-0.051,-0.009l-0.051,-0.008l-0.051,-0.008l-0.051,-0.007l-0.052,-0.008l-0.052,-0.007l-0.051,-0.006l-0.052,-0.007l-0.052,-0.006l-0.051,-0.005l-0.052,-0.006l-0.052,-0.005l-0.052,-0.005l-0.051,-0.004l-0.052,-0.004l-0.053,-0.004l-0.052,-0.004l-0.052,-0.003l-0.052,-0.003l-0.052,-0.002l-0.052,-0.003l-0.053,-0.001l-0.052,-0.002l-0.052,-0.001l-0.053,-0.001l-0.052,-0.001l-0.052,0l-0.053,0Z" style="fill:#c8e6c9;"/><path d="M258.95,165.949c-4.317,0 -8.361,-2.682 -9.89,-6.982l-44.743,-125.766c-1.945,-5.462 0.908,-11.466 6.371,-13.409c5.46,-1.946 11.466,0.908 13.409,6.372l44.743,125.765c1.944,5.463 -0.908,11.466 -6.371,13.41c-1.163,0.414 -2.351,0.61 -3.519,0.61" style="fill:#424242;fill-rule:nonzero;"/><path d="M214.319,17.272l0.076,0.001l0.075,0.001l0.076,0.002l0.076,0.003l0.076,0.002l0.075,0.004l0.076,0.003l0.075,0.005l0.076,0.004l0.075,0.005l0.075,0.006l0.075,0.006l0.076,0.006l0.075,0.007l0.075,0.008l0.074,0.007l0.076,0.009l0.074,0.008l0.075,0.01l0.075,0.009l0.074,0.01l0.074,0.011l0.075,0.011l0.074,0.011l0.074,0.012l0.074,0.012l0.074,0.013l0.074,0.013l0.073,0.014l0.074,0.014l0.073,0.015l0.074,0.014l0.073,0.016l0.073,0.016l0.073,0.016l0.073,0.017l0.073,0.017l0.072,0.017l0.073,0.018l0.072,0.019l0.072,0.019l0.073,0.019l0.071,0.02l0.072,0.02l0.072,0.02l0.072,0.021l0.071,0.022l0.071,0.021l0.071,0.023l0.071,0.022l0.071,0.023l0.071,0.024l0.07,0.024l0.071,0.024l0.07,0.025l0.07,0.025l0.07,0.026l0.069,0.026l0.07,0.026l0.07,0.027l0.069,0.027l0.069,0.028l0.069,0.028l0.068,0.029l0.069,0.029l0.068,0.029l0.068,0.03l0.068,0.03l0.068,0.03l0.068,0.031l0.067,0.031l0.067,0.032l0.068,0.032l0.067,0.033l0.066,0.033l0.066,0.033l0.067,0.033l0.066,0.035l0.066,0.034l0.065,0.035l0.066,0.035l0.065,0.036l0.065,0.036l0.065,0.036l0.065,0.037l0.064,0.038l0.064,0.037l0.064,0.038l0.064,0.039l0.064,0.039l0.063,0.039l0.063,0.039l0.063,0.04l0.063,0.041l0.062,0.04l0.062,0.041l0.062,0.042l0.062,0.042l0.061,0.042l0.061,0.042l0.062,0.043l0.06,0.044l0.06,0.043l0.061,0.044l0.06,0.045l0.06,0.045l0.059,0.045l0.059,0.045l0.06,0.047l0.058,0.046l0.058,0.046l0.059,0.048l0.058,0.047l0.057,0.048l0.058,0.048l0.057,0.048l0.056,0.049l0.057,0.05l0.056,0.049l0.056,0.05l0.056,0.051l0.055,0.05l0.056,0.051l0.055,0.052l0.054,0.051l0.055,0.053l0.054,0.052l0.053,0.053l0.053,0.053l0.053,0.053l0.053,0.054l0.053,0.054l0.052,0.055l0.052,0.055l0.051,0.055l0.052,0.055l0.051,0.057l0.05,0.056l0.051,0.056l0.05,0.057l0.049,0.057l0.05,0.058l0.049,0.058l0.048,0.058l0.049,0.059l0.048,0.059l0.047,0.059l0.048,0.06l0.047,0.06l0.046,0.06l0.047,0.061l0.046,0.061l0.046,0.061l0.045,0.062l0.045,0.062l0.044,0.062l0.045,0.063l0.044,0.063l0.043,0.063l0.043,0.063l0.043,0.064l0.042,0.064l0.042,0.065l0.042,0.065l0.042,0.065l0.04,0.065l0.041,0.066l0.04,0.066l0.04,0.066l0.039,0.067l0.04,0.067l0.038,0.067l0.039,0.068l0.037,0.068l0.038,0.068l0.037,0.069l0.037,0.068l0.036,0.069l0.036,0.07l0.035,0.069l0.036,0.071l0.034,0.07l0.035,0.07l0.033,0.071l0.034,0.071l0.033,0.072l0.033,0.072l0.032,0.072l0.032,0.072l0.031,0.072l0.031,0.073l0.03,0.073l0.031,0.074l0.029,0.074l0.029,0.073l0.029,0.075l0.029,0.074l0.028,0.075l0.027,0.075l0.026,0.072l44.745,125.771l0.026,0.073l0.025,0.074l0.026,0.076l0.025,0.077l0.025,0.075l0.024,0.075l0.023,0.076l0.023,0.077l0.023,0.076l0.022,0.075l0.021,0.076l0.021,0.076l0.021,0.076l0.02,0.077l0.019,0.076l0.019,0.076l0.019,0.077l0.018,0.075l0.017,0.077l0.017,0.077l0.017,0.076l0.016,0.077l0.015,0.076l0.015,0.076l0.015,0.077l0.014,0.077l0.013,0.077l0.013,0.076l0.012,0.076l0.013,0.077l0.011,0.077l0.011,0.076l0.011,0.076l0.01,0.078l0.009,0.076l0.009,0.076l0.009,0.076l0.008,0.078l0.008,0.076l0.007,0.077l0.007,0.076l0.006,0.076l0.006,0.078l0.005,0.076l0.004,0.075l0.005,0.078l0.004,0.076l0.003,0.076l0.003,0.077l0.002,0.075l0.002,0.077l0.001,0.076l0.001,0.076l0.001,0.076l0,0.076l-0.001,0.076l0,0.077l-0.002,0.074l-0.002,0.077l-0.002,0.076l-0.003,0.075l-0.003,0.076l-0.004,0.076l-0.004,0.075l-0.005,0.076l-0.005,0.076l-0.005,0.074l-0.006,0.076l-0.007,0.075l-0.007,0.075l-0.007,0.075l-0.008,0.074l-0.008,0.075l-0.009,0.076l-0.009,0.074l-0.01,0.074l-0.01,0.075l-0.01,0.074l-0.011,0.075l-0.012,0.074l-0.011,0.074l-0.013,0.074l-0.013,0.074l-0.013,0.074l-0.013,0.073l-0.014,0.074l-0.015,0.073l-0.015,0.074l-0.015,0.073l-0.016,0.073l-0.016,0.072l-0.017,0.074l-0.017,0.073l-0.018,0.072l-0.018,0.073l-0.018,0.072l-0.019,0.073l-0.019,0.071l-0.02,0.072l-0.02,0.072l-0.021,0.072l-0.021,0.072l-0.021,0.071l-0.022,0.07l-0.022,0.072l-0.023,0.072l-0.023,0.07l-0.023,0.07l-0.024,0.071l-0.025,0.071l-0.024,0.07l-0.026,0.07l-0.025,0.069l-0.026,0.07l-0.027,0.07l-0.027,0.07l-0.027,0.068l-0.027,0.069l-0.028,0.069l-0.029,0.069l-0.029,0.069l-0.029,0.068l-0.03,0.068l-0.03,0.068l-0.03,0.068l-0.031,0.067l-0.031,0.067l-0.032,0.068l-0.032,0.067l-0.033,0.067l-0.033,0.067l-0.033,0.066l-0.034,0.066l-0.034,0.066l-0.034,0.066l-0.035,0.066l-0.036,0.066l-0.035,0.065l-0.036,0.065l-0.037,0.065l-0.036,0.064l-0.038,0.065l-0.037,0.064l-0.038,0.064l-0.038,0.063l-0.039,0.064l-0.04,0.064l-0.039,0.063l-0.04,0.062l-0.04,0.063l-0.041,0.063l-0.041,0.062l-0.041,0.061l-0.042,0.062l-0.043,0.062l-0.042,0.061l-0.043,0.061l-0.043,0.06l-0.044,0.061l-0.044,0.061l-0.045,0.06l-0.045,0.059l-0.045,0.06l-0.045,0.058l-0.046,0.06l-0.047,0.059l-0.046,0.058l-0.047,0.058l-0.048,0.058l-0.048,0.058l-0.047,0.057l-0.049,0.057l-0.049,0.057l-0.049,0.056l-0.05,0.057l-0.05,0.056l-0.05,0.055l-0.051,0.056l-0.051,0.055l-0.051,0.055l-0.052,0.054l-0.052,0.055l-0.052,0.054l-0.053,0.054l-0.053,0.053l-0.053,0.053l-0.054,0.052l-0.055,0.054l-0.055,0.052l-0.054,0.051l-0.055,0.052l-0.056,0.051l-0.056,0.051l-0.056,0.051l-0.056,0.05l-0.058,0.05l-0.057,0.05l-0.058,0.049l-0.057,0.049l-0.058,0.049l-0.059,0.048l-0.059,0.048l-0.059,0.048l-0.06,0.047l-0.06,0.047l-0.061,0.047l-0.06,0.046l-0.061,0.046l-0.061,0.046l-0.062,0.045l-0.062,0.045l-0.062,0.045l-0.063,0.044l-0.062,0.043l-0.064,0.044l-0.064,0.044l-0.063,0.042l-0.064,0.043l-0.065,0.042l-0.064,0.041l-0.066,0.042l-0.065,0.041l-0.065,0.04l-0.067,0.041l-0.067,0.04l-0.066,0.039l-0.067,0.039l-0.068,0.039l-0.067,0.038l-0.067,0.038l-0.069,0.037l-0.068,0.037l-0.069,0.037l-0.069,0.036l-0.069,0.036l-0.07,0.036l-0.07,0.035l-0.071,0.035l-0.07,0.034l-0.071,0.034l-0.071,0.033l-0.072,0.034l-0.071,0.032l-0.072,0.032l-0.072,0.032l-0.073,0.031l-0.073,0.031l-0.072,0.031l-0.074,0.03l-0.074,0.03l-0.074,0.029l-0.074,0.029l-0.074,0.028l-0.075,0.028l-0.075,0.027l-0.075,0.028l-0.064,0.022l-0.064,0.022l-0.065,0.023l-0.064,0.021l-0.065,0.021l-0.065,0.021l-0.064,0.021l-0.065,0.02l-0.064,0.019l-0.065,0.02l-0.065,0.019l-0.064,0.018l-0.065,0.018l-0.065,0.018l-0.065,0.018l-0.065,0.017l-0.064,0.017l-0.066,0.016l-0.065,0.016l-0.065,0.016l-0.065,0.015l-0.065,0.015l-0.065,0.015l-0.065,0.014l-0.066,0.014l-0.064,0.013l-0.066,0.014l-0.065,0.012l-0.065,0.013l-0.065,0.012l-0.066,0.012l-0.065,0.011l-0.064,0.011l-0.066,0.011l-0.066,0.01l-0.065,0.01l-0.065,0.009l-0.065,0.009l-0.065,0.009l-0.066,0.009l-0.065,0.008l-0.065,0.008l-0.065,0.007l-0.065,0.007l-0.065,0.007l-0.066,0.006l-0.065,0.006l-0.065,0.006l-0.065,0.005l-0.066,0.006l-0.065,0.004l-0.065,0.004l-0.065,0.004l-0.065,0.004l-0.065,0.003l-0.065,0.003l-0.065,0.003l-0.065,0.002l-0.065,0.002l-0.065,0.001l-0.065,0.002l-0.065,0l-0.064,0.001l-0.065,0l-0.06,0l-0.06,-0.001l-0.059,0l-0.06,-0.001l-0.06,-0.002l-0.06,-0.001l-0.059,-0.002l-0.06,-0.002l-0.06,-0.003l-0.059,-0.002l-0.06,-0.003l-0.059,-0.004l-0.059,-0.003l-0.06,-0.004l-0.059,-0.004l-0.059,-0.005l-0.059,-0.005l-0.059,-0.005l-0.06,-0.005l-0.059,-0.005l-0.059,-0.006l-0.059,-0.006l-0.059,-0.007l-0.058,-0.007l-0.059,-0.007l-0.059,-0.007l-0.059,-0.007l-0.059,-0.008l-0.058,-0.008l-0.058,-0.009l-0.059,-0.008l-0.058,-0.009l-0.059,-0.009l-0.058,-0.01l-0.058,-0.01l-0.058,-0.01l-0.059,-0.01l-0.058,-0.011l-0.058,-0.01l-0.057,-0.011l-0.058,-0.012l-0.058,-0.011l-0.058,-0.012l-0.058,-0.013l-0.057,-0.012l-0.057,-0.013l-0.058,-0.013l-0.057,-0.013l-0.057,-0.014l-0.057,-0.013l-0.057,-0.014l-0.057,-0.015l-0.057,-0.014l-0.057,-0.015l-0.057,-0.016l-0.057,-0.015l-0.056,-0.016l-0.056,-0.015l-0.057,-0.017l-0.056,-0.016l-0.056,-0.017l-0.057,-0.017l-0.056,-0.017l-0.056,-0.018l-0.056,-0.017l-0.056,-0.018l-0.055,-0.019l-0.056,-0.018l-0.055,-0.019l-0.055,-0.019l-0.056,-0.019l-0.055,-0.02l-0.056,-0.02l-0.054,-0.02l-0.055,-0.02l-0.055,-0.021l-0.055,-0.021l-0.055,-0.021l-0.054,-0.021l-0.054,-0.022l-0.054,-0.022l-0.055,-0.022l-0.054,-0.022l-0.054,-0.023l-0.054,-0.023l-0.054,-0.023l-0.053,-0.023l-0.053,-0.024l-0.054,-0.024l-0.053,-0.024l-0.054,-0.025l-0.053,-0.024l-0.052,-0.025l-0.053,-0.025l-0.053,-0.026l-0.052,-0.025l-0.053,-0.026l-0.052,-0.026l-0.053,-0.027l-0.052,-0.026l-0.052,-0.027l-0.052,-0.027l-0.051,-0.028l-0.052,-0.027l-0.052,-0.028l-0.051,-0.028l-0.051,-0.028l-0.051,-0.029l-0.051,-0.029l-0.051,-0.029l-0.051,-0.029l-0.05,-0.03l-0.05,-0.029l-0.051,-0.031l-0.05,-0.03l-0.05,-0.03l-0.05,-0.031l-0.05,-0.031l-0.049,-0.031l-0.05,-0.032l-0.049,-0.031l-0.049,-0.032l-0.049,-0.032l-0.049,-0.033l-0.049,-0.032l-0.049,-0.033l-0.048,-0.033l-0.048,-0.033l-0.048,-0.034l-0.049,-0.034l-0.047,-0.034l-0.048,-0.034l-0.047,-0.035l-0.048,-0.035l-0.048,-0.035l-0.046,-0.035l-0.047,-0.035l-0.047,-0.036l-0.046,-0.036l-0.047,-0.036l-0.046,-0.036l-0.046,-0.037l-0.046,-0.036l-0.046,-0.037l-0.046,-0.038l-0.045,-0.037l-0.045,-0.038l-0.046,-0.038l-0.044,-0.038l-0.046,-0.038l-0.044,-0.039l-0.044,-0.038l-0.045,-0.04l-0.044,-0.039l-0.044,-0.04l-0.044,-0.039l-0.043,-0.04l-0.043,-0.04l-0.043,-0.04l-0.044,-0.041l-0.043,-0.041l-0.042,-0.041l-0.043,-0.041l-0.042,-0.042l-0.043,-0.042l-0.041,-0.041l-0.042,-0.042l-0.042,-0.043l-0.041,-0.043l-0.041,-0.042l-0.041,-0.043l-0.041,-0.043l-0.041,-0.044l-0.04,-0.043l-0.04,-0.044l-0.04,-0.044l-0.04,-0.044l-0.04,-0.045l-0.039,-0.045l-0.039,-0.044l-0.04,-0.045l-0.039,-0.046l-0.038,-0.045l-0.039,-0.046l-0.038,-0.046l-0.038,-0.046l-0.038,-0.047l-0.038,-0.046l-0.037,-0.047l-0.037,-0.047l-0.037,-0.047l-0.037,-0.047l-0.036,-0.048l-0.037,-0.048l-0.036,-0.048l-0.036,-0.048l-0.036,-0.049l-0.035,-0.048l-0.035,-0.048l-0.036,-0.05l-0.035,-0.049l-0.034,-0.05l-0.035,-0.049l-0.034,-0.05l-0.034,-0.05l-0.033,-0.05l-0.034,-0.051l-0.033,-0.05l-0.033,-0.051l-0.033,-0.051l-0.033,-0.051l-0.032,-0.051l-0.032,-0.052l-0.032,-0.052l-0.032,-0.052l-0.031,-0.052l-0.031,-0.052l-0.032,-0.053l-0.031,-0.053l-0.03,-0.052l-0.03,-0.053l-0.03,-0.054l-0.03,-0.053l-0.029,-0.053l-0.03,-0.055l-0.029,-0.054l-0.029,-0.054l-0.028,-0.054l-0.028,-0.054l-0.029,-0.056l-0.027,-0.054l-0.028,-0.055l-0.027,-0.056l-0.027,-0.056l-0.027,-0.055l-0.026,-0.056l-0.027,-0.056l-0.026,-0.056l-0.025,-0.056l-0.026,-0.057l-0.025,-0.057l-0.025,-0.057l-0.025,-0.056l-0.025,-0.058l-0.024,-0.058l-0.024,-0.057l-0.023,-0.057l-0.024,-0.058l-0.023,-0.059l-0.023,-0.058l-0.022,-0.058l-0.023,-0.059l-0.022,-0.059l-0.022,-0.059l-0.021,-0.059l-0.02,-0.056l-44.745,-125.771l-0.026,-0.073l-0.026,-0.075l-0.025,-0.075l-0.025,-0.076l-0.025,-0.076l-0.024,-0.076l-0.024,-0.076l-0.023,-0.076l-0.022,-0.076l-0.022,-0.076l-0.021,-0.075l-0.022,-0.077l-0.02,-0.076l-0.02,-0.076l-0.02,-0.076l-0.018,-0.077l-0.019,-0.076l-0.018,-0.076l-0.017,-0.077l-0.017,-0.076l-0.017,-0.076l-0.016,-0.077l-0.015,-0.076l-0.016,-0.077l-0.014,-0.077l-0.014,-0.076l-0.013,-0.076l-0.014,-0.077l-0.012,-0.077l-0.012,-0.076l-0.012,-0.077l-0.011,-0.077l-0.01,-0.076l-0.01,-0.076l-0.01,-0.077l-0.009,-0.077l-0.009,-0.076l-0.008,-0.077l-0.007,-0.077l-0.008,-0.076l-0.006,-0.076l-0.006,-0.077l-0.006,-0.077l-0.005,-0.076l-0.005,-0.077l-0.004,-0.076l-0.004,-0.076l-0.004,-0.077l-0.002,-0.076l-0.003,-0.076l-0.002,-0.076l-0.001,-0.077l-0.001,-0.075l-0.001,-0.077l0,-0.076l0.001,-0.076l0.001,-0.076l0.001,-0.075l0.002,-0.076l0.002,-0.076l0.003,-0.076l0.003,-0.076l0.004,-0.075l0.004,-0.075l0.005,-0.076l0.005,-0.076l0.006,-0.075l0.006,-0.075l0.006,-0.075l0.007,-0.075l0.007,-0.076l0.008,-0.074l0.008,-0.075l0.009,-0.075l0.009,-0.074l0.01,-0.075l0.01,-0.075l0.011,-0.074l0.011,-0.074l0.011,-0.074l0.012,-0.075l0.012,-0.073l0.013,-0.074l0.013,-0.074l0.014,-0.074l0.014,-0.073l0.014,-0.074l0.015,-0.073l0.016,-0.073l0.015,-0.074l0.017,-0.073l0.016,-0.072l0.017,-0.073l0.018,-0.073l0.018,-0.072l0.018,-0.073l0.019,-0.072l0.02,-0.072l0.019,-0.072l0.02,-0.072l0.021,-0.071l0.021,-0.072l0.021,-0.071l0.022,-0.071l0.023,-0.072l0.022,-0.071l0.023,-0.07l0.024,-0.071l0.024,-0.07l0.024,-0.071l0.025,-0.07l0.025,-0.07l0.026,-0.07l0.026,-0.07l0.026,-0.069l0.027,-0.07l0.027,-0.069l0.028,-0.069l0.028,-0.069l0.028,-0.069l0.029,-0.068l0.029,-0.068l0.03,-0.068l0.03,-0.069l0.031,-0.067l0.031,-0.068l0.031,-0.067l0.032,-0.068l0.032,-0.067l0.032,-0.067l0.033,-0.066l0.033,-0.067l0.034,-0.066l0.034,-0.066l0.035,-0.066l0.035,-0.066l0.035,-0.065l0.036,-0.065l0.036,-0.065l0.036,-0.065l0.037,-0.065l0.037,-0.065l0.038,-0.063l0.038,-0.064l0.038,-0.064l0.039,-0.064l0.039,-0.063l0.04,-0.063l0.04,-0.063l0.04,-0.063l0.041,-0.062l0.041,-0.062l0.041,-0.062l0.042,-0.062l0.042,-0.062l0.043,-0.061l0.042,-0.06l0.044,-0.061l0.044,-0.061l0.044,-0.06l0.044,-0.06l0.045,-0.06l0.045,-0.059l0.046,-0.059l0.046,-0.059l0.046,-0.059l0.047,-0.059l0.047,-0.058l0.047,-0.058l0.048,-0.057l0.048,-0.058l0.049,-0.057l0.048,-0.056l0.05,-0.057l0.049,-0.056l0.051,-0.057l0.05,-0.055l0.05,-0.055l0.051,-0.056l0.052,-0.054l0.051,-0.055l0.053,-0.054l0.052,-0.054l0.053,-0.054l0.053,-0.054l0.054,-0.053l0.053,-0.052l0.054,-0.053l0.055,-0.052l0.055,-0.052l0.055,-0.052l0.056,-0.051l0.055,-0.05l0.057,-0.051l0.057,-0.051l0.056,-0.049l0.057,-0.05l0.058,-0.049l0.058,-0.05l0.059,-0.048l0.058,-0.048l0.059,-0.049l0.06,-0.047l0.059,-0.047l0.06,-0.048l0.06,-0.046l0.061,-0.047l0.061,-0.046l0.061,-0.045l0.062,-0.046l0.062,-0.045l0.062,-0.044l0.062,-0.044l0.063,-0.044l0.064,-0.044l0.063,-0.043l0.064,-0.043l0.064,-0.042l0.064,-0.042l0.066,-0.042l0.065,-0.041l0.065,-0.041l0.065,-0.041l0.067,-0.04l0.066,-0.04l0.067,-0.039l0.067,-0.039l0.067,-0.039l0.068,-0.038l0.068,-0.038l0.068,-0.038l0.068,-0.037l0.069,-0.036l0.069,-0.037l0.069,-0.035l0.07,-0.036l0.07,-0.035l0.07,-0.035l0.071,-0.034l0.071,-0.034l0.071,-0.033l0.071,-0.034l0.072,-0.032l0.072,-0.032l0.072,-0.032l0.073,-0.032l0.073,-0.031l0.073,-0.03l0.073,-0.03l0.074,-0.03l0.074,-0.029l0.074,-0.029l0.074,-0.028l0.075,-0.028l0.075,-0.028l0.075,-0.026l0.074,-0.027l0.076,-0.026l0.076,-0.026l0.075,-0.025l0.076,-0.024l0.076,-0.024l0.076,-0.024l0.076,-0.023l0.075,-0.022l0.076,-0.022l0.076,-0.022l0.077,-0.021l0.075,-0.02l0.077,-0.02l0.076,-0.02l0.076,-0.019l0.076,-0.018l0.077,-0.019l0.076,-0.017l0.076,-0.017l0.077,-0.016l0.077,-0.016l0.076,-0.016l0.077,-0.015l0.076,-0.015l0.077,-0.013l0.076,-0.014l0.077,-0.013l0.077,-0.013l0.076,-0.012l0.076,-0.011l0.077,-0.011l0.077,-0.011l0.077,-0.01l0.076,-0.009l0.076,-0.01l0.077,-0.008l0.077,-0.008l0.076,-0.008l0.076,-0.007l0.077,-0.007l0.077,-0.006l0.076,-0.006l0.077,-0.005l0.076,-0.005l0.076,-0.004l0.077,-0.004l0.076,-0.003l0.076,-0.003l0.076,-0.002l0.077,-0.002l0.076,-0.002l0.076,-0.001l0.076,0l0.076,0l0.077,0Zm-0.14,3.817l-0.052,0l-0.053,0.001l-0.053,0.001l-0.052,0.001l-0.053,0.002l-0.053,0.002l-0.052,0.002l-0.052,0.003l-0.053,0.003l-0.053,0.003l-0.053,0.003l-0.053,0.004l-0.052,0.005l-0.053,0.004l-0.053,0.005l-0.053,0.006l-0.053,0.005l-0.052,0.006l-0.053,0.006l-0.054,0.007l-0.053,0.007l-0.052,0.007l-0.053,0.008l-0.053,0.008l-0.053,0.008l-0.053,0.009l-0.052,0.009l-0.053,0.009l-0.054,0.01l-0.052,0.01l-0.053,0.01l-0.053,0.011l-0.053,0.011l-0.053,0.011l-0.053,0.012l-0.053,0.012l-0.052,0.013l-0.053,0.013l-0.054,0.013l-0.052,0.013l-0.053,0.014l-0.053,0.015l-0.053,0.014l-0.052,0.015l-0.053,0.015l-0.053,0.016l-0.053,0.016l-0.052,0.016l-0.053,0.017l-0.053,0.017l-0.053,0.018l-0.052,0.017l-0.053,0.019l-0.053,0.018l-0.053,0.02l-0.052,0.019l-0.052,0.019l-0.052,0.02l-0.052,0.02l-0.052,0.02l-0.051,0.021l-0.051,0.021l-0.051,0.021l-0.05,0.022l-0.05,0.021l-0.051,0.023l-0.05,0.022l-0.05,0.023l-0.049,0.022l-0.049,0.024l-0.05,0.023l-0.048,0.024l-0.049,0.024l-0.048,0.024l-0.049,0.025l-0.048,0.025l-0.047,0.025l-0.048,0.025l-0.048,0.026l-0.047,0.026l-0.047,0.026l-0.046,0.027l-0.047,0.026l-0.046,0.027l-0.046,0.028l-0.046,0.027l-0.045,0.028l-0.046,0.028l-0.045,0.028l-0.045,0.029l-0.045,0.028l-0.044,0.029l-0.045,0.03l-0.044,0.029l-0.044,0.03l-0.043,0.03l-0.044,0.03l-0.043,0.031l-0.043,0.031l-0.043,0.031l-0.042,0.031l-0.042,0.031l-0.043,0.032l-0.041,0.032l-0.042,0.032l-0.041,0.033l-0.042,0.033l-0.041,0.033l-0.04,0.032l-0.041,0.034l-0.04,0.034l-0.04,0.033l-0.04,0.034l-0.039,0.035l-0.04,0.034l-0.039,0.035l-0.039,0.035l-0.038,0.035l-0.039,0.036l-0.038,0.035l-0.038,0.036l-0.037,0.036l-0.038,0.036l-0.037,0.037l-0.037,0.037l-0.037,0.036l-0.036,0.037l-0.036,0.038l-0.036,0.037l-0.036,0.038l-0.036,0.038l-0.035,0.038l-0.035,0.039l-0.035,0.038l-0.034,0.039l-0.035,0.039l-0.034,0.039l-0.034,0.039l-0.033,0.04l-0.033,0.039l-0.034,0.04l-0.032,0.041l-0.033,0.04l-0.032,0.04l-0.032,0.041l-0.032,0.04l-0.032,0.042l-0.031,0.041l-0.031,0.041l-0.031,0.042l-0.03,0.042l-0.031,0.041l-0.029,0.042l-0.031,0.043l-0.029,0.042l-0.029,0.043l-0.029,0.042l-0.029,0.044l-0.029,0.043l-0.028,0.043l-0.028,0.043l-0.027,0.044l-0.028,0.044l-0.027,0.044l-0.027,0.043l-0.026,0.045l-0.027,0.044l-0.026,0.045l-0.026,0.045l-0.025,0.044l-0.026,0.045l-0.025,0.045l-0.024,0.046l-0.025,0.045l-0.024,0.045l-0.024,0.047l-0.024,0.045l-0.023,0.046l-0.023,0.046l-0.023,0.047l-0.022,0.046l-0.023,0.046l-0.022,0.047l-0.021,0.047l-0.022,0.047l-0.021,0.047l-0.021,0.047l-0.021,0.047l-0.02,0.048l-0.02,0.047l-0.02,0.048l-0.019,0.048l-0.019,0.048l-0.019,0.048l-0.019,0.048l-0.018,0.048l-0.018,0.049l-0.018,0.048l-0.017,0.048l-0.018,0.049l-0.016,0.049l-0.017,0.049l-0.016,0.049l-0.016,0.049l-0.016,0.05l-0.015,0.048l-0.016,0.05l-0.015,0.049l-0.014,0.05l-0.014,0.05l-0.014,0.049l-0.014,0.05l-0.013,0.05l-0.013,0.05l-0.013,0.05l-0.013,0.051l-0.012,0.05l-0.012,0.05l-0.011,0.051l-0.011,0.05l-0.011,0.051l-0.011,0.051l-0.01,0.05l-0.01,0.051l-0.01,0.051l-0.01,0.051l-0.009,0.051l-0.008,0.051l-0.009,0.051l-0.008,0.052l-0.008,0.051l-0.008,0.051l-0.007,0.052l-0.007,0.051l-0.007,0.051l-0.006,0.052l-0.006,0.052l-0.006,0.052l-0.005,0.052l-0.005,0.051l-0.005,0.052l-0.004,0.052l-0.005,0.052l-0.003,0.052l-0.004,0.052l-0.003,0.052l-0.003,0.052l-0.003,0.053l-0.002,0.052l-0.002,0.052l-0.001,0.052l-0.002,0.053l-0.001,0.052l0,0.053l-0.001,0.052l0,0.052l0.001,0.053l0,0.053l0.001,0.052l0.002,0.053l0.001,0.052l0.002,0.053l0.003,0.053l0.002,0.053l0.003,0.053l0.004,0.052l0.003,0.053l0.004,0.052l0.004,0.053l0.005,0.053l0.005,0.053l0.005,0.053l0.006,0.053l0.006,0.053l0.006,0.053l0.007,0.052l0.007,0.053l0.007,0.053l0.008,0.053l0.008,0.053l0.008,0.053l0.009,0.053l0.009,0.053l0.009,0.053l0.01,0.053l0.01,0.053l0.01,0.052l0.011,0.054l0.011,0.052l0.011,0.053l0.012,0.053l0.012,0.053l0.013,0.053l0.012,0.053l0.014,0.053l0.013,0.052l0.014,0.054l0.014,0.052l0.015,0.053l0.015,0.053l0.015,0.053l0.016,0.053l0.016,0.053l0.016,0.052l0.017,0.053l0.017,0.052l0.017,0.053l0.018,0.053l0.018,0.053l0.02,0.055l44.741,125.761l0.016,0.044l0.015,0.042l0.015,0.041l0.015,0.041l0.016,0.041l0.016,0.041l0.016,0.04l0.016,0.04l0.016,0.04l0.017,0.041l0.016,0.04l0.017,0.04l0.017,0.039l0.017,0.04l0.018,0.04l0.017,0.039l0.018,0.039l0.018,0.039l0.018,0.039l0.018,0.039l0.018,0.039l0.019,0.039l0.019,0.038l0.019,0.038l0.019,0.038l0.019,0.039l0.019,0.037l0.02,0.038l0.02,0.038l0.02,0.037l0.02,0.038l0.02,0.037l0.02,0.037l0.021,0.037l0.021,0.037l0.021,0.037l0.021,0.036l0.021,0.037l0.021,0.035l0.022,0.037l0.022,0.036l0.022,0.036l0.022,0.036l0.022,0.035l0.022,0.036l0.023,0.035l0.022,0.035l0.023,0.035l0.023,0.035l0.023,0.035l0.024,0.035l0.023,0.034l0.024,0.035l0.023,0.034l0.024,0.034l0.025,0.034l0.023,0.033l0.025,0.034l0.025,0.034l0.024,0.033l0.025,0.034l0.025,0.033l0.025,0.033l0.025,0.032l0.026,0.033l0.025,0.033l0.026,0.032l0.026,0.033l0.026,0.032l0.026,0.032l0.026,0.031l0.026,0.032l0.027,0.032l0.027,0.031l0.027,0.031l0.026,0.031l0.028,0.032l0.027,0.031l0.027,0.03l0.028,0.031l0.027,0.03l0.028,0.03l0.028,0.031l0.028,0.03l0.029,0.029l0.028,0.03l0.029,0.03l0.028,0.029l0.028,0.029l0.029,0.029l0.03,0.03l0.029,0.028l0.029,0.029l0.029,0.028l0.03,0.029l0.029,0.028l0.03,0.028l0.03,0.028l0.03,0.028l0.03,0.027l0.031,0.028l0.03,0.027l0.03,0.027l0.031,0.027l0.031,0.027l0.031,0.027l0.03,0.026l0.032,0.027l0.031,0.026l0.031,0.026l0.032,0.026l0.031,0.026l0.032,0.025l0.032,0.026l0.032,0.025l0.032,0.025l0.032,0.025l0.032,0.025l0.032,0.025l0.033,0.024l0.033,0.025l0.033,0.024l0.032,0.024l0.033,0.024l0.033,0.024l0.034,0.023l0.033,0.023l0.033,0.024l0.034,0.023l0.033,0.023l0.034,0.023l0.034,0.022l0.033,0.023l0.035,0.022l0.034,0.022l0.033,0.022l0.035,0.022l0.034,0.021l0.035,0.022l0.035,0.021l0.034,0.022l0.035,0.02l0.035,0.021l0.035,0.021l0.035,0.02l0.035,0.021l0.035,0.02l0.036,0.02l0.035,0.02l0.036,0.019l0.036,0.02l0.035,0.019l0.036,0.019l0.036,0.019l0.036,0.019l0.036,0.019l0.036,0.018l0.036,0.018l0.036,0.018l0.037,0.019l0.036,0.017l0.037,0.018l0.037,0.017l0.037,0.018l0.036,0.017l0.037,0.017l0.037,0.017l0.037,0.016l0.037,0.016l0.038,0.017l0.037,0.016l0.037,0.016l0.038,0.015l0.038,0.016l0.037,0.015l0.037,0.015l0.038,0.015l0.038,0.015l0.038,0.015l0.038,0.014l0.038,0.015l0.038,0.014l0.038,0.014l0.039,0.014l0.037,0.013l0.039,0.013l0.039,0.014l0.038,0.013l0.038,0.013l0.039,0.012l0.039,0.013l0.039,0.012l0.038,0.012l0.039,0.012l0.039,0.012l0.039,0.012l0.039,0.011l0.039,0.011l0.039,0.011l0.04,0.011l0.039,0.011l0.04,0.01l0.039,0.011l0.039,0.01l0.039,0.01l0.04,0.01l0.04,0.009l0.039,0.009l0.04,0.01l0.039,0.009l0.04,0.008l0.041,0.009l0.039,0.009l0.04,0.008l0.04,0.008l0.04,0.008l0.04,0.007l0.041,0.008l0.04,0.007l0.039,0.007l0.041,0.007l0.04,0.007l0.04,0.007l0.041,0.006l0.04,0.006l0.041,0.006l0.04,0.006l0.041,0.006l0.04,0.005l0.041,0.005l0.04,0.005l0.041,0.005l0.041,0.005l0.041,0.004l0.04,0.004l0.041,0.004l0.041,0.004l0.041,0.004l0.041,0.003l0.041,0.004l0.04,0.003l0.041,0.002l0.042,0.003l0.041,0.003l0.041,0.002l0.041,0.002l0.041,0.002l0.041,0.002l0.041,0.001l0.041,0.001l0.042,0.002l0.041,0l0.041,0.001l0.042,0.001l0.041,0l0.041,0l0.044,0l0.046,0l0.044,-0.001l0.045,-0.001l0.045,-0.001l0.045,-0.001l0.045,-0.002l0.044,-0.002l0.045,-0.002l0.045,-0.002l0.045,-0.002l0.045,-0.003l0.046,-0.003l0.045,-0.003l0.044,-0.004l0.045,-0.003l0.045,-0.004l0.045,-0.004l0.045,-0.005l0.045,-0.004l0.045,-0.005l0.046,-0.005l0.044,-0.006l0.046,-0.006l0.044,-0.005l0.045,-0.006l0.046,-0.007l0.045,-0.006l0.045,-0.007l0.045,-0.007l0.045,-0.008l0.045,-0.007l0.046,-0.008l0.044,-0.008l0.045,-0.009l0.045,-0.008l0.046,-0.009l0.045,-0.009l0.045,-0.01l0.045,-0.009l0.045,-0.01l0.045,-0.01l0.045,-0.01l0.045,-0.011l0.046,-0.011l0.044,-0.011l0.045,-0.011l0.046,-0.012l0.044,-0.012l0.045,-0.012l0.045,-0.012l0.045,-0.013l0.045,-0.013l0.045,-0.013l0.045,-0.014l0.045,-0.013l0.045,-0.014l0.045,-0.015l0.045,-0.014l0.044,-0.015l0.046,-0.015l0.044,-0.015l0.045,-0.016l0.045,-0.016l0.052,-0.018l0.053,-0.019l0.052,-0.02l0.052,-0.02l0.052,-0.02l0.051,-0.02l0.051,-0.021l0.051,-0.021l0.051,-0.021l0.051,-0.022l0.05,-0.021l0.05,-0.022l0.05,-0.023l0.05,-0.023l0.049,-0.022l0.05,-0.024l0.049,-0.023l0.049,-0.024l0.049,-0.024l0.048,-0.024l0.048,-0.025l0.048,-0.025l0.048,-0.025l0.047,-0.025l0.048,-0.026l0.047,-0.026l0.047,-0.026l0.047,-0.027l0.046,-0.026l0.046,-0.027l0.047,-0.028l0.046,-0.027l0.045,-0.028l0.046,-0.028l0.045,-0.028l0.045,-0.029l0.045,-0.028l0.044,-0.03l0.045,-0.029l0.044,-0.03l0.043,-0.029l0.043,-0.03l0.045,-0.031l0.043,-0.03l0.043,-0.031l0.042,-0.031l0.043,-0.031l0.042,-0.032l0.043,-0.032l0.041,-0.032l0.041,-0.032l0.042,-0.032l0.041,-0.033l0.041,-0.033l0.041,-0.033l0.04,-0.033l0.041,-0.034l0.04,-0.034l0.04,-0.034l0.039,-0.034l0.039,-0.034l0.039,-0.035l0.039,-0.036l0.039,-0.034l0.038,-0.036l0.038,-0.036l0.039,-0.036l0.037,-0.036l0.037,-0.035l0.037,-0.037l0.038,-0.037l0.036,-0.037l0.037,-0.037l0.036,-0.037l0.036,-0.038l0.036,-0.037l0.035,-0.038l0.036,-0.039l0.034,-0.038l0.035,-0.038l0.035,-0.039l0.034,-0.039l0.034,-0.039l0.034,-0.04l0.033,-0.039l0.034,-0.04l0.033,-0.04l0.033,-0.04l0.032,-0.04l0.033,-0.04l0.032,-0.041l0.031,-0.041l0.032,-0.041l0.032,-0.041l0.031,-0.042l0.03,-0.041l0.031,-0.042l0.03,-0.041l0.03,-0.043l0.03,-0.042l0.03,-0.043l0.029,-0.042l0.029,-0.043l0.029,-0.043l0.028,-0.043l0.028,-0.043l0.028,-0.043l0.028,-0.045l0.028,-0.043l0.026,-0.044l0.027,-0.044l0.027,-0.044l0.026,-0.045l0.026,-0.044l0.026,-0.044l0.026,-0.046l0.025,-0.045l0.025,-0.045l0.025,-0.045l0.024,-0.045l0.024,-0.046l0.024,-0.045l0.024,-0.047l0.023,-0.045l0.024,-0.047l0.023,-0.046l0.022,-0.047l0.022,-0.046l0.022,-0.046l0.022,-0.047l0.022,-0.048l0.021,-0.047l0.02,-0.046l0.021,-0.047l0.02,-0.048l0.02,-0.048l0.02,-0.047l0.019,-0.048l0.02,-0.048l0.019,-0.049l0.018,-0.048l0.018,-0.047l0.018,-0.048l0.018,-0.05l0.018,-0.048l0.017,-0.049l0.017,-0.049l0.016,-0.048l0.017,-0.049l0.016,-0.05l0.016,-0.048l0.015,-0.049l0.015,-0.051l0.015,-0.049l0.014,-0.049l0.015,-0.05l0.014,-0.049l0.013,-0.051l0.014,-0.05l0.013,-0.049l0.012,-0.051l0.013,-0.05l0.012,-0.05l0.012,-0.051l0.011,-0.049l0.012,-0.051l0.011,-0.052l0.01,-0.05l0.011,-0.05l0.01,-0.052l0.01,-0.05l0.009,-0.051l0.009,-0.052l0.009,-0.051l0.008,-0.051l0.009,-0.051l0.007,-0.051l0.008,-0.052l0.007,-0.051l0.007,-0.051l0.007,-0.053l0.006,-0.051l0.006,-0.051l0.006,-0.052l0.006,-0.053l0.005,-0.051l0.004,-0.052l0.005,-0.052l0.004,-0.051l0.004,-0.053l0.003,-0.052l0.003,-0.052l0.003,-0.052l0.003,-0.052l0.002,-0.052l0.002,-0.053l0.002,-0.052l0.001,-0.052l0.001,-0.053l0.001,-0.052l0,-0.052l0,-0.053l0,-0.053l-0.001,-0.053l-0.001,-0.052l-0.001,-0.052l-0.002,-0.053l-0.002,-0.053l-0.002,-0.053l-0.003,-0.053l-0.003,-0.051l-0.003,-0.054l-0.004,-0.053l-0.004,-0.052l-0.004,-0.053l-0.005,-0.053l-0.005,-0.053l-0.005,-0.053l-0.005,-0.052l-0.006,-0.053l-0.007,-0.054l-0.006,-0.053l-0.007,-0.052l-0.007,-0.053l-0.008,-0.054l-0.008,-0.052l-0.008,-0.052l-0.009,-0.054l-0.009,-0.053l-0.009,-0.053l-0.01,-0.053l-0.01,-0.052l-0.01,-0.053l-0.011,-0.054l-0.011,-0.052l-0.012,-0.053l-0.011,-0.053l-0.012,-0.053l-0.013,-0.054l-0.013,-0.052l-0.013,-0.053l-0.014,-0.053l-0.013,-0.053l-0.014,-0.052l-0.015,-0.053l-0.015,-0.053l-0.016,-0.054l-0.015,-0.052l-0.016,-0.052l-0.016,-0.053l-0.017,-0.053l-0.017,-0.054l-0.018,-0.051l-0.017,-0.053l-0.019,-0.053l-0.019,-0.056l-44.741,-125.759l-0.02,-0.055l-0.019,-0.053l-0.02,-0.052l-0.02,-0.052l-0.02,-0.052l-0.02,-0.051l-0.021,-0.051l-0.021,-0.051l-0.021,-0.051l-0.021,-0.051l-0.022,-0.05l-0.022,-0.05l-0.023,-0.05l-0.022,-0.05l-0.023,-0.049l-0.023,-0.05l-0.024,-0.049l-0.024,-0.049l-0.024,-0.049l-0.024,-0.048l-0.024,-0.048l-0.025,-0.048l-0.025,-0.048l-0.026,-0.048l-0.026,-0.047l-0.025,-0.047l-0.027,-0.047l-0.026,-0.047l-0.027,-0.046l-0.027,-0.047l-0.027,-0.046l-0.028,-0.046l-0.027,-0.046l-0.028,-0.045l-0.029,-0.045l-0.028,-0.045l-0.029,-0.045l-0.029,-0.044l-0.029,-0.045l-0.03,-0.044l-0.03,-0.044l-0.03,-0.044l-0.03,-0.043l-0.031,-0.043l-0.03,-0.043l-0.031,-0.042l-0.032,-0.043l-0.031,-0.043l-0.032,-0.042l-0.032,-0.041l-0.032,-0.042l-0.033,-0.042l-0.032,-0.041l-0.033,-0.041l-0.033,-0.04l-0.034,-0.041l-0.034,-0.04l-0.033,-0.04l-0.034,-0.04l-0.035,-0.039l-0.034,-0.04l-0.035,-0.039l-0.035,-0.039l-0.035,-0.038l-0.035,-0.039l-0.036,-0.038l-0.036,-0.038l-0.036,-0.037l-0.036,-0.038l-0.037,-0.037l-0.036,-0.037l-0.037,-0.037l-0.038,-0.036l-0.037,-0.037l-0.037,-0.036l-0.038,-0.036l-0.038,-0.035l-0.038,-0.035l-0.039,-0.035l-0.038,-0.035l-0.039,-0.035l-0.039,-0.034l-0.039,-0.034l-0.039,-0.034l-0.04,-0.034l-0.04,-0.033l-0.039,-0.033l-0.041,-0.033l-0.04,-0.032l-0.04,-0.033l-0.041,-0.032l-0.041,-0.031l-0.041,-0.032l-0.041,-0.032l-0.042,-0.031l-0.041,-0.03l-0.041,-0.031l-0.043,-0.03l-0.042,-0.03l-0.042,-0.03l-0.042,-0.029l-0.043,-0.03l-0.043,-0.029l-0.043,-0.029l-0.043,-0.028l-0.043,-0.028l-0.043,-0.028l-0.044,-0.028l-0.044,-0.027l-0.044,-0.028l-0.044,-0.027l-0.044,-0.026l-0.044,-0.026l-0.045,-0.027l-0.045,-0.025l-0.044,-0.026l-0.045,-0.025l-0.046,-0.025l-0.045,-0.025l-0.045,-0.024l-0.046,-0.025l-0.046,-0.024l-0.045,-0.023l-0.046,-0.024l-0.047,-0.023l-0.046,-0.023l-0.046,-0.022l-0.047,-0.022l-0.047,-0.022l-0.047,-0.022l-0.046,-0.022l-0.047,-0.021l-0.048,-0.021l-0.047,-0.02l-0.047,-0.021l-0.048,-0.02l-0.047,-0.019l-0.048,-0.02l-0.048,-0.019l-0.048,-0.019l-0.048,-0.019l-0.048,-0.018l-0.049,-0.018l-0.048,-0.018l-0.049,-0.017l-0.049,-0.017l-0.049,-0.017l-0.048,-0.017l-0.049,-0.016l-0.05,-0.016l-0.048,-0.016l-0.05,-0.015l-0.049,-0.015l-0.05,-0.015l-0.049,-0.015l-0.05,-0.014l-0.05,-0.014l-0.05,-0.014l-0.05,-0.013l-0.049,-0.013l-0.051,-0.013l-0.05,-0.012l-0.05,-0.012l-0.051,-0.012l-0.05,-0.012l-0.051,-0.011l-0.05,-0.011l-0.051,-0.011l-0.051,-0.01l-0.051,-0.01l-0.051,-0.01l-0.05,-0.009l-0.051,-0.009l-0.052,-0.009l-0.051,-0.009l-0.051,-0.008l-0.051,-0.008l-0.051,-0.007l-0.052,-0.008l-0.052,-0.007l-0.051,-0.006l-0.052,-0.007l-0.052,-0.006l-0.051,-0.005l-0.052,-0.006l-0.052,-0.005l-0.052,-0.005l-0.051,-0.004l-0.052,-0.004l-0.053,-0.004l-0.052,-0.004l-0.052,-0.003l-0.052,-0.003l-0.052,-0.002l-0.052,-0.003l-0.053,-0.001l-0.052,-0.002l-0.052,-0.001l-0.053,-0.001l-0.052,-0.001l-0.052,0l-0.053,0Z" style="fill:#b1eaf1;"/><path d="M263.244,155.448c0,2.372 -1.923,4.295 -4.295,4.295c-2.371,0 -4.294,-1.923 -4.294,-4.295c0,-2.372 1.923,-4.295 4.294,-4.295c2.372,0 4.295,1.923 4.295,4.295" style="fill:#b1eaf1;fill-rule:nonzero;"/><path d="M283.075,205.529l-238.487,0c-2.664,0 -4.824,-2.159 -4.824,-4.823c0,-2.664 2.16,-4.823 4.824,-4.823l238.487,0c2.664,0 4.823,2.159 4.823,4.823c0,2.664 -2.159,4.823 -4.823,4.823" style="fill:#b1eaf1;fill-rule:nonzero;"/><path d="M281.142,228.681l-234.62,0c-2.664,0 -4.823,-2.159 -4.823,-4.823c0,-2.664 2.159,-4.823 4.823,-4.823l234.62,0c2.664,0 4.823,2.159 4.823,4.823c0,2.664 -2.159,4.823 -4.823,4.823" style="fill:#b1eaf1;fill-rule:nonzero;"/><path d="M276.347,251.832l-225.031,0c-2.664,0 -4.823,-2.159 -4.823,-4.823c0,-2.664 2.159,-4.823 4.823,-4.823l225.031,0c2.664,0 4.823,2.159 4.823,4.823c0,2.664 -2.159,4.823 -4.823,4.823" style="fill:#b1eaf1;fill-rule:nonzero;"/><path d="M272.406,274.984l-217.149,0c-2.664,0 -4.823,-2.159 -4.823,-4.823c0,-2.664 2.159,-4.823 4.823,-4.823l217.149,0c2.664,0 4.823,2.159 4.823,4.823c0,2.664 -2.159,4.823 -4.823,4.823" style="fill:#b1eaf1;fill-rule:nonzero;"/><path d="M268.374,298.135l-209.085,0c-2.664,0 -4.823,-2.159 -4.823,-4.823c0,-2.664 2.159,-4.823 4.823,-4.823l209.085,0c2.664,0 4.823,2.159 4.823,4.823c0,2.664 -2.159,4.823 -4.823,4.823" style="fill:#b1eaf1;fill-rule:nonzero;"/><path d="M264.342,321.287l-201.021,0c-2.664,0 -4.823,-2.159 -4.823,-4.823c0,-2.664 2.159,-4.823 4.823,-4.823l201.021,0c2.664,0 4.823,2.159 4.823,4.823c0,2.664 -2.159,4.823 -4.823,4.823" style="fill:#b1eaf1;fill-rule:nonzero;"/></svg>