<?xml version="1.0" encoding="UTF-8" standalone="no"?><!DOCTYPE svg PUBLIC "-//W3C//DTD SVG 1.1//EN" "http://www.w3.org/Graphics/SVG/1.1/DTD/svg11.dtd"><svg width="100%" height="100%" viewBox="0 0 194 194" version="1.1" xmlns="http://www.w3.org/2000/svg" xmlns:xlink="http://www.w3.org/1999/xlink" xml:space="preserve" style="fill-rule:evenodd;clip-rule:evenodd;stroke-linejoin:round;stroke-miterlimit:1.41421;"><path d="M193.078,96.539c0,53.317 -43.223,96.539 -96.539,96.539c-53.317,0 -96.539,-43.222 -96.539,-96.539c0,-53.317 43.222,-96.539 96.539,-96.539c53.316,0 96.539,43.222 96.539,96.539" style="fill:#007f9d;fill-rule:nonzero;"/><path d="M120.358,129.37c-7.404,0 -13.407,-6.004 -13.407,-13.407c0,-7.405 6.003,-13.408 13.407,-13.408c7.404,0 13.407,6.003 13.407,13.408c0,7.403 -6.003,13.407 -13.407,13.407m41.282,-9.249l0,-9.245l-7.982,-1.863c-0.335,-1.669 -0.59,-3.295 -1.156,-4.869l6.328,-5.713l-4.574,-8.008l-8.173,2.581c-1.114,-1.263 -2.302,-2.444 -3.585,-3.531l2.548,-8.078l-8.004,-4.622l-5.803,6.328c-1.602,-0.541 -3.257,-1.142 -4.957,-1.444l-1.764,-8.118l-9.246,0l-1.789,8.231c-1.719,0.34 -3.393,0.893 -5.009,1.477l-5.491,-5.941l-8.007,4.645l2.48,7.893c-1.302,1.141 -2.517,2.383 -3.634,3.706l-7.759,-2.442l-4.625,8.011l6.082,5.58c-0.552,1.625 -0.985,3.306 -1.292,5.027l-7.938,1.767l-0.002,9.247l8.055,1.788c0.339,1.72 0.805,3.394 1.388,5.01l-5.983,5.49l4.621,8.008l7.881,-2.481c1.142,1.301 2.379,2.518 3.703,3.635l-2.442,7.759l8.005,4.623l5.578,-6.082c1.605,0.545 3.26,1.229 4.96,1.534l1.835,8.515l9.246,0l1.861,-8.63c1.671,-0.333 3.296,-0.914 4.871,-1.479l5.715,6.167l8.005,-4.656l-2.581,-8.214c1.263,-1.111 2.444,-2.32 3.533,-3.604l8.076,2.537l4.622,-8.011l-6.326,-5.802c0.533,-1.583 0.558,-3.214 0.863,-4.889l7.866,-1.837Z" style="fill:#4d4d4d;fill-rule:nonzero;"/><path d="M117.7,99.822c-7.404,0 -13.407,6.003 -13.407,13.407c0,7.405 6.003,13.407 13.407,13.407c7.404,0 13.407,-6.002 13.407,-13.407c0,-7.404 -6.003,-13.407 -13.407,-13.407m32.552,24.291l6.328,5.803l-4.623,8.008l-8.076,-2.542c-1.09,1.283 -2.269,2.486 -3.534,3.597l2.582,8.198l-8.005,4.624l-5.715,-6.231c-1.574,0.565 -3.199,1.14 -4.87,1.473l-1.863,8.496l-9.245,0l-1.835,-8.38c-1.7,-0.307 -3.355,-0.796 -4.959,-1.342l-5.579,6.052l-8.006,-4.637l2.442,-7.766c-1.323,-1.119 -2.56,-2.336 -3.701,-3.639l-7.881,2.477l-4.622,-8.007l5.983,-5.491c-0.583,-1.617 -1.544,-3.292 -1.884,-5.01l-8.549,-1.79l0,-9.246l8.436,-1.765c0.307,-1.724 0.986,-3.402 1.538,-5.027l-5.959,-5.581l4.687,-8.005l7.792,2.441c1.116,-1.323 2.348,-2.56 3.649,-3.7l-2.475,-7.883l8.014,-4.622l5.491,5.984c1.618,-0.582 3.292,-0.858 5.011,-1.198l1.79,-7.865l9.247,0l1.764,7.752c1.699,0.301 3.355,0.632 4.957,1.172l5.805,-6.375l8.006,4.599l-2.542,8.064c1.284,1.089 2.486,2.264 3.598,3.526l8.198,-2.584l4.623,8.006l-6.23,5.714c0.566,1.573 0.455,3.198 0.788,4.867l7.812,1.862l0,9.246l-7.696,1.837c-0.302,1.674 -0.158,3.306 -0.692,4.888" style="fill:#fff;fill-rule:nonzero;"/><path d="M117.7,126.637c-7.404,0 -13.407,-6.002 -13.407,-13.407c0,-7.405 6.003,-13.407 13.407,-13.407c7.404,0 13.407,6.002 13.407,13.407c0,7.405 -6.003,13.407 -13.407,13.407m0,-36.292c-12.639,0 -22.885,10.247 -22.885,22.885c0,12.639 10.246,22.884 22.885,22.884c12.639,0 22.884,-10.245 22.884,-22.884c0,-12.638 -10.245,-22.885 -22.884,-22.885" style="fill:#ccc;fill-rule:nonzero;"/><path d="M61.759,76.539c-5.17,0 -9.361,-4.191 -9.361,-9.36c0,-5.168 4.191,-9.36 9.361,-9.36c5.169,0 9.359,4.192 9.359,9.36c0,5.169 -4.19,9.36 -9.359,9.36m29.882,-6.457l0,-6.454l-6.106,-1.299c-0.231,-1.166 -0.677,-2.302 -1.072,-3.399l4.286,-3.991l-3.26,-5.59l-5.738,1.802c-0.777,-0.882 -1.624,-1.705 -2.52,-2.466l1.769,-5.638l-5.59,-3.227l-4.054,4.417c-1.118,-0.377 -2.275,-1.308 -3.461,-1.519l-1.231,-6.179l-6.455,0l-1.25,6.258c-1.2,0.238 -2.368,0.881 -3.498,1.287l-3.832,-4.019l-5.592,3.308l1.733,5.539c-0.908,0.798 -1.757,1.682 -2.536,2.606l-5.417,-1.698l-3.229,5.598l4.246,3.895c-0.386,1.134 -1.062,2.31 -1.277,3.514l-5.916,1.232l0,6.455l5.998,1.249c0.236,1.201 0.747,2.369 1.155,3.499l-4.084,3.831l3.273,5.591l5.528,-1.733c0.797,0.909 1.67,1.758 2.595,2.538l-1.699,5.416l5.591,3.228l3.895,-4.245c1.121,0.38 2.277,0.674 3.463,0.889l1.283,5.762l6.455,0l1.299,-5.842c1.165,-0.234 2.301,-0.548 3.399,-0.943l3.99,4.35l5.589,-3.227l-1.8,-5.722c0.881,-0.777 1.706,-1.613 2.465,-2.511l5.637,1.774l3.228,-5.591l-4.417,-4.05c0.373,-1.104 0.921,-2.244 1.132,-3.413l6.025,-1.282Z" style="fill:#4d4d4d;fill-rule:nonzero;"/><path d="M59.903,55.912c-5.17,0 -9.36,4.19 -9.36,9.359c0,5.169 4.19,9.36 9.36,9.36c5.168,0 9.358,-4.191 9.358,-9.36c0,-5.169 -4.19,-9.359 -9.358,-9.359m22.725,16.958l4.417,4.051l-3.228,5.59l-5.638,-1.775c-0.76,0.897 -1.583,1.736 -2.466,2.512l1.801,5.723l-5.588,3.227l-3.99,-4.349c-1.099,0.394 -2.232,0.66 -3.4,0.893l-1.3,5.797l-6.453,0l-1.282,-5.717c-1.188,-0.216 -2.341,-0.487 -3.461,-0.868l-3.896,4.26l-5.589,-3.22l1.704,-5.415c-0.922,-0.78 -1.787,-1.63 -2.584,-2.536l-5.501,1.731l-3.225,-5.591l4.177,-3.829c-0.409,-1.13 -0.956,-2.299 -1.195,-3.498l-5.847,-1.251l0.897,-6.454l5.318,-1.232c0.216,-1.202 0.405,-2.376 0.791,-3.51l-4.303,-3.895l3.201,-5.59l5.402,1.705c0.782,-0.924 1.622,-1.787 2.531,-2.582l-1.735,-5.504l5.589,-3.227l3.832,4.179c1.128,-0.407 2.295,-0.915 3.497,-1.151l1.248,-5.805l6.454,0l1.233,5.724c1.185,0.211 2.341,0.6 3.461,0.976l4.051,-4.371l5.59,3.249l-1.774,5.649c0.896,0.761 1.734,1.59 2.511,2.473l5.723,-1.802l3.227,5.593l-4.348,3.991c0.394,1.098 0.894,2.235 1.127,3.4l6.033,1.3l0,6.454l-5.952,1.282c-0.211,1.168 -0.687,2.309 -1.06,3.413" style="fill:#fff;fill-rule:nonzero;"/><path d="M59.903,74.631c-5.17,0 -9.36,-4.19 -9.36,-9.359c0,-5.169 4.19,-9.36 9.36,-9.36c5.168,0 9.358,4.191 9.358,9.36c0,5.169 -4.19,9.359 -9.358,9.359m0,-25.335c-8.822,0 -15.978,7.152 -15.978,15.976c0,8.824 7.156,15.975 15.978,15.975c8.822,0 15.976,-7.151 15.976,-15.975c0,-8.824 -7.154,-15.976 -15.976,-15.976" style="fill:#ccc;fill-rule:nonzero;"/></svg>